%TF.GenerationSoftware,KiCad,Pcbnew,9.0.2*%
%TF.CreationDate,2025-06-17T13:17:30+05:30*%
%TF.ProjectId,CN3767updated schematic,434e3337-3637-4757-9064-617465642073,rev?*%
%TF.SameCoordinates,Original*%
%TF.FileFunction,Drillmap*%
%TF.FilePolarity,Positive*%
%FSLAX45Y45*%
G04 Gerber Fmt 4.5, Leading zero omitted, Abs format (unit mm)*
G04 Created by KiCad (PCBNEW 9.0.2) date 2025-06-17 13:17:30*
%MOMM*%
%LPD*%
G01*
G04 APERTURE LIST*
%ADD10C,0.050000*%
%ADD11C,0.200000*%
%ADD12C,0.100000*%
%ADD13C,0.450000*%
G04 APERTURE END LIST*
D10*
X12135000Y-8130000D02*
X16802500Y-8130000D01*
X16802500Y-12372500D01*
X12135000Y-12372500D01*
X12135000Y-8130000D01*
D11*
D12*
X13832500Y-10862500D02*
X13862500Y-10892500D01*
X13862500Y-10862500D02*
X13832500Y-10892500D01*
X13937500Y-11010000D02*
X13967500Y-11040000D01*
X13967500Y-11010000D02*
X13937500Y-11040000D01*
X14057500Y-10692500D02*
X14087500Y-10722500D01*
X14087500Y-10692500D02*
X14057500Y-10722500D01*
X15127500Y-11117500D02*
X15157500Y-11147500D01*
X15157500Y-11117500D02*
X15127500Y-11147500D01*
X13130511Y-11165000D02*
G75*
G02*
X13050511Y-11165000I-40000J0D01*
G01*
X13050511Y-11165000D02*
G75*
G02*
X13130511Y-11165000I40000J0D01*
G01*
X13330511Y-11165000D02*
G75*
G02*
X13250511Y-11165000I-40000J0D01*
G01*
X13250511Y-11165000D02*
G75*
G02*
X13330511Y-11165000I40000J0D01*
G01*
X16442500Y-9620511D02*
G75*
G02*
X16362500Y-9620511I-40000J0D01*
G01*
X16362500Y-9620511D02*
G75*
G02*
X16442500Y-9620511I40000J0D01*
G01*
X16442500Y-9820511D02*
G75*
G02*
X16362500Y-9820511I-40000J0D01*
G01*
X16362500Y-9820511D02*
G75*
G02*
X16442500Y-9820511I40000J0D01*
G01*
D13*
X12903200Y-9077160D02*
X12903200Y-9527160D01*
X12678200Y-9302160D02*
X13128200Y-9302160D01*
X12903200Y-9797160D02*
X12903200Y-10247160D01*
X12678200Y-10022160D02*
X13128200Y-10022160D01*
X16192500Y-10480000D02*
X16192500Y-10930000D01*
X15967500Y-10705000D02*
X16417500Y-10705000D01*
X16192500Y-11200000D02*
X16192500Y-11650000D01*
X15967500Y-11425000D02*
X16417500Y-11425000D01*
D11*
X12393277Y-12686484D02*
X12393277Y-12486484D01*
X12393277Y-12486484D02*
X12440896Y-12486484D01*
X12440896Y-12486484D02*
X12469467Y-12496008D01*
X12469467Y-12496008D02*
X12488515Y-12515055D01*
X12488515Y-12515055D02*
X12498039Y-12534103D01*
X12498039Y-12534103D02*
X12507562Y-12572198D01*
X12507562Y-12572198D02*
X12507562Y-12600769D01*
X12507562Y-12600769D02*
X12498039Y-12638865D01*
X12498039Y-12638865D02*
X12488515Y-12657912D01*
X12488515Y-12657912D02*
X12469467Y-12676960D01*
X12469467Y-12676960D02*
X12440896Y-12686484D01*
X12440896Y-12686484D02*
X12393277Y-12686484D01*
X12593277Y-12686484D02*
X12593277Y-12553150D01*
X12593277Y-12591246D02*
X12602801Y-12572198D01*
X12602801Y-12572198D02*
X12612324Y-12562674D01*
X12612324Y-12562674D02*
X12631372Y-12553150D01*
X12631372Y-12553150D02*
X12650420Y-12553150D01*
X12717086Y-12686484D02*
X12717086Y-12553150D01*
X12717086Y-12486484D02*
X12707562Y-12496008D01*
X12707562Y-12496008D02*
X12717086Y-12505531D01*
X12717086Y-12505531D02*
X12726610Y-12496008D01*
X12726610Y-12496008D02*
X12717086Y-12486484D01*
X12717086Y-12486484D02*
X12717086Y-12505531D01*
X12840896Y-12686484D02*
X12821848Y-12676960D01*
X12821848Y-12676960D02*
X12812324Y-12657912D01*
X12812324Y-12657912D02*
X12812324Y-12486484D01*
X12945658Y-12686484D02*
X12926610Y-12676960D01*
X12926610Y-12676960D02*
X12917086Y-12657912D01*
X12917086Y-12657912D02*
X12917086Y-12486484D01*
X13174229Y-12686484D02*
X13174229Y-12486484D01*
X13174229Y-12486484D02*
X13240896Y-12629341D01*
X13240896Y-12629341D02*
X13307562Y-12486484D01*
X13307562Y-12486484D02*
X13307562Y-12686484D01*
X13488515Y-12686484D02*
X13488515Y-12581722D01*
X13488515Y-12581722D02*
X13478991Y-12562674D01*
X13478991Y-12562674D02*
X13459943Y-12553150D01*
X13459943Y-12553150D02*
X13421848Y-12553150D01*
X13421848Y-12553150D02*
X13402801Y-12562674D01*
X13488515Y-12676960D02*
X13469467Y-12686484D01*
X13469467Y-12686484D02*
X13421848Y-12686484D01*
X13421848Y-12686484D02*
X13402801Y-12676960D01*
X13402801Y-12676960D02*
X13393277Y-12657912D01*
X13393277Y-12657912D02*
X13393277Y-12638865D01*
X13393277Y-12638865D02*
X13402801Y-12619817D01*
X13402801Y-12619817D02*
X13421848Y-12610293D01*
X13421848Y-12610293D02*
X13469467Y-12610293D01*
X13469467Y-12610293D02*
X13488515Y-12600769D01*
X13583753Y-12553150D02*
X13583753Y-12753150D01*
X13583753Y-12562674D02*
X13602801Y-12553150D01*
X13602801Y-12553150D02*
X13640896Y-12553150D01*
X13640896Y-12553150D02*
X13659943Y-12562674D01*
X13659943Y-12562674D02*
X13669467Y-12572198D01*
X13669467Y-12572198D02*
X13678991Y-12591246D01*
X13678991Y-12591246D02*
X13678991Y-12648388D01*
X13678991Y-12648388D02*
X13669467Y-12667436D01*
X13669467Y-12667436D02*
X13659943Y-12676960D01*
X13659943Y-12676960D02*
X13640896Y-12686484D01*
X13640896Y-12686484D02*
X13602801Y-12686484D01*
X13602801Y-12686484D02*
X13583753Y-12676960D01*
X13764705Y-12667436D02*
X13774229Y-12676960D01*
X13774229Y-12676960D02*
X13764705Y-12686484D01*
X13764705Y-12686484D02*
X13755182Y-12676960D01*
X13755182Y-12676960D02*
X13764705Y-12667436D01*
X13764705Y-12667436D02*
X13764705Y-12686484D01*
X13764705Y-12562674D02*
X13774229Y-12572198D01*
X13774229Y-12572198D02*
X13764705Y-12581722D01*
X13764705Y-12581722D02*
X13755182Y-12572198D01*
X13755182Y-12572198D02*
X13764705Y-12562674D01*
X13764705Y-12562674D02*
X13764705Y-12581722D01*
D12*
X12102500Y-13000000D02*
X12132500Y-13030000D01*
X12132500Y-13000000D02*
X12102500Y-13030000D01*
D11*
X12431372Y-12906484D02*
X12450420Y-12906484D01*
X12450420Y-12906484D02*
X12469467Y-12916008D01*
X12469467Y-12916008D02*
X12478991Y-12925531D01*
X12478991Y-12925531D02*
X12488515Y-12944579D01*
X12488515Y-12944579D02*
X12498039Y-12982674D01*
X12498039Y-12982674D02*
X12498039Y-13030293D01*
X12498039Y-13030293D02*
X12488515Y-13068388D01*
X12488515Y-13068388D02*
X12478991Y-13087436D01*
X12478991Y-13087436D02*
X12469467Y-13096960D01*
X12469467Y-13096960D02*
X12450420Y-13106484D01*
X12450420Y-13106484D02*
X12431372Y-13106484D01*
X12431372Y-13106484D02*
X12412324Y-13096960D01*
X12412324Y-13096960D02*
X12402801Y-13087436D01*
X12402801Y-13087436D02*
X12393277Y-13068388D01*
X12393277Y-13068388D02*
X12383753Y-13030293D01*
X12383753Y-13030293D02*
X12383753Y-12982674D01*
X12383753Y-12982674D02*
X12393277Y-12944579D01*
X12393277Y-12944579D02*
X12402801Y-12925531D01*
X12402801Y-12925531D02*
X12412324Y-12916008D01*
X12412324Y-12916008D02*
X12431372Y-12906484D01*
X12583753Y-13087436D02*
X12593277Y-13096960D01*
X12593277Y-13096960D02*
X12583753Y-13106484D01*
X12583753Y-13106484D02*
X12574229Y-13096960D01*
X12574229Y-13096960D02*
X12583753Y-13087436D01*
X12583753Y-13087436D02*
X12583753Y-13106484D01*
X12659943Y-12906484D02*
X12783753Y-12906484D01*
X12783753Y-12906484D02*
X12717086Y-12982674D01*
X12717086Y-12982674D02*
X12745658Y-12982674D01*
X12745658Y-12982674D02*
X12764705Y-12992198D01*
X12764705Y-12992198D02*
X12774229Y-13001722D01*
X12774229Y-13001722D02*
X12783753Y-13020769D01*
X12783753Y-13020769D02*
X12783753Y-13068388D01*
X12783753Y-13068388D02*
X12774229Y-13087436D01*
X12774229Y-13087436D02*
X12764705Y-13096960D01*
X12764705Y-13096960D02*
X12745658Y-13106484D01*
X12745658Y-13106484D02*
X12688515Y-13106484D01*
X12688515Y-13106484D02*
X12669467Y-13096960D01*
X12669467Y-13096960D02*
X12659943Y-13087436D01*
X12907562Y-12906484D02*
X12926610Y-12906484D01*
X12926610Y-12906484D02*
X12945658Y-12916008D01*
X12945658Y-12916008D02*
X12955182Y-12925531D01*
X12955182Y-12925531D02*
X12964705Y-12944579D01*
X12964705Y-12944579D02*
X12974229Y-12982674D01*
X12974229Y-12982674D02*
X12974229Y-13030293D01*
X12974229Y-13030293D02*
X12964705Y-13068388D01*
X12964705Y-13068388D02*
X12955182Y-13087436D01*
X12955182Y-13087436D02*
X12945658Y-13096960D01*
X12945658Y-13096960D02*
X12926610Y-13106484D01*
X12926610Y-13106484D02*
X12907562Y-13106484D01*
X12907562Y-13106484D02*
X12888515Y-13096960D01*
X12888515Y-13096960D02*
X12878991Y-13087436D01*
X12878991Y-13087436D02*
X12869467Y-13068388D01*
X12869467Y-13068388D02*
X12859943Y-13030293D01*
X12859943Y-13030293D02*
X12859943Y-12982674D01*
X12859943Y-12982674D02*
X12869467Y-12944579D01*
X12869467Y-12944579D02*
X12878991Y-12925531D01*
X12878991Y-12925531D02*
X12888515Y-12916008D01*
X12888515Y-12916008D02*
X12907562Y-12906484D01*
X13098039Y-12906484D02*
X13117086Y-12906484D01*
X13117086Y-12906484D02*
X13136134Y-12916008D01*
X13136134Y-12916008D02*
X13145658Y-12925531D01*
X13145658Y-12925531D02*
X13155182Y-12944579D01*
X13155182Y-12944579D02*
X13164705Y-12982674D01*
X13164705Y-12982674D02*
X13164705Y-13030293D01*
X13164705Y-13030293D02*
X13155182Y-13068388D01*
X13155182Y-13068388D02*
X13145658Y-13087436D01*
X13145658Y-13087436D02*
X13136134Y-13096960D01*
X13136134Y-13096960D02*
X13117086Y-13106484D01*
X13117086Y-13106484D02*
X13098039Y-13106484D01*
X13098039Y-13106484D02*
X13078991Y-13096960D01*
X13078991Y-13096960D02*
X13069467Y-13087436D01*
X13069467Y-13087436D02*
X13059943Y-13068388D01*
X13059943Y-13068388D02*
X13050420Y-13030293D01*
X13050420Y-13030293D02*
X13050420Y-12982674D01*
X13050420Y-12982674D02*
X13059943Y-12944579D01*
X13059943Y-12944579D02*
X13069467Y-12925531D01*
X13069467Y-12925531D02*
X13078991Y-12916008D01*
X13078991Y-12916008D02*
X13098039Y-12906484D01*
X13250420Y-13106484D02*
X13250420Y-12973150D01*
X13250420Y-12992198D02*
X13259943Y-12982674D01*
X13259943Y-12982674D02*
X13278991Y-12973150D01*
X13278991Y-12973150D02*
X13307563Y-12973150D01*
X13307563Y-12973150D02*
X13326610Y-12982674D01*
X13326610Y-12982674D02*
X13336134Y-13001722D01*
X13336134Y-13001722D02*
X13336134Y-13106484D01*
X13336134Y-13001722D02*
X13345658Y-12982674D01*
X13345658Y-12982674D02*
X13364705Y-12973150D01*
X13364705Y-12973150D02*
X13393277Y-12973150D01*
X13393277Y-12973150D02*
X13412324Y-12982674D01*
X13412324Y-12982674D02*
X13421848Y-13001722D01*
X13421848Y-13001722D02*
X13421848Y-13106484D01*
X13517086Y-13106484D02*
X13517086Y-12973150D01*
X13517086Y-12992198D02*
X13526610Y-12982674D01*
X13526610Y-12982674D02*
X13545658Y-12973150D01*
X13545658Y-12973150D02*
X13574229Y-12973150D01*
X13574229Y-12973150D02*
X13593277Y-12982674D01*
X13593277Y-12982674D02*
X13602801Y-13001722D01*
X13602801Y-13001722D02*
X13602801Y-13106484D01*
X13602801Y-13001722D02*
X13612324Y-12982674D01*
X13612324Y-12982674D02*
X13631372Y-12973150D01*
X13631372Y-12973150D02*
X13659943Y-12973150D01*
X13659943Y-12973150D02*
X13678991Y-12982674D01*
X13678991Y-12982674D02*
X13688515Y-13001722D01*
X13688515Y-13001722D02*
X13688515Y-13106484D01*
X14078991Y-12896960D02*
X13907563Y-13154103D01*
X14336134Y-12906484D02*
X14355182Y-12906484D01*
X14355182Y-12906484D02*
X14374229Y-12916008D01*
X14374229Y-12916008D02*
X14383753Y-12925531D01*
X14383753Y-12925531D02*
X14393277Y-12944579D01*
X14393277Y-12944579D02*
X14402801Y-12982674D01*
X14402801Y-12982674D02*
X14402801Y-13030293D01*
X14402801Y-13030293D02*
X14393277Y-13068388D01*
X14393277Y-13068388D02*
X14383753Y-13087436D01*
X14383753Y-13087436D02*
X14374229Y-13096960D01*
X14374229Y-13096960D02*
X14355182Y-13106484D01*
X14355182Y-13106484D02*
X14336134Y-13106484D01*
X14336134Y-13106484D02*
X14317086Y-13096960D01*
X14317086Y-13096960D02*
X14307563Y-13087436D01*
X14307563Y-13087436D02*
X14298039Y-13068388D01*
X14298039Y-13068388D02*
X14288515Y-13030293D01*
X14288515Y-13030293D02*
X14288515Y-12982674D01*
X14288515Y-12982674D02*
X14298039Y-12944579D01*
X14298039Y-12944579D02*
X14307563Y-12925531D01*
X14307563Y-12925531D02*
X14317086Y-12916008D01*
X14317086Y-12916008D02*
X14336134Y-12906484D01*
X14488515Y-13087436D02*
X14498039Y-13096960D01*
X14498039Y-13096960D02*
X14488515Y-13106484D01*
X14488515Y-13106484D02*
X14478991Y-13096960D01*
X14478991Y-13096960D02*
X14488515Y-13087436D01*
X14488515Y-13087436D02*
X14488515Y-13106484D01*
X14621848Y-12906484D02*
X14640896Y-12906484D01*
X14640896Y-12906484D02*
X14659944Y-12916008D01*
X14659944Y-12916008D02*
X14669467Y-12925531D01*
X14669467Y-12925531D02*
X14678991Y-12944579D01*
X14678991Y-12944579D02*
X14688515Y-12982674D01*
X14688515Y-12982674D02*
X14688515Y-13030293D01*
X14688515Y-13030293D02*
X14678991Y-13068388D01*
X14678991Y-13068388D02*
X14669467Y-13087436D01*
X14669467Y-13087436D02*
X14659944Y-13096960D01*
X14659944Y-13096960D02*
X14640896Y-13106484D01*
X14640896Y-13106484D02*
X14621848Y-13106484D01*
X14621848Y-13106484D02*
X14602801Y-13096960D01*
X14602801Y-13096960D02*
X14593277Y-13087436D01*
X14593277Y-13087436D02*
X14583753Y-13068388D01*
X14583753Y-13068388D02*
X14574229Y-13030293D01*
X14574229Y-13030293D02*
X14574229Y-12982674D01*
X14574229Y-12982674D02*
X14583753Y-12944579D01*
X14583753Y-12944579D02*
X14593277Y-12925531D01*
X14593277Y-12925531D02*
X14602801Y-12916008D01*
X14602801Y-12916008D02*
X14621848Y-12906484D01*
X14878991Y-13106484D02*
X14764706Y-13106484D01*
X14821848Y-13106484D02*
X14821848Y-12906484D01*
X14821848Y-12906484D02*
X14802801Y-12935055D01*
X14802801Y-12935055D02*
X14783753Y-12954103D01*
X14783753Y-12954103D02*
X14764706Y-12963627D01*
X15069467Y-13106484D02*
X14955182Y-13106484D01*
X15012325Y-13106484D02*
X15012325Y-12906484D01*
X15012325Y-12906484D02*
X14993277Y-12935055D01*
X14993277Y-12935055D02*
X14974229Y-12954103D01*
X14974229Y-12954103D02*
X14955182Y-12963627D01*
X15183753Y-12992198D02*
X15164706Y-12982674D01*
X15164706Y-12982674D02*
X15155182Y-12973150D01*
X15155182Y-12973150D02*
X15145658Y-12954103D01*
X15145658Y-12954103D02*
X15145658Y-12944579D01*
X15145658Y-12944579D02*
X15155182Y-12925531D01*
X15155182Y-12925531D02*
X15164706Y-12916008D01*
X15164706Y-12916008D02*
X15183753Y-12906484D01*
X15183753Y-12906484D02*
X15221848Y-12906484D01*
X15221848Y-12906484D02*
X15240896Y-12916008D01*
X15240896Y-12916008D02*
X15250420Y-12925531D01*
X15250420Y-12925531D02*
X15259944Y-12944579D01*
X15259944Y-12944579D02*
X15259944Y-12954103D01*
X15259944Y-12954103D02*
X15250420Y-12973150D01*
X15250420Y-12973150D02*
X15240896Y-12982674D01*
X15240896Y-12982674D02*
X15221848Y-12992198D01*
X15221848Y-12992198D02*
X15183753Y-12992198D01*
X15183753Y-12992198D02*
X15164706Y-13001722D01*
X15164706Y-13001722D02*
X15155182Y-13011246D01*
X15155182Y-13011246D02*
X15145658Y-13030293D01*
X15145658Y-13030293D02*
X15145658Y-13068388D01*
X15145658Y-13068388D02*
X15155182Y-13087436D01*
X15155182Y-13087436D02*
X15164706Y-13096960D01*
X15164706Y-13096960D02*
X15183753Y-13106484D01*
X15183753Y-13106484D02*
X15221848Y-13106484D01*
X15221848Y-13106484D02*
X15240896Y-13096960D01*
X15240896Y-13096960D02*
X15250420Y-13087436D01*
X15250420Y-13087436D02*
X15259944Y-13068388D01*
X15259944Y-13068388D02*
X15259944Y-13030293D01*
X15259944Y-13030293D02*
X15250420Y-13011246D01*
X15250420Y-13011246D02*
X15240896Y-13001722D01*
X15240896Y-13001722D02*
X15221848Y-12992198D01*
X15336134Y-12906484D02*
X15336134Y-12944579D01*
X15412325Y-12906484D02*
X15412325Y-12944579D01*
X15707563Y-13182674D02*
X15698039Y-13173150D01*
X15698039Y-13173150D02*
X15678991Y-13144579D01*
X15678991Y-13144579D02*
X15669468Y-13125531D01*
X15669468Y-13125531D02*
X15659944Y-13096960D01*
X15659944Y-13096960D02*
X15650420Y-13049341D01*
X15650420Y-13049341D02*
X15650420Y-13011246D01*
X15650420Y-13011246D02*
X15659944Y-12963627D01*
X15659944Y-12963627D02*
X15669468Y-12935055D01*
X15669468Y-12935055D02*
X15678991Y-12916008D01*
X15678991Y-12916008D02*
X15698039Y-12887436D01*
X15698039Y-12887436D02*
X15707563Y-12877912D01*
X15869468Y-12973150D02*
X15869468Y-13106484D01*
X15821848Y-12896960D02*
X15774229Y-13039817D01*
X15774229Y-13039817D02*
X15898039Y-13039817D01*
X16126610Y-13106484D02*
X16126610Y-12906484D01*
X16212325Y-13106484D02*
X16212325Y-13001722D01*
X16212325Y-13001722D02*
X16202801Y-12982674D01*
X16202801Y-12982674D02*
X16183753Y-12973150D01*
X16183753Y-12973150D02*
X16155182Y-12973150D01*
X16155182Y-12973150D02*
X16136134Y-12982674D01*
X16136134Y-12982674D02*
X16126610Y-12992198D01*
X16336134Y-13106484D02*
X16317087Y-13096960D01*
X16317087Y-13096960D02*
X16307563Y-13087436D01*
X16307563Y-13087436D02*
X16298039Y-13068388D01*
X16298039Y-13068388D02*
X16298039Y-13011246D01*
X16298039Y-13011246D02*
X16307563Y-12992198D01*
X16307563Y-12992198D02*
X16317087Y-12982674D01*
X16317087Y-12982674D02*
X16336134Y-12973150D01*
X16336134Y-12973150D02*
X16364706Y-12973150D01*
X16364706Y-12973150D02*
X16383753Y-12982674D01*
X16383753Y-12982674D02*
X16393277Y-12992198D01*
X16393277Y-12992198D02*
X16402801Y-13011246D01*
X16402801Y-13011246D02*
X16402801Y-13068388D01*
X16402801Y-13068388D02*
X16393277Y-13087436D01*
X16393277Y-13087436D02*
X16383753Y-13096960D01*
X16383753Y-13096960D02*
X16364706Y-13106484D01*
X16364706Y-13106484D02*
X16336134Y-13106484D01*
X16517087Y-13106484D02*
X16498039Y-13096960D01*
X16498039Y-13096960D02*
X16488515Y-13077912D01*
X16488515Y-13077912D02*
X16488515Y-12906484D01*
X16669468Y-13096960D02*
X16650420Y-13106484D01*
X16650420Y-13106484D02*
X16612325Y-13106484D01*
X16612325Y-13106484D02*
X16593277Y-13096960D01*
X16593277Y-13096960D02*
X16583753Y-13077912D01*
X16583753Y-13077912D02*
X16583753Y-13001722D01*
X16583753Y-13001722D02*
X16593277Y-12982674D01*
X16593277Y-12982674D02*
X16612325Y-12973150D01*
X16612325Y-12973150D02*
X16650420Y-12973150D01*
X16650420Y-12973150D02*
X16669468Y-12982674D01*
X16669468Y-12982674D02*
X16678991Y-13001722D01*
X16678991Y-13001722D02*
X16678991Y-13020769D01*
X16678991Y-13020769D02*
X16583753Y-13039817D01*
X16755182Y-13096960D02*
X16774230Y-13106484D01*
X16774230Y-13106484D02*
X16812325Y-13106484D01*
X16812325Y-13106484D02*
X16831373Y-13096960D01*
X16831373Y-13096960D02*
X16840896Y-13077912D01*
X16840896Y-13077912D02*
X16840896Y-13068388D01*
X16840896Y-13068388D02*
X16831373Y-13049341D01*
X16831373Y-13049341D02*
X16812325Y-13039817D01*
X16812325Y-13039817D02*
X16783753Y-13039817D01*
X16783753Y-13039817D02*
X16764706Y-13030293D01*
X16764706Y-13030293D02*
X16755182Y-13011246D01*
X16755182Y-13011246D02*
X16755182Y-13001722D01*
X16755182Y-13001722D02*
X16764706Y-12982674D01*
X16764706Y-12982674D02*
X16783753Y-12973150D01*
X16783753Y-12973150D02*
X16812325Y-12973150D01*
X16812325Y-12973150D02*
X16831373Y-12982674D01*
X16907563Y-13182674D02*
X16917087Y-13173150D01*
X16917087Y-13173150D02*
X16936134Y-13144579D01*
X16936134Y-13144579D02*
X16945658Y-13125531D01*
X16945658Y-13125531D02*
X16955182Y-13096960D01*
X16955182Y-13096960D02*
X16964706Y-13049341D01*
X16964706Y-13049341D02*
X16964706Y-13011246D01*
X16964706Y-13011246D02*
X16955182Y-12963627D01*
X16955182Y-12963627D02*
X16945658Y-12935055D01*
X16945658Y-12935055D02*
X16936134Y-12916008D01*
X16936134Y-12916008D02*
X16917087Y-12887436D01*
X16917087Y-12887436D02*
X16907563Y-12877912D01*
D12*
X12132500Y-13279000D02*
G75*
G02*
X12052500Y-13279000I-40000J0D01*
G01*
X12052500Y-13279000D02*
G75*
G02*
X12132500Y-13279000I40000J0D01*
G01*
D11*
X12431372Y-13170484D02*
X12450420Y-13170484D01*
X12450420Y-13170484D02*
X12469467Y-13180008D01*
X12469467Y-13180008D02*
X12478991Y-13189531D01*
X12478991Y-13189531D02*
X12488515Y-13208579D01*
X12488515Y-13208579D02*
X12498039Y-13246674D01*
X12498039Y-13246674D02*
X12498039Y-13294293D01*
X12498039Y-13294293D02*
X12488515Y-13332388D01*
X12488515Y-13332388D02*
X12478991Y-13351436D01*
X12478991Y-13351436D02*
X12469467Y-13360960D01*
X12469467Y-13360960D02*
X12450420Y-13370484D01*
X12450420Y-13370484D02*
X12431372Y-13370484D01*
X12431372Y-13370484D02*
X12412324Y-13360960D01*
X12412324Y-13360960D02*
X12402801Y-13351436D01*
X12402801Y-13351436D02*
X12393277Y-13332388D01*
X12393277Y-13332388D02*
X12383753Y-13294293D01*
X12383753Y-13294293D02*
X12383753Y-13246674D01*
X12383753Y-13246674D02*
X12393277Y-13208579D01*
X12393277Y-13208579D02*
X12402801Y-13189531D01*
X12402801Y-13189531D02*
X12412324Y-13180008D01*
X12412324Y-13180008D02*
X12431372Y-13170484D01*
X12583753Y-13351436D02*
X12593277Y-13360960D01*
X12593277Y-13360960D02*
X12583753Y-13370484D01*
X12583753Y-13370484D02*
X12574229Y-13360960D01*
X12574229Y-13360960D02*
X12583753Y-13351436D01*
X12583753Y-13351436D02*
X12583753Y-13370484D01*
X12707562Y-13256198D02*
X12688515Y-13246674D01*
X12688515Y-13246674D02*
X12678991Y-13237150D01*
X12678991Y-13237150D02*
X12669467Y-13218103D01*
X12669467Y-13218103D02*
X12669467Y-13208579D01*
X12669467Y-13208579D02*
X12678991Y-13189531D01*
X12678991Y-13189531D02*
X12688515Y-13180008D01*
X12688515Y-13180008D02*
X12707562Y-13170484D01*
X12707562Y-13170484D02*
X12745658Y-13170484D01*
X12745658Y-13170484D02*
X12764705Y-13180008D01*
X12764705Y-13180008D02*
X12774229Y-13189531D01*
X12774229Y-13189531D02*
X12783753Y-13208579D01*
X12783753Y-13208579D02*
X12783753Y-13218103D01*
X12783753Y-13218103D02*
X12774229Y-13237150D01*
X12774229Y-13237150D02*
X12764705Y-13246674D01*
X12764705Y-13246674D02*
X12745658Y-13256198D01*
X12745658Y-13256198D02*
X12707562Y-13256198D01*
X12707562Y-13256198D02*
X12688515Y-13265722D01*
X12688515Y-13265722D02*
X12678991Y-13275246D01*
X12678991Y-13275246D02*
X12669467Y-13294293D01*
X12669467Y-13294293D02*
X12669467Y-13332388D01*
X12669467Y-13332388D02*
X12678991Y-13351436D01*
X12678991Y-13351436D02*
X12688515Y-13360960D01*
X12688515Y-13360960D02*
X12707562Y-13370484D01*
X12707562Y-13370484D02*
X12745658Y-13370484D01*
X12745658Y-13370484D02*
X12764705Y-13360960D01*
X12764705Y-13360960D02*
X12774229Y-13351436D01*
X12774229Y-13351436D02*
X12783753Y-13332388D01*
X12783753Y-13332388D02*
X12783753Y-13294293D01*
X12783753Y-13294293D02*
X12774229Y-13275246D01*
X12774229Y-13275246D02*
X12764705Y-13265722D01*
X12764705Y-13265722D02*
X12745658Y-13256198D01*
X12907562Y-13170484D02*
X12926610Y-13170484D01*
X12926610Y-13170484D02*
X12945658Y-13180008D01*
X12945658Y-13180008D02*
X12955182Y-13189531D01*
X12955182Y-13189531D02*
X12964705Y-13208579D01*
X12964705Y-13208579D02*
X12974229Y-13246674D01*
X12974229Y-13246674D02*
X12974229Y-13294293D01*
X12974229Y-13294293D02*
X12964705Y-13332388D01*
X12964705Y-13332388D02*
X12955182Y-13351436D01*
X12955182Y-13351436D02*
X12945658Y-13360960D01*
X12945658Y-13360960D02*
X12926610Y-13370484D01*
X12926610Y-13370484D02*
X12907562Y-13370484D01*
X12907562Y-13370484D02*
X12888515Y-13360960D01*
X12888515Y-13360960D02*
X12878991Y-13351436D01*
X12878991Y-13351436D02*
X12869467Y-13332388D01*
X12869467Y-13332388D02*
X12859943Y-13294293D01*
X12859943Y-13294293D02*
X12859943Y-13246674D01*
X12859943Y-13246674D02*
X12869467Y-13208579D01*
X12869467Y-13208579D02*
X12878991Y-13189531D01*
X12878991Y-13189531D02*
X12888515Y-13180008D01*
X12888515Y-13180008D02*
X12907562Y-13170484D01*
X13098039Y-13170484D02*
X13117086Y-13170484D01*
X13117086Y-13170484D02*
X13136134Y-13180008D01*
X13136134Y-13180008D02*
X13145658Y-13189531D01*
X13145658Y-13189531D02*
X13155182Y-13208579D01*
X13155182Y-13208579D02*
X13164705Y-13246674D01*
X13164705Y-13246674D02*
X13164705Y-13294293D01*
X13164705Y-13294293D02*
X13155182Y-13332388D01*
X13155182Y-13332388D02*
X13145658Y-13351436D01*
X13145658Y-13351436D02*
X13136134Y-13360960D01*
X13136134Y-13360960D02*
X13117086Y-13370484D01*
X13117086Y-13370484D02*
X13098039Y-13370484D01*
X13098039Y-13370484D02*
X13078991Y-13360960D01*
X13078991Y-13360960D02*
X13069467Y-13351436D01*
X13069467Y-13351436D02*
X13059943Y-13332388D01*
X13059943Y-13332388D02*
X13050420Y-13294293D01*
X13050420Y-13294293D02*
X13050420Y-13246674D01*
X13050420Y-13246674D02*
X13059943Y-13208579D01*
X13059943Y-13208579D02*
X13069467Y-13189531D01*
X13069467Y-13189531D02*
X13078991Y-13180008D01*
X13078991Y-13180008D02*
X13098039Y-13170484D01*
X13250420Y-13370484D02*
X13250420Y-13237150D01*
X13250420Y-13256198D02*
X13259943Y-13246674D01*
X13259943Y-13246674D02*
X13278991Y-13237150D01*
X13278991Y-13237150D02*
X13307563Y-13237150D01*
X13307563Y-13237150D02*
X13326610Y-13246674D01*
X13326610Y-13246674D02*
X13336134Y-13265722D01*
X13336134Y-13265722D02*
X13336134Y-13370484D01*
X13336134Y-13265722D02*
X13345658Y-13246674D01*
X13345658Y-13246674D02*
X13364705Y-13237150D01*
X13364705Y-13237150D02*
X13393277Y-13237150D01*
X13393277Y-13237150D02*
X13412324Y-13246674D01*
X13412324Y-13246674D02*
X13421848Y-13265722D01*
X13421848Y-13265722D02*
X13421848Y-13370484D01*
X13517086Y-13370484D02*
X13517086Y-13237150D01*
X13517086Y-13256198D02*
X13526610Y-13246674D01*
X13526610Y-13246674D02*
X13545658Y-13237150D01*
X13545658Y-13237150D02*
X13574229Y-13237150D01*
X13574229Y-13237150D02*
X13593277Y-13246674D01*
X13593277Y-13246674D02*
X13602801Y-13265722D01*
X13602801Y-13265722D02*
X13602801Y-13370484D01*
X13602801Y-13265722D02*
X13612324Y-13246674D01*
X13612324Y-13246674D02*
X13631372Y-13237150D01*
X13631372Y-13237150D02*
X13659943Y-13237150D01*
X13659943Y-13237150D02*
X13678991Y-13246674D01*
X13678991Y-13246674D02*
X13688515Y-13265722D01*
X13688515Y-13265722D02*
X13688515Y-13370484D01*
X14078991Y-13160960D02*
X13907563Y-13418103D01*
X14336134Y-13170484D02*
X14355182Y-13170484D01*
X14355182Y-13170484D02*
X14374229Y-13180008D01*
X14374229Y-13180008D02*
X14383753Y-13189531D01*
X14383753Y-13189531D02*
X14393277Y-13208579D01*
X14393277Y-13208579D02*
X14402801Y-13246674D01*
X14402801Y-13246674D02*
X14402801Y-13294293D01*
X14402801Y-13294293D02*
X14393277Y-13332388D01*
X14393277Y-13332388D02*
X14383753Y-13351436D01*
X14383753Y-13351436D02*
X14374229Y-13360960D01*
X14374229Y-13360960D02*
X14355182Y-13370484D01*
X14355182Y-13370484D02*
X14336134Y-13370484D01*
X14336134Y-13370484D02*
X14317086Y-13360960D01*
X14317086Y-13360960D02*
X14307563Y-13351436D01*
X14307563Y-13351436D02*
X14298039Y-13332388D01*
X14298039Y-13332388D02*
X14288515Y-13294293D01*
X14288515Y-13294293D02*
X14288515Y-13246674D01*
X14288515Y-13246674D02*
X14298039Y-13208579D01*
X14298039Y-13208579D02*
X14307563Y-13189531D01*
X14307563Y-13189531D02*
X14317086Y-13180008D01*
X14317086Y-13180008D02*
X14336134Y-13170484D01*
X14488515Y-13351436D02*
X14498039Y-13360960D01*
X14498039Y-13360960D02*
X14488515Y-13370484D01*
X14488515Y-13370484D02*
X14478991Y-13360960D01*
X14478991Y-13360960D02*
X14488515Y-13351436D01*
X14488515Y-13351436D02*
X14488515Y-13370484D01*
X14621848Y-13170484D02*
X14640896Y-13170484D01*
X14640896Y-13170484D02*
X14659944Y-13180008D01*
X14659944Y-13180008D02*
X14669467Y-13189531D01*
X14669467Y-13189531D02*
X14678991Y-13208579D01*
X14678991Y-13208579D02*
X14688515Y-13246674D01*
X14688515Y-13246674D02*
X14688515Y-13294293D01*
X14688515Y-13294293D02*
X14678991Y-13332388D01*
X14678991Y-13332388D02*
X14669467Y-13351436D01*
X14669467Y-13351436D02*
X14659944Y-13360960D01*
X14659944Y-13360960D02*
X14640896Y-13370484D01*
X14640896Y-13370484D02*
X14621848Y-13370484D01*
X14621848Y-13370484D02*
X14602801Y-13360960D01*
X14602801Y-13360960D02*
X14593277Y-13351436D01*
X14593277Y-13351436D02*
X14583753Y-13332388D01*
X14583753Y-13332388D02*
X14574229Y-13294293D01*
X14574229Y-13294293D02*
X14574229Y-13246674D01*
X14574229Y-13246674D02*
X14583753Y-13208579D01*
X14583753Y-13208579D02*
X14593277Y-13189531D01*
X14593277Y-13189531D02*
X14602801Y-13180008D01*
X14602801Y-13180008D02*
X14621848Y-13170484D01*
X14755182Y-13170484D02*
X14878991Y-13170484D01*
X14878991Y-13170484D02*
X14812325Y-13246674D01*
X14812325Y-13246674D02*
X14840896Y-13246674D01*
X14840896Y-13246674D02*
X14859944Y-13256198D01*
X14859944Y-13256198D02*
X14869467Y-13265722D01*
X14869467Y-13265722D02*
X14878991Y-13284769D01*
X14878991Y-13284769D02*
X14878991Y-13332388D01*
X14878991Y-13332388D02*
X14869467Y-13351436D01*
X14869467Y-13351436D02*
X14859944Y-13360960D01*
X14859944Y-13360960D02*
X14840896Y-13370484D01*
X14840896Y-13370484D02*
X14783753Y-13370484D01*
X14783753Y-13370484D02*
X14764706Y-13360960D01*
X14764706Y-13360960D02*
X14755182Y-13351436D01*
X15069467Y-13370484D02*
X14955182Y-13370484D01*
X15012325Y-13370484D02*
X15012325Y-13170484D01*
X15012325Y-13170484D02*
X14993277Y-13199055D01*
X14993277Y-13199055D02*
X14974229Y-13218103D01*
X14974229Y-13218103D02*
X14955182Y-13227627D01*
X15250420Y-13170484D02*
X15155182Y-13170484D01*
X15155182Y-13170484D02*
X15145658Y-13265722D01*
X15145658Y-13265722D02*
X15155182Y-13256198D01*
X15155182Y-13256198D02*
X15174229Y-13246674D01*
X15174229Y-13246674D02*
X15221848Y-13246674D01*
X15221848Y-13246674D02*
X15240896Y-13256198D01*
X15240896Y-13256198D02*
X15250420Y-13265722D01*
X15250420Y-13265722D02*
X15259944Y-13284769D01*
X15259944Y-13284769D02*
X15259944Y-13332388D01*
X15259944Y-13332388D02*
X15250420Y-13351436D01*
X15250420Y-13351436D02*
X15240896Y-13360960D01*
X15240896Y-13360960D02*
X15221848Y-13370484D01*
X15221848Y-13370484D02*
X15174229Y-13370484D01*
X15174229Y-13370484D02*
X15155182Y-13360960D01*
X15155182Y-13360960D02*
X15145658Y-13351436D01*
X15336134Y-13170484D02*
X15336134Y-13208579D01*
X15412325Y-13170484D02*
X15412325Y-13208579D01*
X15707563Y-13446674D02*
X15698039Y-13437150D01*
X15698039Y-13437150D02*
X15678991Y-13408579D01*
X15678991Y-13408579D02*
X15669468Y-13389531D01*
X15669468Y-13389531D02*
X15659944Y-13360960D01*
X15659944Y-13360960D02*
X15650420Y-13313341D01*
X15650420Y-13313341D02*
X15650420Y-13275246D01*
X15650420Y-13275246D02*
X15659944Y-13227627D01*
X15659944Y-13227627D02*
X15669468Y-13199055D01*
X15669468Y-13199055D02*
X15678991Y-13180008D01*
X15678991Y-13180008D02*
X15698039Y-13151436D01*
X15698039Y-13151436D02*
X15707563Y-13141912D01*
X15869468Y-13237150D02*
X15869468Y-13370484D01*
X15821848Y-13160960D02*
X15774229Y-13303817D01*
X15774229Y-13303817D02*
X15898039Y-13303817D01*
X16126610Y-13370484D02*
X16126610Y-13170484D01*
X16212325Y-13370484D02*
X16212325Y-13265722D01*
X16212325Y-13265722D02*
X16202801Y-13246674D01*
X16202801Y-13246674D02*
X16183753Y-13237150D01*
X16183753Y-13237150D02*
X16155182Y-13237150D01*
X16155182Y-13237150D02*
X16136134Y-13246674D01*
X16136134Y-13246674D02*
X16126610Y-13256198D01*
X16336134Y-13370484D02*
X16317087Y-13360960D01*
X16317087Y-13360960D02*
X16307563Y-13351436D01*
X16307563Y-13351436D02*
X16298039Y-13332388D01*
X16298039Y-13332388D02*
X16298039Y-13275246D01*
X16298039Y-13275246D02*
X16307563Y-13256198D01*
X16307563Y-13256198D02*
X16317087Y-13246674D01*
X16317087Y-13246674D02*
X16336134Y-13237150D01*
X16336134Y-13237150D02*
X16364706Y-13237150D01*
X16364706Y-13237150D02*
X16383753Y-13246674D01*
X16383753Y-13246674D02*
X16393277Y-13256198D01*
X16393277Y-13256198D02*
X16402801Y-13275246D01*
X16402801Y-13275246D02*
X16402801Y-13332388D01*
X16402801Y-13332388D02*
X16393277Y-13351436D01*
X16393277Y-13351436D02*
X16383753Y-13360960D01*
X16383753Y-13360960D02*
X16364706Y-13370484D01*
X16364706Y-13370484D02*
X16336134Y-13370484D01*
X16517087Y-13370484D02*
X16498039Y-13360960D01*
X16498039Y-13360960D02*
X16488515Y-13341912D01*
X16488515Y-13341912D02*
X16488515Y-13170484D01*
X16669468Y-13360960D02*
X16650420Y-13370484D01*
X16650420Y-13370484D02*
X16612325Y-13370484D01*
X16612325Y-13370484D02*
X16593277Y-13360960D01*
X16593277Y-13360960D02*
X16583753Y-13341912D01*
X16583753Y-13341912D02*
X16583753Y-13265722D01*
X16583753Y-13265722D02*
X16593277Y-13246674D01*
X16593277Y-13246674D02*
X16612325Y-13237150D01*
X16612325Y-13237150D02*
X16650420Y-13237150D01*
X16650420Y-13237150D02*
X16669468Y-13246674D01*
X16669468Y-13246674D02*
X16678991Y-13265722D01*
X16678991Y-13265722D02*
X16678991Y-13284769D01*
X16678991Y-13284769D02*
X16583753Y-13303817D01*
X16755182Y-13360960D02*
X16774230Y-13370484D01*
X16774230Y-13370484D02*
X16812325Y-13370484D01*
X16812325Y-13370484D02*
X16831373Y-13360960D01*
X16831373Y-13360960D02*
X16840896Y-13341912D01*
X16840896Y-13341912D02*
X16840896Y-13332388D01*
X16840896Y-13332388D02*
X16831373Y-13313341D01*
X16831373Y-13313341D02*
X16812325Y-13303817D01*
X16812325Y-13303817D02*
X16783753Y-13303817D01*
X16783753Y-13303817D02*
X16764706Y-13294293D01*
X16764706Y-13294293D02*
X16755182Y-13275246D01*
X16755182Y-13275246D02*
X16755182Y-13265722D01*
X16755182Y-13265722D02*
X16764706Y-13246674D01*
X16764706Y-13246674D02*
X16783753Y-13237150D01*
X16783753Y-13237150D02*
X16812325Y-13237150D01*
X16812325Y-13237150D02*
X16831373Y-13246674D01*
X16907563Y-13446674D02*
X16917087Y-13437150D01*
X16917087Y-13437150D02*
X16936134Y-13408579D01*
X16936134Y-13408579D02*
X16945658Y-13389531D01*
X16945658Y-13389531D02*
X16955182Y-13360960D01*
X16955182Y-13360960D02*
X16964706Y-13313341D01*
X16964706Y-13313341D02*
X16964706Y-13275246D01*
X16964706Y-13275246D02*
X16955182Y-13227627D01*
X16955182Y-13227627D02*
X16945658Y-13199055D01*
X16945658Y-13199055D02*
X16936134Y-13180008D01*
X16936134Y-13180008D02*
X16917087Y-13151436D01*
X16917087Y-13151436D02*
X16907563Y-13141912D01*
X12032500Y-13443000D02*
X12032500Y-13643000D01*
X11932500Y-13543000D02*
X12132500Y-13543000D01*
X12478991Y-13501150D02*
X12478991Y-13634484D01*
X12431372Y-13424960D02*
X12383753Y-13567817D01*
X12383753Y-13567817D02*
X12507562Y-13567817D01*
X12583753Y-13615436D02*
X12593277Y-13624960D01*
X12593277Y-13624960D02*
X12583753Y-13634484D01*
X12583753Y-13634484D02*
X12574229Y-13624960D01*
X12574229Y-13624960D02*
X12583753Y-13615436D01*
X12583753Y-13615436D02*
X12583753Y-13634484D01*
X12774229Y-13434484D02*
X12678991Y-13434484D01*
X12678991Y-13434484D02*
X12669467Y-13529722D01*
X12669467Y-13529722D02*
X12678991Y-13520198D01*
X12678991Y-13520198D02*
X12698039Y-13510674D01*
X12698039Y-13510674D02*
X12745658Y-13510674D01*
X12745658Y-13510674D02*
X12764705Y-13520198D01*
X12764705Y-13520198D02*
X12774229Y-13529722D01*
X12774229Y-13529722D02*
X12783753Y-13548769D01*
X12783753Y-13548769D02*
X12783753Y-13596388D01*
X12783753Y-13596388D02*
X12774229Y-13615436D01*
X12774229Y-13615436D02*
X12764705Y-13624960D01*
X12764705Y-13624960D02*
X12745658Y-13634484D01*
X12745658Y-13634484D02*
X12698039Y-13634484D01*
X12698039Y-13634484D02*
X12678991Y-13624960D01*
X12678991Y-13624960D02*
X12669467Y-13615436D01*
X12907562Y-13434484D02*
X12926610Y-13434484D01*
X12926610Y-13434484D02*
X12945658Y-13444008D01*
X12945658Y-13444008D02*
X12955182Y-13453531D01*
X12955182Y-13453531D02*
X12964705Y-13472579D01*
X12964705Y-13472579D02*
X12974229Y-13510674D01*
X12974229Y-13510674D02*
X12974229Y-13558293D01*
X12974229Y-13558293D02*
X12964705Y-13596388D01*
X12964705Y-13596388D02*
X12955182Y-13615436D01*
X12955182Y-13615436D02*
X12945658Y-13624960D01*
X12945658Y-13624960D02*
X12926610Y-13634484D01*
X12926610Y-13634484D02*
X12907562Y-13634484D01*
X12907562Y-13634484D02*
X12888515Y-13624960D01*
X12888515Y-13624960D02*
X12878991Y-13615436D01*
X12878991Y-13615436D02*
X12869467Y-13596388D01*
X12869467Y-13596388D02*
X12859943Y-13558293D01*
X12859943Y-13558293D02*
X12859943Y-13510674D01*
X12859943Y-13510674D02*
X12869467Y-13472579D01*
X12869467Y-13472579D02*
X12878991Y-13453531D01*
X12878991Y-13453531D02*
X12888515Y-13444008D01*
X12888515Y-13444008D02*
X12907562Y-13434484D01*
X13098039Y-13434484D02*
X13117086Y-13434484D01*
X13117086Y-13434484D02*
X13136134Y-13444008D01*
X13136134Y-13444008D02*
X13145658Y-13453531D01*
X13145658Y-13453531D02*
X13155182Y-13472579D01*
X13155182Y-13472579D02*
X13164705Y-13510674D01*
X13164705Y-13510674D02*
X13164705Y-13558293D01*
X13164705Y-13558293D02*
X13155182Y-13596388D01*
X13155182Y-13596388D02*
X13145658Y-13615436D01*
X13145658Y-13615436D02*
X13136134Y-13624960D01*
X13136134Y-13624960D02*
X13117086Y-13634484D01*
X13117086Y-13634484D02*
X13098039Y-13634484D01*
X13098039Y-13634484D02*
X13078991Y-13624960D01*
X13078991Y-13624960D02*
X13069467Y-13615436D01*
X13069467Y-13615436D02*
X13059943Y-13596388D01*
X13059943Y-13596388D02*
X13050420Y-13558293D01*
X13050420Y-13558293D02*
X13050420Y-13510674D01*
X13050420Y-13510674D02*
X13059943Y-13472579D01*
X13059943Y-13472579D02*
X13069467Y-13453531D01*
X13069467Y-13453531D02*
X13078991Y-13444008D01*
X13078991Y-13444008D02*
X13098039Y-13434484D01*
X13250420Y-13634484D02*
X13250420Y-13501150D01*
X13250420Y-13520198D02*
X13259943Y-13510674D01*
X13259943Y-13510674D02*
X13278991Y-13501150D01*
X13278991Y-13501150D02*
X13307563Y-13501150D01*
X13307563Y-13501150D02*
X13326610Y-13510674D01*
X13326610Y-13510674D02*
X13336134Y-13529722D01*
X13336134Y-13529722D02*
X13336134Y-13634484D01*
X13336134Y-13529722D02*
X13345658Y-13510674D01*
X13345658Y-13510674D02*
X13364705Y-13501150D01*
X13364705Y-13501150D02*
X13393277Y-13501150D01*
X13393277Y-13501150D02*
X13412324Y-13510674D01*
X13412324Y-13510674D02*
X13421848Y-13529722D01*
X13421848Y-13529722D02*
X13421848Y-13634484D01*
X13517086Y-13634484D02*
X13517086Y-13501150D01*
X13517086Y-13520198D02*
X13526610Y-13510674D01*
X13526610Y-13510674D02*
X13545658Y-13501150D01*
X13545658Y-13501150D02*
X13574229Y-13501150D01*
X13574229Y-13501150D02*
X13593277Y-13510674D01*
X13593277Y-13510674D02*
X13602801Y-13529722D01*
X13602801Y-13529722D02*
X13602801Y-13634484D01*
X13602801Y-13529722D02*
X13612324Y-13510674D01*
X13612324Y-13510674D02*
X13631372Y-13501150D01*
X13631372Y-13501150D02*
X13659943Y-13501150D01*
X13659943Y-13501150D02*
X13678991Y-13510674D01*
X13678991Y-13510674D02*
X13688515Y-13529722D01*
X13688515Y-13529722D02*
X13688515Y-13634484D01*
X14078991Y-13424960D02*
X13907563Y-13682103D01*
X14336134Y-13434484D02*
X14355182Y-13434484D01*
X14355182Y-13434484D02*
X14374229Y-13444008D01*
X14374229Y-13444008D02*
X14383753Y-13453531D01*
X14383753Y-13453531D02*
X14393277Y-13472579D01*
X14393277Y-13472579D02*
X14402801Y-13510674D01*
X14402801Y-13510674D02*
X14402801Y-13558293D01*
X14402801Y-13558293D02*
X14393277Y-13596388D01*
X14393277Y-13596388D02*
X14383753Y-13615436D01*
X14383753Y-13615436D02*
X14374229Y-13624960D01*
X14374229Y-13624960D02*
X14355182Y-13634484D01*
X14355182Y-13634484D02*
X14336134Y-13634484D01*
X14336134Y-13634484D02*
X14317086Y-13624960D01*
X14317086Y-13624960D02*
X14307563Y-13615436D01*
X14307563Y-13615436D02*
X14298039Y-13596388D01*
X14298039Y-13596388D02*
X14288515Y-13558293D01*
X14288515Y-13558293D02*
X14288515Y-13510674D01*
X14288515Y-13510674D02*
X14298039Y-13472579D01*
X14298039Y-13472579D02*
X14307563Y-13453531D01*
X14307563Y-13453531D02*
X14317086Y-13444008D01*
X14317086Y-13444008D02*
X14336134Y-13434484D01*
X14488515Y-13615436D02*
X14498039Y-13624960D01*
X14498039Y-13624960D02*
X14488515Y-13634484D01*
X14488515Y-13634484D02*
X14478991Y-13624960D01*
X14478991Y-13624960D02*
X14488515Y-13615436D01*
X14488515Y-13615436D02*
X14488515Y-13634484D01*
X14688515Y-13634484D02*
X14574229Y-13634484D01*
X14631372Y-13634484D02*
X14631372Y-13434484D01*
X14631372Y-13434484D02*
X14612325Y-13463055D01*
X14612325Y-13463055D02*
X14593277Y-13482103D01*
X14593277Y-13482103D02*
X14574229Y-13491627D01*
X14755182Y-13434484D02*
X14888515Y-13434484D01*
X14888515Y-13434484D02*
X14802801Y-13634484D01*
X14945658Y-13434484D02*
X15078991Y-13434484D01*
X15078991Y-13434484D02*
X14993277Y-13634484D01*
X15145658Y-13453531D02*
X15155182Y-13444008D01*
X15155182Y-13444008D02*
X15174229Y-13434484D01*
X15174229Y-13434484D02*
X15221848Y-13434484D01*
X15221848Y-13434484D02*
X15240896Y-13444008D01*
X15240896Y-13444008D02*
X15250420Y-13453531D01*
X15250420Y-13453531D02*
X15259944Y-13472579D01*
X15259944Y-13472579D02*
X15259944Y-13491627D01*
X15259944Y-13491627D02*
X15250420Y-13520198D01*
X15250420Y-13520198D02*
X15136134Y-13634484D01*
X15136134Y-13634484D02*
X15259944Y-13634484D01*
X15336134Y-13434484D02*
X15336134Y-13472579D01*
X15412325Y-13434484D02*
X15412325Y-13472579D01*
X15707563Y-13710674D02*
X15698039Y-13701150D01*
X15698039Y-13701150D02*
X15678991Y-13672579D01*
X15678991Y-13672579D02*
X15669468Y-13653531D01*
X15669468Y-13653531D02*
X15659944Y-13624960D01*
X15659944Y-13624960D02*
X15650420Y-13577341D01*
X15650420Y-13577341D02*
X15650420Y-13539246D01*
X15650420Y-13539246D02*
X15659944Y-13491627D01*
X15659944Y-13491627D02*
X15669468Y-13463055D01*
X15669468Y-13463055D02*
X15678991Y-13444008D01*
X15678991Y-13444008D02*
X15698039Y-13415436D01*
X15698039Y-13415436D02*
X15707563Y-13405912D01*
X15869468Y-13501150D02*
X15869468Y-13634484D01*
X15821848Y-13424960D02*
X15774229Y-13567817D01*
X15774229Y-13567817D02*
X15898039Y-13567817D01*
X16126610Y-13634484D02*
X16126610Y-13434484D01*
X16212325Y-13634484D02*
X16212325Y-13529722D01*
X16212325Y-13529722D02*
X16202801Y-13510674D01*
X16202801Y-13510674D02*
X16183753Y-13501150D01*
X16183753Y-13501150D02*
X16155182Y-13501150D01*
X16155182Y-13501150D02*
X16136134Y-13510674D01*
X16136134Y-13510674D02*
X16126610Y-13520198D01*
X16336134Y-13634484D02*
X16317087Y-13624960D01*
X16317087Y-13624960D02*
X16307563Y-13615436D01*
X16307563Y-13615436D02*
X16298039Y-13596388D01*
X16298039Y-13596388D02*
X16298039Y-13539246D01*
X16298039Y-13539246D02*
X16307563Y-13520198D01*
X16307563Y-13520198D02*
X16317087Y-13510674D01*
X16317087Y-13510674D02*
X16336134Y-13501150D01*
X16336134Y-13501150D02*
X16364706Y-13501150D01*
X16364706Y-13501150D02*
X16383753Y-13510674D01*
X16383753Y-13510674D02*
X16393277Y-13520198D01*
X16393277Y-13520198D02*
X16402801Y-13539246D01*
X16402801Y-13539246D02*
X16402801Y-13596388D01*
X16402801Y-13596388D02*
X16393277Y-13615436D01*
X16393277Y-13615436D02*
X16383753Y-13624960D01*
X16383753Y-13624960D02*
X16364706Y-13634484D01*
X16364706Y-13634484D02*
X16336134Y-13634484D01*
X16517087Y-13634484D02*
X16498039Y-13624960D01*
X16498039Y-13624960D02*
X16488515Y-13605912D01*
X16488515Y-13605912D02*
X16488515Y-13434484D01*
X16669468Y-13624960D02*
X16650420Y-13634484D01*
X16650420Y-13634484D02*
X16612325Y-13634484D01*
X16612325Y-13634484D02*
X16593277Y-13624960D01*
X16593277Y-13624960D02*
X16583753Y-13605912D01*
X16583753Y-13605912D02*
X16583753Y-13529722D01*
X16583753Y-13529722D02*
X16593277Y-13510674D01*
X16593277Y-13510674D02*
X16612325Y-13501150D01*
X16612325Y-13501150D02*
X16650420Y-13501150D01*
X16650420Y-13501150D02*
X16669468Y-13510674D01*
X16669468Y-13510674D02*
X16678991Y-13529722D01*
X16678991Y-13529722D02*
X16678991Y-13548769D01*
X16678991Y-13548769D02*
X16583753Y-13567817D01*
X16755182Y-13624960D02*
X16774230Y-13634484D01*
X16774230Y-13634484D02*
X16812325Y-13634484D01*
X16812325Y-13634484D02*
X16831373Y-13624960D01*
X16831373Y-13624960D02*
X16840896Y-13605912D01*
X16840896Y-13605912D02*
X16840896Y-13596388D01*
X16840896Y-13596388D02*
X16831373Y-13577341D01*
X16831373Y-13577341D02*
X16812325Y-13567817D01*
X16812325Y-13567817D02*
X16783753Y-13567817D01*
X16783753Y-13567817D02*
X16764706Y-13558293D01*
X16764706Y-13558293D02*
X16755182Y-13539246D01*
X16755182Y-13539246D02*
X16755182Y-13529722D01*
X16755182Y-13529722D02*
X16764706Y-13510674D01*
X16764706Y-13510674D02*
X16783753Y-13501150D01*
X16783753Y-13501150D02*
X16812325Y-13501150D01*
X16812325Y-13501150D02*
X16831373Y-13510674D01*
X16907563Y-13710674D02*
X16917087Y-13701150D01*
X16917087Y-13701150D02*
X16936134Y-13672579D01*
X16936134Y-13672579D02*
X16945658Y-13653531D01*
X16945658Y-13653531D02*
X16955182Y-13624960D01*
X16955182Y-13624960D02*
X16964706Y-13577341D01*
X16964706Y-13577341D02*
X16964706Y-13539246D01*
X16964706Y-13539246D02*
X16955182Y-13491627D01*
X16955182Y-13491627D02*
X16945658Y-13463055D01*
X16945658Y-13463055D02*
X16936134Y-13444008D01*
X16936134Y-13444008D02*
X16917087Y-13415436D01*
X16917087Y-13415436D02*
X16907563Y-13405912D01*
M02*
