%TF.GenerationSoftware,KiCad,Pcbnew,9.0.2*%
%TF.CreationDate,2025-06-17T13:17:13+05:30*%
%TF.ProjectId,CN3767updated schematic,434e3337-3637-4757-9064-617465642073,rev?*%
%TF.SameCoordinates,Original*%
%TF.FileFunction,Copper,L2,Bot*%
%TF.FilePolarity,Positive*%
%FSLAX46Y46*%
G04 Gerber Fmt 4.6, Leading zero omitted, Abs format (unit mm)*
G04 Created by KiCad (PCBNEW 9.0.2) date 2025-06-17 13:17:13*
%MOMM*%
%LPD*%
G01*
G04 APERTURE LIST*
G04 Aperture macros list*
%AMRoundRect*
0 Rectangle with rounded corners*
0 $1 Rounding radius*
0 $2 $3 $4 $5 $6 $7 $8 $9 X,Y pos of 4 corners*
0 Add a 4 corners polygon primitive as box body*
4,1,4,$2,$3,$4,$5,$6,$7,$8,$9,$2,$3,0*
0 Add four circle primitives for the rounded corners*
1,1,$1+$1,$2,$3*
1,1,$1+$1,$4,$5*
1,1,$1+$1,$6,$7*
1,1,$1+$1,$8,$9*
0 Add four rect primitives between the rounded corners*
20,1,$1+$1,$2,$3,$4,$5,0*
20,1,$1+$1,$4,$5,$6,$7,0*
20,1,$1+$1,$6,$7,$8,$9,0*
20,1,$1+$1,$8,$9,$2,$3,0*%
G04 Aperture macros list end*
%TA.AperFunction,ComponentPad*%
%ADD10RoundRect,0.250000X0.550000X0.550000X-0.550000X0.550000X-0.550000X-0.550000X0.550000X-0.550000X0*%
%TD*%
%TA.AperFunction,ComponentPad*%
%ADD11C,1.600000*%
%TD*%
%TA.AperFunction,ComponentPad*%
%ADD12RoundRect,1.500000X1.500000X-1.500000X1.500000X1.500000X-1.500000X1.500000X-1.500000X-1.500000X0*%
%TD*%
%TA.AperFunction,ComponentPad*%
%ADD13C,6.000000*%
%TD*%
%TA.AperFunction,ComponentPad*%
%ADD14RoundRect,1.500000X-1.500000X1.500000X-1.500000X-1.500000X1.500000X-1.500000X1.500000X1.500000X0*%
%TD*%
%TA.AperFunction,ComponentPad*%
%ADD15RoundRect,0.250000X0.550000X-0.550000X0.550000X0.550000X-0.550000X0.550000X-0.550000X-0.550000X0*%
%TD*%
%TA.AperFunction,ViaPad*%
%ADD16C,0.600000*%
%TD*%
%TA.AperFunction,Conductor*%
%ADD17C,0.500000*%
%TD*%
%TA.AperFunction,Conductor*%
%ADD18C,0.450000*%
%TD*%
G04 APERTURE END LIST*
D10*
%TO.P,47uF 25V,1*%
%TO.N,Net-(U1-VCC)*%
X132905113Y-111650000D03*
D11*
%TO.P,47uF 25V,2*%
%TO.N,GND*%
X130905113Y-111650000D03*
%TD*%
D12*
%TO.P,Solar panel,1,1*%
%TO.N,Net-(F1-Pad1)*%
X129032000Y-100221600D03*
D13*
%TO.P,Solar panel,2,2*%
%TO.N,GND*%
X129032000Y-93021600D03*
%TD*%
D14*
%TO.P,Lead Acid Battery,1,+*%
%TO.N,Net-(Lead Acid Battery1-+)*%
X161925000Y-107050000D03*
D13*
%TO.P,Lead Acid Battery,2,-*%
%TO.N,GND*%
X161925000Y-114250000D03*
%TD*%
D15*
%TO.P,47uF 25V,1*%
%TO.N,Net-(Lead Acid Battery1-+)*%
X164025000Y-98205113D03*
D11*
%TO.P,47uF 25V,2*%
%TO.N,GND*%
X164025000Y-96205113D03*
%TD*%
D16*
%TO.N,Net-(U1-VCC)*%
X140725000Y-107075000D03*
X139525000Y-110250000D03*
%TO.N,Net-(U1-MPPT)*%
X151425000Y-111325000D03*
X138475000Y-108775000D03*
%TD*%
D17*
%TO.N,Net-(U1-VCC)*%
X140725000Y-107075000D02*
X139525000Y-108275000D01*
X139525000Y-108275000D02*
X139525000Y-110250000D01*
D18*
%TO.N,Net-(U1-MPPT)*%
X140550000Y-117475000D02*
X140900000Y-117825000D01*
X149950000Y-117825000D02*
X151425000Y-116350000D01*
X151425000Y-116350000D02*
X151425000Y-114475000D01*
X139525000Y-114325000D02*
X139525000Y-116475000D01*
X138475000Y-108775000D02*
X138475000Y-113275000D01*
X138475000Y-113275000D02*
X139225000Y-114025000D01*
X140900000Y-117825000D02*
X149950000Y-117825000D01*
X139225000Y-114025000D02*
X139525000Y-114325000D01*
X151425000Y-111325000D02*
X151400000Y-111300000D01*
X151425000Y-114475000D02*
X151425000Y-111325000D01*
X139525000Y-116475000D02*
X139550000Y-116475000D01*
X139550000Y-116475000D02*
X140550000Y-117475000D01*
%TD*%
%TA.AperFunction,Conductor*%
%TO.N,GND*%
G36*
X167717539Y-81570185D02*
G01*
X167763294Y-81622989D01*
X167774500Y-81674500D01*
X167774500Y-123350500D01*
X167754815Y-123417539D01*
X167702011Y-123463294D01*
X167650500Y-123474500D01*
X121724500Y-123474500D01*
X121657461Y-123454815D01*
X121611706Y-123402011D01*
X121600500Y-123350500D01*
X121600500Y-120989102D01*
X123111900Y-120989102D01*
X123111900Y-121225297D01*
X123148846Y-121458568D01*
X123221833Y-121683196D01*
X123329057Y-121893633D01*
X123467883Y-122084710D01*
X123634890Y-122251717D01*
X123825967Y-122390543D01*
X123925391Y-122441202D01*
X124036403Y-122497766D01*
X124036405Y-122497766D01*
X124036408Y-122497768D01*
X124156812Y-122536889D01*
X124261031Y-122570753D01*
X124494303Y-122607700D01*
X124494308Y-122607700D01*
X124730497Y-122607700D01*
X124963768Y-122570753D01*
X125188392Y-122497768D01*
X125398833Y-122390543D01*
X125589910Y-122251717D01*
X125756917Y-122084710D01*
X125895743Y-121893633D01*
X126002968Y-121683192D01*
X126075953Y-121458568D01*
X126088762Y-121377697D01*
X126112900Y-121225297D01*
X126112900Y-121141502D01*
X163726500Y-121141502D01*
X163726500Y-121377697D01*
X163763446Y-121610968D01*
X163836433Y-121835596D01*
X163866005Y-121893633D01*
X163943657Y-122046033D01*
X164082483Y-122237110D01*
X164249490Y-122404117D01*
X164440567Y-122542943D01*
X164539991Y-122593602D01*
X164651003Y-122650166D01*
X164651005Y-122650166D01*
X164651008Y-122650168D01*
X164771412Y-122689289D01*
X164875631Y-122723153D01*
X165108903Y-122760100D01*
X165108908Y-122760100D01*
X165345097Y-122760100D01*
X165578368Y-122723153D01*
X165802992Y-122650168D01*
X166013433Y-122542943D01*
X166204510Y-122404117D01*
X166371517Y-122237110D01*
X166510343Y-122046033D01*
X166617568Y-121835592D01*
X166690553Y-121610968D01*
X166714691Y-121458568D01*
X166727500Y-121377697D01*
X166727500Y-121141502D01*
X166690553Y-120908231D01*
X166617566Y-120683603D01*
X166510342Y-120473166D01*
X166371517Y-120282090D01*
X166204510Y-120115083D01*
X166013433Y-119976257D01*
X165802996Y-119869033D01*
X165578368Y-119796046D01*
X165345097Y-119759100D01*
X165345092Y-119759100D01*
X165108908Y-119759100D01*
X165108903Y-119759100D01*
X164875631Y-119796046D01*
X164651003Y-119869033D01*
X164440566Y-119976257D01*
X164331550Y-120055462D01*
X164249490Y-120115083D01*
X164249488Y-120115085D01*
X164249487Y-120115085D01*
X164082485Y-120282087D01*
X164082485Y-120282088D01*
X164082483Y-120282090D01*
X164022862Y-120364150D01*
X163943657Y-120473166D01*
X163836433Y-120683603D01*
X163763446Y-120908231D01*
X163726500Y-121141502D01*
X126112900Y-121141502D01*
X126112900Y-120989102D01*
X126075953Y-120755831D01*
X126002966Y-120531203D01*
X125895742Y-120320766D01*
X125867642Y-120282090D01*
X125756917Y-120129690D01*
X125589910Y-119962683D01*
X125398833Y-119823857D01*
X125344251Y-119796046D01*
X125188396Y-119716633D01*
X124963768Y-119643646D01*
X124730497Y-119606700D01*
X124730492Y-119606700D01*
X124494308Y-119606700D01*
X124494303Y-119606700D01*
X124261031Y-119643646D01*
X124036403Y-119716633D01*
X123825966Y-119823857D01*
X123716950Y-119903062D01*
X123634890Y-119962683D01*
X123634888Y-119962685D01*
X123634887Y-119962685D01*
X123467885Y-120129687D01*
X123467885Y-120129688D01*
X123467883Y-120129690D01*
X123408262Y-120211750D01*
X123329057Y-120320766D01*
X123221833Y-120531203D01*
X123148846Y-120755831D01*
X123111900Y-120989102D01*
X121600500Y-120989102D01*
X121600500Y-111547682D01*
X129605113Y-111547682D01*
X129605113Y-111752317D01*
X129637122Y-111954417D01*
X129700357Y-112149031D01*
X129793254Y-112331350D01*
X129793260Y-112331359D01*
X129825636Y-112375921D01*
X129825637Y-112375922D01*
X130505113Y-111696446D01*
X130505113Y-111702661D01*
X130532372Y-111804394D01*
X130585033Y-111895606D01*
X130659507Y-111970080D01*
X130750719Y-112022741D01*
X130852452Y-112050000D01*
X130858665Y-112050000D01*
X130179189Y-112729474D01*
X130223763Y-112761859D01*
X130406081Y-112854755D01*
X130600695Y-112917990D01*
X130802796Y-112950000D01*
X131007430Y-112950000D01*
X131209530Y-112917990D01*
X131404144Y-112854755D01*
X131586454Y-112761863D01*
X131586462Y-112761858D01*
X131656665Y-112710852D01*
X131722471Y-112687371D01*
X131790525Y-112703196D01*
X131817233Y-112723488D01*
X131886457Y-112792712D01*
X132035779Y-112884814D01*
X132202316Y-112939999D01*
X132305104Y-112950500D01*
X133505121Y-112950499D01*
X133607910Y-112939999D01*
X133774447Y-112884814D01*
X133923769Y-112792712D01*
X134047825Y-112668656D01*
X134139927Y-112519334D01*
X134195112Y-112352797D01*
X134205613Y-112250009D01*
X134205612Y-111049992D01*
X134203683Y-111031113D01*
X134195112Y-110947203D01*
X134195111Y-110947200D01*
X134151207Y-110814707D01*
X134139927Y-110780666D01*
X134047825Y-110631344D01*
X133923769Y-110507288D01*
X133774447Y-110415186D01*
X133607910Y-110360001D01*
X133607908Y-110360000D01*
X133505123Y-110349500D01*
X132305111Y-110349500D01*
X132305094Y-110349501D01*
X132202316Y-110360000D01*
X132202313Y-110360001D01*
X132035781Y-110415185D01*
X132035776Y-110415187D01*
X131886458Y-110507287D01*
X131817234Y-110576511D01*
X131755910Y-110609995D01*
X131686219Y-110605010D01*
X131656668Y-110589147D01*
X131586465Y-110538142D01*
X131404144Y-110445244D01*
X131209530Y-110382009D01*
X131007430Y-110350000D01*
X130802796Y-110350000D01*
X130600695Y-110382009D01*
X130406081Y-110445244D01*
X130223757Y-110538143D01*
X130179190Y-110570523D01*
X130179190Y-110570524D01*
X130858666Y-111250000D01*
X130852452Y-111250000D01*
X130750719Y-111277259D01*
X130659507Y-111329920D01*
X130585033Y-111404394D01*
X130532372Y-111495606D01*
X130505113Y-111597339D01*
X130505113Y-111603553D01*
X129825637Y-110924077D01*
X129825636Y-110924077D01*
X129793256Y-110968644D01*
X129700357Y-111150968D01*
X129637122Y-111345582D01*
X129605113Y-111547682D01*
X121600500Y-111547682D01*
X121600500Y-108696153D01*
X137674500Y-108696153D01*
X137674500Y-108853846D01*
X137705261Y-109008489D01*
X137705264Y-109008501D01*
X137740061Y-109092508D01*
X137749500Y-109139960D01*
X137749500Y-113346455D01*
X137756585Y-113382070D01*
X137756585Y-113382073D01*
X137777379Y-113486612D01*
X137777381Y-113486620D01*
X137832070Y-113618651D01*
X137911469Y-113737482D01*
X137911470Y-113737483D01*
X138661468Y-114487480D01*
X138763181Y-114589193D01*
X138796666Y-114650516D01*
X138799500Y-114676874D01*
X138799500Y-116403545D01*
X138799500Y-116546455D01*
X138799500Y-116546457D01*
X138799499Y-116546457D01*
X138827379Y-116686614D01*
X138827381Y-116686620D01*
X138882069Y-116818650D01*
X138882074Y-116818659D01*
X138961467Y-116937478D01*
X138961470Y-116937482D01*
X139062517Y-117038529D01*
X139062521Y-117038532D01*
X139127704Y-117082085D01*
X139146494Y-117097506D01*
X139986468Y-117937480D01*
X140336468Y-118287479D01*
X140437519Y-118388530D01*
X140437522Y-118388533D01*
X140556340Y-118467925D01*
X140556346Y-118467928D01*
X140556347Y-118467929D01*
X140688380Y-118522619D01*
X140688384Y-118522619D01*
X140688385Y-118522620D01*
X140828542Y-118550500D01*
X140828545Y-118550500D01*
X150021457Y-118550500D01*
X150115751Y-118531742D01*
X150161620Y-118522619D01*
X150293653Y-118467929D01*
X150412480Y-118388532D01*
X151988532Y-116812480D01*
X152067929Y-116693653D01*
X152122619Y-116561620D01*
X152150500Y-116421455D01*
X152150500Y-114403545D01*
X152150500Y-111689960D01*
X152159939Y-111642508D01*
X152194735Y-111558501D01*
X152194737Y-111558497D01*
X152225500Y-111403842D01*
X152225500Y-111246158D01*
X152225500Y-111246155D01*
X152225499Y-111246153D01*
X152194738Y-111091510D01*
X152194737Y-111091503D01*
X152190894Y-111082226D01*
X152134397Y-110945827D01*
X152134390Y-110945814D01*
X152046789Y-110814711D01*
X152046786Y-110814707D01*
X151935292Y-110703213D01*
X151935288Y-110703210D01*
X151804185Y-110615609D01*
X151804172Y-110615602D01*
X151658501Y-110555264D01*
X151658489Y-110555261D01*
X151503845Y-110524500D01*
X151503842Y-110524500D01*
X151346158Y-110524500D01*
X151346155Y-110524500D01*
X151191510Y-110555261D01*
X151191498Y-110555264D01*
X151045827Y-110615602D01*
X151045814Y-110615609D01*
X150914711Y-110703210D01*
X150914707Y-110703213D01*
X150803213Y-110814707D01*
X150803210Y-110814711D01*
X150715609Y-110945814D01*
X150715602Y-110945827D01*
X150655264Y-111091498D01*
X150655261Y-111091510D01*
X150624500Y-111246153D01*
X150624500Y-111403846D01*
X150655261Y-111558489D01*
X150655264Y-111558501D01*
X150690061Y-111642508D01*
X150699500Y-111689960D01*
X150699500Y-115998126D01*
X150679815Y-116065165D01*
X150663181Y-116085807D01*
X149685807Y-117063181D01*
X149624484Y-117096666D01*
X149598126Y-117099500D01*
X141251874Y-117099500D01*
X141184835Y-117079815D01*
X141164193Y-117063181D01*
X140286819Y-116185807D01*
X140253334Y-116124484D01*
X140250500Y-116098126D01*
X140250500Y-114253542D01*
X140222620Y-114113385D01*
X140222619Y-114113384D01*
X140222619Y-114113380D01*
X140195274Y-114047363D01*
X140167930Y-113981348D01*
X140149352Y-113953545D01*
X140149351Y-113953544D01*
X140111200Y-113896446D01*
X140088532Y-113862520D01*
X140088530Y-113862518D01*
X140088528Y-113862515D01*
X140088527Y-113862514D01*
X139687480Y-113461468D01*
X139236819Y-113010807D01*
X139203334Y-112949484D01*
X139200500Y-112923126D01*
X139200500Y-111152730D01*
X139220185Y-111085691D01*
X139272989Y-111039936D01*
X139342147Y-111029992D01*
X139348692Y-111031113D01*
X139446155Y-111050500D01*
X139446158Y-111050500D01*
X139603844Y-111050500D01*
X139603845Y-111050499D01*
X139758497Y-111019737D01*
X139904179Y-110959394D01*
X140035289Y-110871789D01*
X140146789Y-110760289D01*
X140234394Y-110629179D01*
X140294737Y-110483497D01*
X140325500Y-110328842D01*
X140325500Y-110171158D01*
X140325500Y-110171155D01*
X140325499Y-110171153D01*
X140294739Y-110016511D01*
X140294738Y-110016508D01*
X140294737Y-110016503D01*
X140284937Y-109992844D01*
X140275500Y-109945396D01*
X140275500Y-108637229D01*
X140295185Y-108570190D01*
X140311819Y-108549548D01*
X140596660Y-108264707D01*
X141040297Y-107821069D01*
X141080522Y-107794192D01*
X141104179Y-107784394D01*
X141235289Y-107696789D01*
X141346789Y-107585289D01*
X141434394Y-107454179D01*
X141494737Y-107308497D01*
X141525500Y-107153842D01*
X141525500Y-106996158D01*
X141525500Y-106996155D01*
X141525499Y-106996153D01*
X141494738Y-106841510D01*
X141494737Y-106841503D01*
X141444194Y-106719480D01*
X141434397Y-106695827D01*
X141434390Y-106695814D01*
X141346789Y-106564711D01*
X141346786Y-106564707D01*
X141235292Y-106453213D01*
X141235288Y-106453210D01*
X141104185Y-106365609D01*
X141104172Y-106365602D01*
X140958501Y-106305264D01*
X140958489Y-106305261D01*
X140803845Y-106274500D01*
X140803842Y-106274500D01*
X140646158Y-106274500D01*
X140646155Y-106274500D01*
X140491510Y-106305261D01*
X140491498Y-106305264D01*
X140345827Y-106365602D01*
X140345814Y-106365609D01*
X140214711Y-106453210D01*
X140214707Y-106453213D01*
X140103213Y-106564707D01*
X140103207Y-106564715D01*
X140015607Y-106695818D01*
X140015606Y-106695819D01*
X140005805Y-106719480D01*
X139978927Y-106759703D01*
X138942050Y-107796581D01*
X138942048Y-107796584D01*
X138931323Y-107812636D01*
X138859916Y-107919505D01*
X138850533Y-107942155D01*
X138845089Y-107950877D01*
X138826354Y-107967545D01*
X138810621Y-107987068D01*
X138800701Y-107990369D01*
X138792889Y-107997320D01*
X138768116Y-108001213D01*
X138744327Y-108009131D01*
X138729776Y-108007239D01*
X138723866Y-108008169D01*
X138718408Y-108005762D01*
X138714704Y-108005281D01*
X138714472Y-108006451D01*
X138553845Y-107974500D01*
X138553842Y-107974500D01*
X138396158Y-107974500D01*
X138396155Y-107974500D01*
X138241510Y-108005261D01*
X138241498Y-108005264D01*
X138095827Y-108065602D01*
X138095814Y-108065609D01*
X137964711Y-108153210D01*
X137964707Y-108153213D01*
X137853213Y-108264707D01*
X137853210Y-108264711D01*
X137765609Y-108395814D01*
X137765602Y-108395827D01*
X137705264Y-108541498D01*
X137705261Y-108541510D01*
X137674500Y-108696153D01*
X121600500Y-108696153D01*
X121600500Y-105478549D01*
X158424500Y-105478549D01*
X158424500Y-108621450D01*
X158439804Y-108835433D01*
X158500628Y-109115037D01*
X158500630Y-109115043D01*
X158500631Y-109115046D01*
X158600633Y-109383161D01*
X158600635Y-109383166D01*
X158737770Y-109634309D01*
X158737775Y-109634317D01*
X158909254Y-109863387D01*
X158909270Y-109863405D01*
X159111594Y-110065729D01*
X159111612Y-110065745D01*
X159340682Y-110237224D01*
X159340690Y-110237229D01*
X159591833Y-110374364D01*
X159591832Y-110374364D01*
X159591836Y-110374365D01*
X159591839Y-110374367D01*
X159859954Y-110474369D01*
X159859960Y-110474370D01*
X159859962Y-110474371D01*
X160139566Y-110535195D01*
X160139568Y-110535195D01*
X160139572Y-110535196D01*
X160353552Y-110550500D01*
X161324242Y-110550500D01*
X161391281Y-110570185D01*
X161437036Y-110622989D01*
X161446980Y-110692147D01*
X161417955Y-110755703D01*
X161359177Y-110793477D01*
X161348433Y-110796117D01*
X161073562Y-110850791D01*
X161073556Y-110850792D01*
X160744459Y-110950623D01*
X160426758Y-111082219D01*
X160426744Y-111082226D01*
X160123481Y-111244322D01*
X160123463Y-111244333D01*
X159837546Y-111435377D01*
X159837532Y-111435387D01*
X159632338Y-111603786D01*
X160520330Y-112491778D01*
X160438289Y-112554731D01*
X160229731Y-112763289D01*
X160166778Y-112845330D01*
X159278786Y-111957338D01*
X159110387Y-112162532D01*
X159110377Y-112162546D01*
X158919333Y-112448463D01*
X158919322Y-112448481D01*
X158757226Y-112751744D01*
X158757219Y-112751758D01*
X158625623Y-113069459D01*
X158525792Y-113398556D01*
X158525791Y-113398562D01*
X158458708Y-113735817D01*
X158458705Y-113735834D01*
X158425000Y-114078059D01*
X158425000Y-114421940D01*
X158458705Y-114764165D01*
X158458708Y-114764182D01*
X158525791Y-115101437D01*
X158525792Y-115101443D01*
X158625623Y-115430540D01*
X158757219Y-115748241D01*
X158757226Y-115748255D01*
X158919322Y-116051518D01*
X158919333Y-116051536D01*
X159110377Y-116337453D01*
X159110387Y-116337467D01*
X159278785Y-116542659D01*
X159278786Y-116542660D01*
X160166777Y-115654668D01*
X160229731Y-115736711D01*
X160438289Y-115945269D01*
X160520329Y-116008221D01*
X159632338Y-116896212D01*
X159632339Y-116896213D01*
X159837533Y-117064612D01*
X159837546Y-117064622D01*
X160123463Y-117255666D01*
X160123481Y-117255677D01*
X160426744Y-117417773D01*
X160426758Y-117417780D01*
X160744459Y-117549376D01*
X161073556Y-117649207D01*
X161073562Y-117649208D01*
X161410817Y-117716291D01*
X161410834Y-117716294D01*
X161753059Y-117750000D01*
X162096941Y-117750000D01*
X162439165Y-117716294D01*
X162439182Y-117716291D01*
X162776437Y-117649208D01*
X162776443Y-117649207D01*
X163105540Y-117549376D01*
X163423241Y-117417780D01*
X163423255Y-117417773D01*
X163726518Y-117255677D01*
X163726536Y-117255666D01*
X164012453Y-117064622D01*
X164012466Y-117064612D01*
X164217659Y-116896213D01*
X164217659Y-116896212D01*
X163329669Y-116008222D01*
X163411711Y-115945269D01*
X163620269Y-115736711D01*
X163683222Y-115654669D01*
X164571212Y-116542659D01*
X164571213Y-116542659D01*
X164739612Y-116337466D01*
X164739622Y-116337453D01*
X164930666Y-116051536D01*
X164930677Y-116051518D01*
X165092773Y-115748255D01*
X165092780Y-115748241D01*
X165224376Y-115430540D01*
X165324207Y-115101443D01*
X165324208Y-115101437D01*
X165391291Y-114764182D01*
X165391294Y-114764165D01*
X165425000Y-114421940D01*
X165425000Y-114078059D01*
X165391294Y-113735834D01*
X165391291Y-113735817D01*
X165324208Y-113398562D01*
X165324207Y-113398556D01*
X165224376Y-113069459D01*
X165092780Y-112751758D01*
X165092773Y-112751744D01*
X164930677Y-112448481D01*
X164930666Y-112448463D01*
X164739622Y-112162546D01*
X164739612Y-112162533D01*
X164571213Y-111957339D01*
X164571212Y-111957338D01*
X163683221Y-112845329D01*
X163620269Y-112763289D01*
X163411711Y-112554731D01*
X163329668Y-112491777D01*
X164217660Y-111603786D01*
X164217659Y-111603785D01*
X164012467Y-111435387D01*
X164012453Y-111435377D01*
X163726536Y-111244333D01*
X163726518Y-111244322D01*
X163423255Y-111082226D01*
X163423241Y-111082219D01*
X163105540Y-110950623D01*
X162776443Y-110850792D01*
X162776437Y-110850791D01*
X162501567Y-110796117D01*
X162439656Y-110763733D01*
X162405082Y-110703017D01*
X162408821Y-110633247D01*
X162449687Y-110576575D01*
X162514705Y-110550994D01*
X162525758Y-110550500D01*
X163496448Y-110550500D01*
X163710428Y-110535196D01*
X163838720Y-110507288D01*
X163990037Y-110474371D01*
X163990037Y-110474370D01*
X163990046Y-110474369D01*
X164258161Y-110374367D01*
X164509315Y-110237226D01*
X164738395Y-110065739D01*
X164940739Y-109863395D01*
X165112226Y-109634315D01*
X165249367Y-109383161D01*
X165349369Y-109115046D01*
X165372549Y-109008489D01*
X165410195Y-108835433D01*
X165410195Y-108835432D01*
X165410196Y-108835428D01*
X165425500Y-108621448D01*
X165425500Y-105478552D01*
X165410196Y-105264572D01*
X165349369Y-104984954D01*
X165249367Y-104716839D01*
X165112226Y-104465685D01*
X165112224Y-104465682D01*
X164940745Y-104236612D01*
X164940729Y-104236594D01*
X164738405Y-104034270D01*
X164738387Y-104034254D01*
X164509317Y-103862775D01*
X164509309Y-103862770D01*
X164258166Y-103725635D01*
X164258167Y-103725635D01*
X164150915Y-103685632D01*
X163990046Y-103625631D01*
X163990043Y-103625630D01*
X163990037Y-103625628D01*
X163710433Y-103564804D01*
X163496450Y-103549500D01*
X163496448Y-103549500D01*
X160353552Y-103549500D01*
X160353549Y-103549500D01*
X160139566Y-103564804D01*
X159859962Y-103625628D01*
X159591833Y-103725635D01*
X159340690Y-103862770D01*
X159340682Y-103862775D01*
X159111612Y-104034254D01*
X159111594Y-104034270D01*
X158909270Y-104236594D01*
X158909254Y-104236612D01*
X158737775Y-104465682D01*
X158737770Y-104465690D01*
X158600635Y-104716833D01*
X158500628Y-104984962D01*
X158439804Y-105264566D01*
X158424500Y-105478549D01*
X121600500Y-105478549D01*
X121600500Y-98650149D01*
X125531500Y-98650149D01*
X125531500Y-101793050D01*
X125546804Y-102007033D01*
X125607628Y-102286637D01*
X125707635Y-102554766D01*
X125844770Y-102805909D01*
X125844775Y-102805917D01*
X126016254Y-103034987D01*
X126016270Y-103035005D01*
X126218594Y-103237329D01*
X126218612Y-103237345D01*
X126447682Y-103408824D01*
X126447690Y-103408829D01*
X126698833Y-103545964D01*
X126698832Y-103545964D01*
X126698836Y-103545965D01*
X126698839Y-103545967D01*
X126966954Y-103645969D01*
X126966960Y-103645970D01*
X126966962Y-103645971D01*
X127246566Y-103706795D01*
X127246568Y-103706795D01*
X127246572Y-103706796D01*
X127460552Y-103722100D01*
X130603448Y-103722100D01*
X130817428Y-103706796D01*
X131097046Y-103645969D01*
X131365161Y-103545967D01*
X131616315Y-103408826D01*
X131845395Y-103237339D01*
X132047739Y-103034995D01*
X132219226Y-102805915D01*
X132356367Y-102554761D01*
X132456369Y-102286646D01*
X132517196Y-102007028D01*
X132532500Y-101793048D01*
X132532500Y-98650152D01*
X132517196Y-98436172D01*
X132456369Y-98156554D01*
X132356367Y-97888439D01*
X132219226Y-97637285D01*
X132195141Y-97605111D01*
X132195130Y-97605096D01*
X162724500Y-97605096D01*
X162724500Y-98805114D01*
X162724501Y-98805131D01*
X162735000Y-98907909D01*
X162735001Y-98907912D01*
X162790185Y-99074444D01*
X162790186Y-99074447D01*
X162882288Y-99223769D01*
X163006344Y-99347825D01*
X163155666Y-99439927D01*
X163322203Y-99495112D01*
X163424991Y-99505613D01*
X164625008Y-99505612D01*
X164727797Y-99495112D01*
X164894334Y-99439927D01*
X165043656Y-99347825D01*
X165167712Y-99223769D01*
X165259814Y-99074447D01*
X165314999Y-98907910D01*
X165325500Y-98805122D01*
X165325499Y-97605105D01*
X165314999Y-97502316D01*
X165259814Y-97335779D01*
X165167712Y-97186457D01*
X165098488Y-97117233D01*
X165065003Y-97055910D01*
X165069987Y-96986218D01*
X165085852Y-96956665D01*
X165136858Y-96886462D01*
X165136863Y-96886454D01*
X165229755Y-96704144D01*
X165292990Y-96509530D01*
X165325000Y-96307430D01*
X165325000Y-96102795D01*
X165292990Y-95900695D01*
X165229755Y-95706081D01*
X165136859Y-95523763D01*
X165104474Y-95479190D01*
X165104474Y-95479189D01*
X164425000Y-96158664D01*
X164425000Y-96152452D01*
X164397741Y-96050719D01*
X164345080Y-95959507D01*
X164270606Y-95885033D01*
X164179394Y-95832372D01*
X164077661Y-95805113D01*
X164071446Y-95805113D01*
X164750922Y-95125637D01*
X164750921Y-95125636D01*
X164706359Y-95093260D01*
X164706350Y-95093254D01*
X164524031Y-95000357D01*
X164329417Y-94937122D01*
X164127317Y-94905113D01*
X163922683Y-94905113D01*
X163720582Y-94937122D01*
X163525968Y-95000357D01*
X163343644Y-95093256D01*
X163299077Y-95125636D01*
X163299077Y-95125637D01*
X163978554Y-95805113D01*
X163972339Y-95805113D01*
X163870606Y-95832372D01*
X163779394Y-95885033D01*
X163704920Y-95959507D01*
X163652259Y-96050719D01*
X163625000Y-96152452D01*
X163625000Y-96158666D01*
X162945524Y-95479190D01*
X162945523Y-95479190D01*
X162913143Y-95523757D01*
X162820244Y-95706081D01*
X162757009Y-95900695D01*
X162725000Y-96102795D01*
X162725000Y-96307430D01*
X162757009Y-96509530D01*
X162820244Y-96704144D01*
X162913142Y-96886465D01*
X162964147Y-96956668D01*
X162987627Y-97022474D01*
X162971802Y-97090528D01*
X162951511Y-97117234D01*
X162882287Y-97186458D01*
X162790187Y-97335776D01*
X162790186Y-97335779D01*
X162735001Y-97502316D01*
X162735001Y-97502317D01*
X162735000Y-97502317D01*
X162724500Y-97605096D01*
X132195130Y-97605096D01*
X132047745Y-97408212D01*
X132047729Y-97408194D01*
X131845405Y-97205870D01*
X131845387Y-97205854D01*
X131616317Y-97034375D01*
X131616309Y-97034370D01*
X131365166Y-96897235D01*
X131365167Y-96897235D01*
X131257915Y-96857232D01*
X131097046Y-96797231D01*
X131097043Y-96797230D01*
X131097037Y-96797228D01*
X130817433Y-96736404D01*
X130603450Y-96721100D01*
X130603448Y-96721100D01*
X129632758Y-96721100D01*
X129565719Y-96701415D01*
X129519964Y-96648611D01*
X129510020Y-96579453D01*
X129539045Y-96515897D01*
X129597823Y-96478123D01*
X129608567Y-96475483D01*
X129883437Y-96420808D01*
X129883443Y-96420807D01*
X130212540Y-96320976D01*
X130530241Y-96189380D01*
X130530255Y-96189373D01*
X130833518Y-96027277D01*
X130833536Y-96027266D01*
X131119453Y-95836222D01*
X131119466Y-95836212D01*
X131324659Y-95667813D01*
X131324659Y-95667812D01*
X130436669Y-94779822D01*
X130518711Y-94716869D01*
X130727269Y-94508311D01*
X130790222Y-94426269D01*
X131678212Y-95314259D01*
X131678213Y-95314259D01*
X131846612Y-95109066D01*
X131846625Y-95109049D01*
X131849995Y-95104007D01*
X131849995Y-95104006D01*
X131849996Y-95104005D01*
X132037666Y-94823136D01*
X132037677Y-94823118D01*
X132199773Y-94519855D01*
X132199780Y-94519841D01*
X132331376Y-94202140D01*
X132431207Y-93873043D01*
X132431208Y-93873037D01*
X132498291Y-93535782D01*
X132498294Y-93535765D01*
X132532000Y-93193540D01*
X132532000Y-92849659D01*
X132498294Y-92507434D01*
X132498291Y-92507417D01*
X132431208Y-92170162D01*
X132431207Y-92170156D01*
X132331376Y-91841059D01*
X132199780Y-91523358D01*
X132199773Y-91523344D01*
X132037677Y-91220081D01*
X132037666Y-91220063D01*
X131846622Y-90934146D01*
X131846612Y-90934133D01*
X131678213Y-90728939D01*
X131678212Y-90728938D01*
X130790221Y-91616929D01*
X130727269Y-91534889D01*
X130518711Y-91326331D01*
X130436668Y-91263377D01*
X131324660Y-90375386D01*
X131324659Y-90375385D01*
X131119467Y-90206987D01*
X131119453Y-90206977D01*
X130833536Y-90015933D01*
X130833518Y-90015922D01*
X130530255Y-89853826D01*
X130530241Y-89853819D01*
X130212540Y-89722223D01*
X129883443Y-89622392D01*
X129883437Y-89622391D01*
X129546182Y-89555308D01*
X129546165Y-89555305D01*
X129203941Y-89521600D01*
X128860059Y-89521600D01*
X128517834Y-89555305D01*
X128517817Y-89555308D01*
X128180562Y-89622391D01*
X128180556Y-89622392D01*
X127851459Y-89722223D01*
X127533758Y-89853819D01*
X127533744Y-89853826D01*
X127230481Y-90015922D01*
X127230463Y-90015933D01*
X126944546Y-90206977D01*
X126944532Y-90206987D01*
X126739338Y-90375386D01*
X127627330Y-91263378D01*
X127545289Y-91326331D01*
X127336731Y-91534889D01*
X127273778Y-91616930D01*
X126385786Y-90728938D01*
X126217387Y-90934132D01*
X126217377Y-90934146D01*
X126026333Y-91220063D01*
X126026322Y-91220081D01*
X125864226Y-91523344D01*
X125864219Y-91523358D01*
X125732623Y-91841059D01*
X125632792Y-92170156D01*
X125632791Y-92170162D01*
X125565708Y-92507417D01*
X125565705Y-92507434D01*
X125532000Y-92849659D01*
X125532000Y-93193540D01*
X125565705Y-93535765D01*
X125565708Y-93535782D01*
X125632791Y-93873037D01*
X125632792Y-93873043D01*
X125732623Y-94202140D01*
X125864219Y-94519841D01*
X125864226Y-94519855D01*
X126026322Y-94823118D01*
X126026333Y-94823136D01*
X126217377Y-95109053D01*
X126217387Y-95109067D01*
X126385785Y-95314259D01*
X126385786Y-95314260D01*
X127273777Y-94426268D01*
X127336731Y-94508311D01*
X127545289Y-94716869D01*
X127627329Y-94779821D01*
X126739338Y-95667812D01*
X126739339Y-95667813D01*
X126944533Y-95836212D01*
X126944546Y-95836222D01*
X127230463Y-96027266D01*
X127230481Y-96027277D01*
X127533744Y-96189373D01*
X127533758Y-96189380D01*
X127851459Y-96320976D01*
X128180556Y-96420807D01*
X128180562Y-96420808D01*
X128455433Y-96475483D01*
X128517344Y-96507867D01*
X128551918Y-96568583D01*
X128548179Y-96638353D01*
X128507313Y-96695025D01*
X128442295Y-96720606D01*
X128431242Y-96721100D01*
X127460549Y-96721100D01*
X127246566Y-96736404D01*
X126966962Y-96797228D01*
X126698833Y-96897235D01*
X126447690Y-97034370D01*
X126447682Y-97034375D01*
X126218612Y-97205854D01*
X126218594Y-97205870D01*
X126016270Y-97408194D01*
X126016254Y-97408212D01*
X125844775Y-97637282D01*
X125844770Y-97637290D01*
X125707635Y-97888433D01*
X125607628Y-98156562D01*
X125546804Y-98436166D01*
X125531500Y-98650149D01*
X121600500Y-98650149D01*
X121600500Y-83706902D01*
X123111900Y-83706902D01*
X123111900Y-83943097D01*
X123148846Y-84176368D01*
X123221833Y-84400996D01*
X123329057Y-84611433D01*
X123467883Y-84802510D01*
X123634890Y-84969517D01*
X123825967Y-85108343D01*
X123925391Y-85159002D01*
X124036403Y-85215566D01*
X124036405Y-85215566D01*
X124036408Y-85215568D01*
X124156812Y-85254689D01*
X124261031Y-85288553D01*
X124494303Y-85325500D01*
X124494308Y-85325500D01*
X124730497Y-85325500D01*
X124963768Y-85288553D01*
X125188392Y-85215568D01*
X125398833Y-85108343D01*
X125589910Y-84969517D01*
X125756917Y-84802510D01*
X125895743Y-84611433D01*
X126002968Y-84400992D01*
X126075953Y-84176368D01*
X126112900Y-83943097D01*
X126112900Y-83706902D01*
X163449500Y-83706902D01*
X163449500Y-83943097D01*
X163486446Y-84176368D01*
X163559433Y-84400996D01*
X163666657Y-84611433D01*
X163805483Y-84802510D01*
X163972490Y-84969517D01*
X164163567Y-85108343D01*
X164262991Y-85159002D01*
X164374003Y-85215566D01*
X164374005Y-85215566D01*
X164374008Y-85215568D01*
X164494412Y-85254689D01*
X164598631Y-85288553D01*
X164831903Y-85325500D01*
X164831908Y-85325500D01*
X165068097Y-85325500D01*
X165301368Y-85288553D01*
X165525992Y-85215568D01*
X165736433Y-85108343D01*
X165927510Y-84969517D01*
X166094517Y-84802510D01*
X166233343Y-84611433D01*
X166340568Y-84400992D01*
X166413553Y-84176368D01*
X166450500Y-83943097D01*
X166450500Y-83706902D01*
X166413553Y-83473631D01*
X166340566Y-83249003D01*
X166233342Y-83038566D01*
X166094517Y-82847490D01*
X165927510Y-82680483D01*
X165736433Y-82541657D01*
X165525996Y-82434433D01*
X165301368Y-82361446D01*
X165068097Y-82324500D01*
X165068092Y-82324500D01*
X164831908Y-82324500D01*
X164831903Y-82324500D01*
X164598631Y-82361446D01*
X164374003Y-82434433D01*
X164163566Y-82541657D01*
X164054550Y-82620862D01*
X163972490Y-82680483D01*
X163972488Y-82680485D01*
X163972487Y-82680485D01*
X163805485Y-82847487D01*
X163805485Y-82847488D01*
X163805483Y-82847490D01*
X163745862Y-82929550D01*
X163666657Y-83038566D01*
X163559433Y-83249003D01*
X163486446Y-83473631D01*
X163449500Y-83706902D01*
X126112900Y-83706902D01*
X126075953Y-83473631D01*
X126002966Y-83249003D01*
X125895742Y-83038566D01*
X125756917Y-82847490D01*
X125589910Y-82680483D01*
X125398833Y-82541657D01*
X125188396Y-82434433D01*
X124963768Y-82361446D01*
X124730497Y-82324500D01*
X124730492Y-82324500D01*
X124494308Y-82324500D01*
X124494303Y-82324500D01*
X124261031Y-82361446D01*
X124036403Y-82434433D01*
X123825966Y-82541657D01*
X123716950Y-82620862D01*
X123634890Y-82680483D01*
X123634888Y-82680485D01*
X123634887Y-82680485D01*
X123467885Y-82847487D01*
X123467885Y-82847488D01*
X123467883Y-82847490D01*
X123408262Y-82929550D01*
X123329057Y-83038566D01*
X123221833Y-83249003D01*
X123148846Y-83473631D01*
X123111900Y-83706902D01*
X121600500Y-83706902D01*
X121600500Y-81674500D01*
X121620185Y-81607461D01*
X121672989Y-81561706D01*
X121724500Y-81550500D01*
X167650500Y-81550500D01*
X167717539Y-81570185D01*
G37*
%TD.AperFunction*%
%TD*%
M02*
