%TF.GenerationSoftware,KiCad,Pcbnew,9.0.2*%
%TF.CreationDate,2025-06-17T13:17:13+05:30*%
%TF.ProjectId,CN3767updated schematic,434e3337-3637-4757-9064-617465642073,rev?*%
%TF.SameCoordinates,Original*%
%TF.FileFunction,Legend,Top*%
%TF.FilePolarity,Positive*%
%FSLAX46Y46*%
G04 Gerber Fmt 4.6, Leading zero omitted, Abs format (unit mm)*
G04 Created by KiCad (PCBNEW 9.0.2) date 2025-06-17 13:17:13*
%MOMM*%
%LPD*%
G01*
G04 APERTURE LIST*
%ADD10C,0.062500*%
%ADD11C,0.031250*%
%ADD12C,0.120000*%
%ADD13C,0.152400*%
%ADD14C,0.127000*%
%ADD15C,0.150000*%
G04 APERTURE END LIST*
D10*
X125437972Y-111826354D02*
X125271305Y-111826354D01*
X125271305Y-112088259D02*
X125271305Y-111588259D01*
X125271305Y-111588259D02*
X125509400Y-111588259D01*
X125914162Y-111754926D02*
X125914162Y-112088259D01*
X125699876Y-111754926D02*
X125699876Y-112016830D01*
X125699876Y-112016830D02*
X125723686Y-112064450D01*
X125723686Y-112064450D02*
X125771305Y-112088259D01*
X125771305Y-112088259D02*
X125842733Y-112088259D01*
X125842733Y-112088259D02*
X125890352Y-112064450D01*
X125890352Y-112064450D02*
X125914162Y-112040640D01*
X126128448Y-112064450D02*
X126176067Y-112088259D01*
X126176067Y-112088259D02*
X126271305Y-112088259D01*
X126271305Y-112088259D02*
X126318924Y-112064450D01*
X126318924Y-112064450D02*
X126342733Y-112016830D01*
X126342733Y-112016830D02*
X126342733Y-111993021D01*
X126342733Y-111993021D02*
X126318924Y-111945402D01*
X126318924Y-111945402D02*
X126271305Y-111921592D01*
X126271305Y-111921592D02*
X126199876Y-111921592D01*
X126199876Y-111921592D02*
X126152257Y-111897783D01*
X126152257Y-111897783D02*
X126128448Y-111850164D01*
X126128448Y-111850164D02*
X126128448Y-111826354D01*
X126128448Y-111826354D02*
X126152257Y-111778735D01*
X126152257Y-111778735D02*
X126199876Y-111754926D01*
X126199876Y-111754926D02*
X126271305Y-111754926D01*
X126271305Y-111754926D02*
X126318924Y-111778735D01*
X126747495Y-112064450D02*
X126699876Y-112088259D01*
X126699876Y-112088259D02*
X126604638Y-112088259D01*
X126604638Y-112088259D02*
X126557019Y-112064450D01*
X126557019Y-112064450D02*
X126533210Y-112016830D01*
X126533210Y-112016830D02*
X126533210Y-111826354D01*
X126533210Y-111826354D02*
X126557019Y-111778735D01*
X126557019Y-111778735D02*
X126604638Y-111754926D01*
X126604638Y-111754926D02*
X126699876Y-111754926D01*
X126699876Y-111754926D02*
X126747495Y-111778735D01*
X126747495Y-111778735D02*
X126771305Y-111826354D01*
X126771305Y-111826354D02*
X126771305Y-111873973D01*
X126771305Y-111873973D02*
X126533210Y-111921592D01*
D11*
X131589029Y-117303570D02*
X131589029Y-117446427D01*
X131589029Y-117374999D02*
X131339029Y-117374999D01*
X131339029Y-117374999D02*
X131374744Y-117398808D01*
X131374744Y-117398808D02*
X131398553Y-117422618D01*
X131398553Y-117422618D02*
X131410458Y-117446427D01*
X131589029Y-117196428D02*
X131339029Y-117196428D01*
X131589029Y-117053571D02*
X131446172Y-117160713D01*
X131339029Y-117053571D02*
X131481886Y-117196428D01*
X150572363Y-104765475D02*
X150739029Y-104765475D01*
X150477125Y-104824999D02*
X150655696Y-104884522D01*
X150655696Y-104884522D02*
X150655696Y-104729761D01*
X150489029Y-104658332D02*
X150489029Y-104491666D01*
X150489029Y-104491666D02*
X150739029Y-104598808D01*
X150489029Y-104348809D02*
X150489029Y-104324999D01*
X150489029Y-104324999D02*
X150500934Y-104301190D01*
X150500934Y-104301190D02*
X150512839Y-104289285D01*
X150512839Y-104289285D02*
X150536648Y-104277380D01*
X150536648Y-104277380D02*
X150584267Y-104265475D01*
X150584267Y-104265475D02*
X150643791Y-104265475D01*
X150643791Y-104265475D02*
X150691410Y-104277380D01*
X150691410Y-104277380D02*
X150715220Y-104289285D01*
X150715220Y-104289285D02*
X150727125Y-104301190D01*
X150727125Y-104301190D02*
X150739029Y-104324999D01*
X150739029Y-104324999D02*
X150739029Y-104348809D01*
X150739029Y-104348809D02*
X150727125Y-104372618D01*
X150727125Y-104372618D02*
X150715220Y-104384523D01*
X150715220Y-104384523D02*
X150691410Y-104396428D01*
X150691410Y-104396428D02*
X150643791Y-104408332D01*
X150643791Y-104408332D02*
X150584267Y-104408332D01*
X150584267Y-104408332D02*
X150536648Y-104396428D01*
X150536648Y-104396428D02*
X150512839Y-104384523D01*
X150512839Y-104384523D02*
X150500934Y-104372618D01*
X150500934Y-104372618D02*
X150489029Y-104348809D01*
X150739029Y-104015476D02*
X150619982Y-104098809D01*
X150739029Y-104158333D02*
X150489029Y-104158333D01*
X150489029Y-104158333D02*
X150489029Y-104063095D01*
X150489029Y-104063095D02*
X150500934Y-104039285D01*
X150500934Y-104039285D02*
X150512839Y-104027380D01*
X150512839Y-104027380D02*
X150536648Y-104015476D01*
X150536648Y-104015476D02*
X150572363Y-104015476D01*
X150572363Y-104015476D02*
X150596172Y-104027380D01*
X150596172Y-104027380D02*
X150608077Y-104039285D01*
X150608077Y-104039285D02*
X150619982Y-104063095D01*
X150619982Y-104063095D02*
X150619982Y-104158333D01*
X151409029Y-108247618D02*
X151409029Y-108390475D01*
X151409029Y-108319047D02*
X151159029Y-108319047D01*
X151159029Y-108319047D02*
X151194744Y-108342856D01*
X151194744Y-108342856D02*
X151218553Y-108366666D01*
X151218553Y-108366666D02*
X151230458Y-108390475D01*
X151159029Y-108092857D02*
X151159029Y-108069047D01*
X151159029Y-108069047D02*
X151170934Y-108045238D01*
X151170934Y-108045238D02*
X151182839Y-108033333D01*
X151182839Y-108033333D02*
X151206648Y-108021428D01*
X151206648Y-108021428D02*
X151254267Y-108009523D01*
X151254267Y-108009523D02*
X151313791Y-108009523D01*
X151313791Y-108009523D02*
X151361410Y-108021428D01*
X151361410Y-108021428D02*
X151385220Y-108033333D01*
X151385220Y-108033333D02*
X151397125Y-108045238D01*
X151397125Y-108045238D02*
X151409029Y-108069047D01*
X151409029Y-108069047D02*
X151409029Y-108092857D01*
X151409029Y-108092857D02*
X151397125Y-108116666D01*
X151397125Y-108116666D02*
X151385220Y-108128571D01*
X151385220Y-108128571D02*
X151361410Y-108140476D01*
X151361410Y-108140476D02*
X151313791Y-108152380D01*
X151313791Y-108152380D02*
X151254267Y-108152380D01*
X151254267Y-108152380D02*
X151206648Y-108140476D01*
X151206648Y-108140476D02*
X151182839Y-108128571D01*
X151182839Y-108128571D02*
X151170934Y-108116666D01*
X151170934Y-108116666D02*
X151159029Y-108092857D01*
X151409029Y-107902381D02*
X151159029Y-107902381D01*
X151409029Y-107759524D02*
X151266172Y-107866666D01*
X151159029Y-107759524D02*
X151301886Y-107902381D01*
X156364029Y-100727381D02*
X156244982Y-100810714D01*
X156364029Y-100870238D02*
X156114029Y-100870238D01*
X156114029Y-100870238D02*
X156114029Y-100775000D01*
X156114029Y-100775000D02*
X156125934Y-100751190D01*
X156125934Y-100751190D02*
X156137839Y-100739285D01*
X156137839Y-100739285D02*
X156161648Y-100727381D01*
X156161648Y-100727381D02*
X156197363Y-100727381D01*
X156197363Y-100727381D02*
X156221172Y-100739285D01*
X156221172Y-100739285D02*
X156233077Y-100751190D01*
X156233077Y-100751190D02*
X156244982Y-100775000D01*
X156244982Y-100775000D02*
X156244982Y-100870238D01*
X156352125Y-100632142D02*
X156364029Y-100608333D01*
X156364029Y-100608333D02*
X156364029Y-100560714D01*
X156364029Y-100560714D02*
X156352125Y-100536904D01*
X156352125Y-100536904D02*
X156328315Y-100525000D01*
X156328315Y-100525000D02*
X156316410Y-100525000D01*
X156316410Y-100525000D02*
X156292601Y-100536904D01*
X156292601Y-100536904D02*
X156280696Y-100560714D01*
X156280696Y-100560714D02*
X156280696Y-100596428D01*
X156280696Y-100596428D02*
X156268791Y-100620238D01*
X156268791Y-100620238D02*
X156244982Y-100632142D01*
X156244982Y-100632142D02*
X156233077Y-100632142D01*
X156233077Y-100632142D02*
X156209267Y-100620238D01*
X156209267Y-100620238D02*
X156197363Y-100596428D01*
X156197363Y-100596428D02*
X156197363Y-100560714D01*
X156197363Y-100560714D02*
X156209267Y-100536904D01*
X156352125Y-100322619D02*
X156364029Y-100346428D01*
X156364029Y-100346428D02*
X156364029Y-100394047D01*
X156364029Y-100394047D02*
X156352125Y-100417857D01*
X156352125Y-100417857D02*
X156328315Y-100429761D01*
X156328315Y-100429761D02*
X156233077Y-100429761D01*
X156233077Y-100429761D02*
X156209267Y-100417857D01*
X156209267Y-100417857D02*
X156197363Y-100394047D01*
X156197363Y-100394047D02*
X156197363Y-100346428D01*
X156197363Y-100346428D02*
X156209267Y-100322619D01*
X156209267Y-100322619D02*
X156233077Y-100310714D01*
X156233077Y-100310714D02*
X156256886Y-100310714D01*
X156256886Y-100310714D02*
X156280696Y-100429761D01*
X156197363Y-100203571D02*
X156364029Y-100203571D01*
X156221172Y-100203571D02*
X156209267Y-100191666D01*
X156209267Y-100191666D02*
X156197363Y-100167856D01*
X156197363Y-100167856D02*
X156197363Y-100132142D01*
X156197363Y-100132142D02*
X156209267Y-100108333D01*
X156209267Y-100108333D02*
X156233077Y-100096428D01*
X156233077Y-100096428D02*
X156364029Y-100096428D01*
X156352125Y-99989285D02*
X156364029Y-99965476D01*
X156364029Y-99965476D02*
X156364029Y-99917857D01*
X156364029Y-99917857D02*
X156352125Y-99894047D01*
X156352125Y-99894047D02*
X156328315Y-99882143D01*
X156328315Y-99882143D02*
X156316410Y-99882143D01*
X156316410Y-99882143D02*
X156292601Y-99894047D01*
X156292601Y-99894047D02*
X156280696Y-99917857D01*
X156280696Y-99917857D02*
X156280696Y-99953571D01*
X156280696Y-99953571D02*
X156268791Y-99977381D01*
X156268791Y-99977381D02*
X156244982Y-99989285D01*
X156244982Y-99989285D02*
X156233077Y-99989285D01*
X156233077Y-99989285D02*
X156209267Y-99977381D01*
X156209267Y-99977381D02*
X156197363Y-99953571D01*
X156197363Y-99953571D02*
X156197363Y-99917857D01*
X156197363Y-99917857D02*
X156209267Y-99894047D01*
X156352125Y-99679762D02*
X156364029Y-99703571D01*
X156364029Y-99703571D02*
X156364029Y-99751190D01*
X156364029Y-99751190D02*
X156352125Y-99775000D01*
X156352125Y-99775000D02*
X156328315Y-99786904D01*
X156328315Y-99786904D02*
X156233077Y-99786904D01*
X156233077Y-99786904D02*
X156209267Y-99775000D01*
X156209267Y-99775000D02*
X156197363Y-99751190D01*
X156197363Y-99751190D02*
X156197363Y-99703571D01*
X156197363Y-99703571D02*
X156209267Y-99679762D01*
X156209267Y-99679762D02*
X156233077Y-99667857D01*
X156233077Y-99667857D02*
X156256886Y-99667857D01*
X156256886Y-99667857D02*
X156280696Y-99786904D01*
D10*
X134462404Y-87734523D02*
X134212404Y-87734523D01*
X134212404Y-87734523D02*
X134212404Y-87674999D01*
X134212404Y-87674999D02*
X134224309Y-87639285D01*
X134224309Y-87639285D02*
X134248119Y-87615475D01*
X134248119Y-87615475D02*
X134271928Y-87603570D01*
X134271928Y-87603570D02*
X134319547Y-87591666D01*
X134319547Y-87591666D02*
X134355261Y-87591666D01*
X134355261Y-87591666D02*
X134402880Y-87603570D01*
X134402880Y-87603570D02*
X134426690Y-87615475D01*
X134426690Y-87615475D02*
X134450500Y-87639285D01*
X134450500Y-87639285D02*
X134462404Y-87674999D01*
X134462404Y-87674999D02*
X134462404Y-87734523D01*
X134236214Y-87496427D02*
X134224309Y-87484523D01*
X134224309Y-87484523D02*
X134212404Y-87460713D01*
X134212404Y-87460713D02*
X134212404Y-87401189D01*
X134212404Y-87401189D02*
X134224309Y-87377380D01*
X134224309Y-87377380D02*
X134236214Y-87365475D01*
X134236214Y-87365475D02*
X134260023Y-87353570D01*
X134260023Y-87353570D02*
X134283833Y-87353570D01*
X134283833Y-87353570D02*
X134319547Y-87365475D01*
X134319547Y-87365475D02*
X134462404Y-87508332D01*
X134462404Y-87508332D02*
X134462404Y-87353570D01*
X154403059Y-90558333D02*
X154403059Y-90796428D01*
X154403059Y-90796428D02*
X153903059Y-90796428D01*
X154403059Y-90129761D02*
X154403059Y-90415475D01*
X154403059Y-90272618D02*
X153903059Y-90272618D01*
X153903059Y-90272618D02*
X153974488Y-90320237D01*
X153974488Y-90320237D02*
X154022107Y-90367856D01*
X154022107Y-90367856D02*
X154045916Y-90415475D01*
D11*
X144789029Y-121210713D02*
X144789029Y-121329761D01*
X144789029Y-121329761D02*
X144539029Y-121329761D01*
X144658077Y-121127380D02*
X144658077Y-121044046D01*
X144789029Y-121008332D02*
X144789029Y-121127380D01*
X144789029Y-121127380D02*
X144539029Y-121127380D01*
X144539029Y-121127380D02*
X144539029Y-121008332D01*
X144789029Y-120901190D02*
X144539029Y-120901190D01*
X144539029Y-120901190D02*
X144539029Y-120841666D01*
X144539029Y-120841666D02*
X144550934Y-120805952D01*
X144550934Y-120805952D02*
X144574744Y-120782142D01*
X144574744Y-120782142D02*
X144598553Y-120770237D01*
X144598553Y-120770237D02*
X144646172Y-120758333D01*
X144646172Y-120758333D02*
X144681886Y-120758333D01*
X144681886Y-120758333D02*
X144729505Y-120770237D01*
X144729505Y-120770237D02*
X144753315Y-120782142D01*
X144753315Y-120782142D02*
X144777125Y-120805952D01*
X144777125Y-120805952D02*
X144789029Y-120841666D01*
X144789029Y-120841666D02*
X144789029Y-120901190D01*
X134414029Y-107621427D02*
X134414029Y-107764284D01*
X134414029Y-107692856D02*
X134164029Y-107692856D01*
X134164029Y-107692856D02*
X134199744Y-107716665D01*
X134199744Y-107716665D02*
X134223553Y-107740475D01*
X134223553Y-107740475D02*
X134235458Y-107764284D01*
X134164029Y-107466666D02*
X134164029Y-107442856D01*
X134164029Y-107442856D02*
X134175934Y-107419047D01*
X134175934Y-107419047D02*
X134187839Y-107407142D01*
X134187839Y-107407142D02*
X134211648Y-107395237D01*
X134211648Y-107395237D02*
X134259267Y-107383332D01*
X134259267Y-107383332D02*
X134318791Y-107383332D01*
X134318791Y-107383332D02*
X134366410Y-107395237D01*
X134366410Y-107395237D02*
X134390220Y-107407142D01*
X134390220Y-107407142D02*
X134402125Y-107419047D01*
X134402125Y-107419047D02*
X134414029Y-107442856D01*
X134414029Y-107442856D02*
X134414029Y-107466666D01*
X134414029Y-107466666D02*
X134402125Y-107490475D01*
X134402125Y-107490475D02*
X134390220Y-107502380D01*
X134390220Y-107502380D02*
X134366410Y-107514285D01*
X134366410Y-107514285D02*
X134318791Y-107526189D01*
X134318791Y-107526189D02*
X134259267Y-107526189D01*
X134259267Y-107526189D02*
X134211648Y-107514285D01*
X134211648Y-107514285D02*
X134187839Y-107502380D01*
X134187839Y-107502380D02*
X134175934Y-107490475D01*
X134175934Y-107490475D02*
X134164029Y-107466666D01*
X134164029Y-107228571D02*
X134164029Y-107204761D01*
X134164029Y-107204761D02*
X134175934Y-107180952D01*
X134175934Y-107180952D02*
X134187839Y-107169047D01*
X134187839Y-107169047D02*
X134211648Y-107157142D01*
X134211648Y-107157142D02*
X134259267Y-107145237D01*
X134259267Y-107145237D02*
X134318791Y-107145237D01*
X134318791Y-107145237D02*
X134366410Y-107157142D01*
X134366410Y-107157142D02*
X134390220Y-107169047D01*
X134390220Y-107169047D02*
X134402125Y-107180952D01*
X134402125Y-107180952D02*
X134414029Y-107204761D01*
X134414029Y-107204761D02*
X134414029Y-107228571D01*
X134414029Y-107228571D02*
X134402125Y-107252380D01*
X134402125Y-107252380D02*
X134390220Y-107264285D01*
X134390220Y-107264285D02*
X134366410Y-107276190D01*
X134366410Y-107276190D02*
X134318791Y-107288094D01*
X134318791Y-107288094D02*
X134259267Y-107288094D01*
X134259267Y-107288094D02*
X134211648Y-107276190D01*
X134211648Y-107276190D02*
X134187839Y-107264285D01*
X134187839Y-107264285D02*
X134175934Y-107252380D01*
X134175934Y-107252380D02*
X134164029Y-107228571D01*
X134247363Y-107038095D02*
X134414029Y-107038095D01*
X134271172Y-107038095D02*
X134259267Y-107026190D01*
X134259267Y-107026190D02*
X134247363Y-107002380D01*
X134247363Y-107002380D02*
X134247363Y-106966666D01*
X134247363Y-106966666D02*
X134259267Y-106942857D01*
X134259267Y-106942857D02*
X134283077Y-106930952D01*
X134283077Y-106930952D02*
X134414029Y-106930952D01*
X134283077Y-106728571D02*
X134283077Y-106811905D01*
X134414029Y-106811905D02*
X134164029Y-106811905D01*
X134164029Y-106811905D02*
X134164029Y-106692857D01*
X134187839Y-106419047D02*
X134175934Y-106407143D01*
X134175934Y-106407143D02*
X134164029Y-106383333D01*
X134164029Y-106383333D02*
X134164029Y-106323809D01*
X134164029Y-106323809D02*
X134175934Y-106300000D01*
X134175934Y-106300000D02*
X134187839Y-106288095D01*
X134187839Y-106288095D02*
X134211648Y-106276190D01*
X134211648Y-106276190D02*
X134235458Y-106276190D01*
X134235458Y-106276190D02*
X134271172Y-106288095D01*
X134271172Y-106288095D02*
X134414029Y-106430952D01*
X134414029Y-106430952D02*
X134414029Y-106276190D01*
X134164029Y-106050000D02*
X134164029Y-106169048D01*
X134164029Y-106169048D02*
X134283077Y-106180952D01*
X134283077Y-106180952D02*
X134271172Y-106169048D01*
X134271172Y-106169048D02*
X134259267Y-106145238D01*
X134259267Y-106145238D02*
X134259267Y-106085714D01*
X134259267Y-106085714D02*
X134271172Y-106061905D01*
X134271172Y-106061905D02*
X134283077Y-106050000D01*
X134283077Y-106050000D02*
X134306886Y-106038095D01*
X134306886Y-106038095D02*
X134366410Y-106038095D01*
X134366410Y-106038095D02*
X134390220Y-106050000D01*
X134390220Y-106050000D02*
X134402125Y-106061905D01*
X134402125Y-106061905D02*
X134414029Y-106085714D01*
X134414029Y-106085714D02*
X134414029Y-106145238D01*
X134414029Y-106145238D02*
X134402125Y-106169048D01*
X134402125Y-106169048D02*
X134390220Y-106180952D01*
X134164029Y-105966667D02*
X134414029Y-105883334D01*
X134414029Y-105883334D02*
X134164029Y-105800000D01*
X134414029Y-105585714D02*
X134414029Y-105728571D01*
X134414029Y-105657143D02*
X134164029Y-105657143D01*
X134164029Y-105657143D02*
X134199744Y-105680952D01*
X134199744Y-105680952D02*
X134223553Y-105704762D01*
X134223553Y-105704762D02*
X134235458Y-105728571D01*
X142442601Y-97776665D02*
X142442601Y-97657618D01*
X142514029Y-97800475D02*
X142264029Y-97717142D01*
X142264029Y-97717142D02*
X142514029Y-97633808D01*
X142264029Y-97502856D02*
X142264029Y-97455237D01*
X142264029Y-97455237D02*
X142275934Y-97431427D01*
X142275934Y-97431427D02*
X142299744Y-97407618D01*
X142299744Y-97407618D02*
X142347363Y-97395713D01*
X142347363Y-97395713D02*
X142430696Y-97395713D01*
X142430696Y-97395713D02*
X142478315Y-97407618D01*
X142478315Y-97407618D02*
X142502125Y-97431427D01*
X142502125Y-97431427D02*
X142514029Y-97455237D01*
X142514029Y-97455237D02*
X142514029Y-97502856D01*
X142514029Y-97502856D02*
X142502125Y-97526665D01*
X142502125Y-97526665D02*
X142478315Y-97550475D01*
X142478315Y-97550475D02*
X142430696Y-97562379D01*
X142430696Y-97562379D02*
X142347363Y-97562379D01*
X142347363Y-97562379D02*
X142299744Y-97550475D01*
X142299744Y-97550475D02*
X142275934Y-97526665D01*
X142275934Y-97526665D02*
X142264029Y-97502856D01*
X142514029Y-97288570D02*
X142264029Y-97288570D01*
X142264029Y-97288570D02*
X142264029Y-97229046D01*
X142264029Y-97229046D02*
X142275934Y-97193332D01*
X142275934Y-97193332D02*
X142299744Y-97169522D01*
X142299744Y-97169522D02*
X142323553Y-97157617D01*
X142323553Y-97157617D02*
X142371172Y-97145713D01*
X142371172Y-97145713D02*
X142406886Y-97145713D01*
X142406886Y-97145713D02*
X142454505Y-97157617D01*
X142454505Y-97157617D02*
X142478315Y-97169522D01*
X142478315Y-97169522D02*
X142502125Y-97193332D01*
X142502125Y-97193332D02*
X142514029Y-97229046D01*
X142514029Y-97229046D02*
X142514029Y-97288570D01*
X142347363Y-96931427D02*
X142514029Y-96931427D01*
X142252125Y-96990951D02*
X142430696Y-97050474D01*
X142430696Y-97050474D02*
X142430696Y-96895713D01*
X142514029Y-96669522D02*
X142514029Y-96812379D01*
X142514029Y-96740951D02*
X142264029Y-96740951D01*
X142264029Y-96740951D02*
X142299744Y-96764760D01*
X142299744Y-96764760D02*
X142323553Y-96788570D01*
X142323553Y-96788570D02*
X142335458Y-96812379D01*
X142371172Y-96526665D02*
X142359267Y-96550475D01*
X142359267Y-96550475D02*
X142347363Y-96562380D01*
X142347363Y-96562380D02*
X142323553Y-96574284D01*
X142323553Y-96574284D02*
X142311648Y-96574284D01*
X142311648Y-96574284D02*
X142287839Y-96562380D01*
X142287839Y-96562380D02*
X142275934Y-96550475D01*
X142275934Y-96550475D02*
X142264029Y-96526665D01*
X142264029Y-96526665D02*
X142264029Y-96479046D01*
X142264029Y-96479046D02*
X142275934Y-96455237D01*
X142275934Y-96455237D02*
X142287839Y-96443332D01*
X142287839Y-96443332D02*
X142311648Y-96431427D01*
X142311648Y-96431427D02*
X142323553Y-96431427D01*
X142323553Y-96431427D02*
X142347363Y-96443332D01*
X142347363Y-96443332D02*
X142359267Y-96455237D01*
X142359267Y-96455237D02*
X142371172Y-96479046D01*
X142371172Y-96479046D02*
X142371172Y-96526665D01*
X142371172Y-96526665D02*
X142383077Y-96550475D01*
X142383077Y-96550475D02*
X142394982Y-96562380D01*
X142394982Y-96562380D02*
X142418791Y-96574284D01*
X142418791Y-96574284D02*
X142466410Y-96574284D01*
X142466410Y-96574284D02*
X142490220Y-96562380D01*
X142490220Y-96562380D02*
X142502125Y-96550475D01*
X142502125Y-96550475D02*
X142514029Y-96526665D01*
X142514029Y-96526665D02*
X142514029Y-96479046D01*
X142514029Y-96479046D02*
X142502125Y-96455237D01*
X142502125Y-96455237D02*
X142490220Y-96443332D01*
X142490220Y-96443332D02*
X142466410Y-96431427D01*
X142466410Y-96431427D02*
X142418791Y-96431427D01*
X142418791Y-96431427D02*
X142394982Y-96443332D01*
X142394982Y-96443332D02*
X142383077Y-96455237D01*
X142383077Y-96455237D02*
X142371172Y-96479046D01*
X142264029Y-96205237D02*
X142264029Y-96324285D01*
X142264029Y-96324285D02*
X142383077Y-96336189D01*
X142383077Y-96336189D02*
X142371172Y-96324285D01*
X142371172Y-96324285D02*
X142359267Y-96300475D01*
X142359267Y-96300475D02*
X142359267Y-96240951D01*
X142359267Y-96240951D02*
X142371172Y-96217142D01*
X142371172Y-96217142D02*
X142383077Y-96205237D01*
X142383077Y-96205237D02*
X142406886Y-96193332D01*
X142406886Y-96193332D02*
X142466410Y-96193332D01*
X142466410Y-96193332D02*
X142490220Y-96205237D01*
X142490220Y-96205237D02*
X142502125Y-96217142D01*
X142502125Y-96217142D02*
X142514029Y-96240951D01*
X142514029Y-96240951D02*
X142514029Y-96300475D01*
X142514029Y-96300475D02*
X142502125Y-96324285D01*
X142502125Y-96324285D02*
X142490220Y-96336189D01*
D10*
X141965476Y-85537404D02*
X141965476Y-85287404D01*
X141965476Y-85287404D02*
X142025000Y-85287404D01*
X142025000Y-85287404D02*
X142060714Y-85299309D01*
X142060714Y-85299309D02*
X142084524Y-85323119D01*
X142084524Y-85323119D02*
X142096429Y-85346928D01*
X142096429Y-85346928D02*
X142108333Y-85394547D01*
X142108333Y-85394547D02*
X142108333Y-85430261D01*
X142108333Y-85430261D02*
X142096429Y-85477880D01*
X142096429Y-85477880D02*
X142084524Y-85501690D01*
X142084524Y-85501690D02*
X142060714Y-85525500D01*
X142060714Y-85525500D02*
X142025000Y-85537404D01*
X142025000Y-85537404D02*
X141965476Y-85537404D01*
X142346429Y-85537404D02*
X142203572Y-85537404D01*
X142275000Y-85537404D02*
X142275000Y-85287404D01*
X142275000Y-85287404D02*
X142251191Y-85323119D01*
X142251191Y-85323119D02*
X142227381Y-85346928D01*
X142227381Y-85346928D02*
X142203572Y-85358833D01*
D11*
X150420239Y-98237839D02*
X150432143Y-98225934D01*
X150432143Y-98225934D02*
X150455953Y-98214029D01*
X150455953Y-98214029D02*
X150515477Y-98214029D01*
X150515477Y-98214029D02*
X150539286Y-98225934D01*
X150539286Y-98225934D02*
X150551191Y-98237839D01*
X150551191Y-98237839D02*
X150563096Y-98261648D01*
X150563096Y-98261648D02*
X150563096Y-98285458D01*
X150563096Y-98285458D02*
X150551191Y-98321172D01*
X150551191Y-98321172D02*
X150408334Y-98464029D01*
X150408334Y-98464029D02*
X150563096Y-98464029D01*
X150658334Y-98237839D02*
X150670238Y-98225934D01*
X150670238Y-98225934D02*
X150694048Y-98214029D01*
X150694048Y-98214029D02*
X150753572Y-98214029D01*
X150753572Y-98214029D02*
X150777381Y-98225934D01*
X150777381Y-98225934D02*
X150789286Y-98237839D01*
X150789286Y-98237839D02*
X150801191Y-98261648D01*
X150801191Y-98261648D02*
X150801191Y-98285458D01*
X150801191Y-98285458D02*
X150789286Y-98321172D01*
X150789286Y-98321172D02*
X150646429Y-98464029D01*
X150646429Y-98464029D02*
X150801191Y-98464029D01*
X150955952Y-98214029D02*
X150979762Y-98214029D01*
X150979762Y-98214029D02*
X151003571Y-98225934D01*
X151003571Y-98225934D02*
X151015476Y-98237839D01*
X151015476Y-98237839D02*
X151027381Y-98261648D01*
X151027381Y-98261648D02*
X151039286Y-98309267D01*
X151039286Y-98309267D02*
X151039286Y-98368791D01*
X151039286Y-98368791D02*
X151027381Y-98416410D01*
X151027381Y-98416410D02*
X151015476Y-98440220D01*
X151015476Y-98440220D02*
X151003571Y-98452125D01*
X151003571Y-98452125D02*
X150979762Y-98464029D01*
X150979762Y-98464029D02*
X150955952Y-98464029D01*
X150955952Y-98464029D02*
X150932143Y-98452125D01*
X150932143Y-98452125D02*
X150920238Y-98440220D01*
X150920238Y-98440220D02*
X150908333Y-98416410D01*
X150908333Y-98416410D02*
X150896429Y-98368791D01*
X150896429Y-98368791D02*
X150896429Y-98309267D01*
X150896429Y-98309267D02*
X150908333Y-98261648D01*
X150908333Y-98261648D02*
X150920238Y-98237839D01*
X150920238Y-98237839D02*
X150932143Y-98225934D01*
X150932143Y-98225934D02*
X150955952Y-98214029D01*
X151146428Y-98297363D02*
X151146428Y-98547363D01*
X151146428Y-98309267D02*
X151170238Y-98297363D01*
X151170238Y-98297363D02*
X151217857Y-98297363D01*
X151217857Y-98297363D02*
X151241666Y-98309267D01*
X151241666Y-98309267D02*
X151253571Y-98321172D01*
X151253571Y-98321172D02*
X151265476Y-98344982D01*
X151265476Y-98344982D02*
X151265476Y-98416410D01*
X151265476Y-98416410D02*
X151253571Y-98440220D01*
X151253571Y-98440220D02*
X151241666Y-98452125D01*
X151241666Y-98452125D02*
X151217857Y-98464029D01*
X151217857Y-98464029D02*
X151170238Y-98464029D01*
X151170238Y-98464029D02*
X151146428Y-98452125D01*
X151455952Y-98333077D02*
X151372618Y-98333077D01*
X151372618Y-98464029D02*
X151372618Y-98214029D01*
X151372618Y-98214029D02*
X151491666Y-98214029D01*
X142389029Y-121235713D02*
X142389029Y-121354761D01*
X142389029Y-121354761D02*
X142139029Y-121354761D01*
X142258077Y-121152380D02*
X142258077Y-121069046D01*
X142389029Y-121033332D02*
X142389029Y-121152380D01*
X142389029Y-121152380D02*
X142139029Y-121152380D01*
X142139029Y-121152380D02*
X142139029Y-121033332D01*
X142389029Y-120926190D02*
X142139029Y-120926190D01*
X142139029Y-120926190D02*
X142139029Y-120866666D01*
X142139029Y-120866666D02*
X142150934Y-120830952D01*
X142150934Y-120830952D02*
X142174744Y-120807142D01*
X142174744Y-120807142D02*
X142198553Y-120795237D01*
X142198553Y-120795237D02*
X142246172Y-120783333D01*
X142246172Y-120783333D02*
X142281886Y-120783333D01*
X142281886Y-120783333D02*
X142329505Y-120795237D01*
X142329505Y-120795237D02*
X142353315Y-120807142D01*
X142353315Y-120807142D02*
X142377125Y-120830952D01*
X142377125Y-120830952D02*
X142389029Y-120866666D01*
X142389029Y-120866666D02*
X142389029Y-120926190D01*
X152137839Y-118798808D02*
X152125934Y-118786904D01*
X152125934Y-118786904D02*
X152114029Y-118763094D01*
X152114029Y-118763094D02*
X152114029Y-118703570D01*
X152114029Y-118703570D02*
X152125934Y-118679761D01*
X152125934Y-118679761D02*
X152137839Y-118667856D01*
X152137839Y-118667856D02*
X152161648Y-118655951D01*
X152161648Y-118655951D02*
X152185458Y-118655951D01*
X152185458Y-118655951D02*
X152221172Y-118667856D01*
X152221172Y-118667856D02*
X152364029Y-118810713D01*
X152364029Y-118810713D02*
X152364029Y-118655951D01*
X152137839Y-118560713D02*
X152125934Y-118548809D01*
X152125934Y-118548809D02*
X152114029Y-118524999D01*
X152114029Y-118524999D02*
X152114029Y-118465475D01*
X152114029Y-118465475D02*
X152125934Y-118441666D01*
X152125934Y-118441666D02*
X152137839Y-118429761D01*
X152137839Y-118429761D02*
X152161648Y-118417856D01*
X152161648Y-118417856D02*
X152185458Y-118417856D01*
X152185458Y-118417856D02*
X152221172Y-118429761D01*
X152221172Y-118429761D02*
X152364029Y-118572618D01*
X152364029Y-118572618D02*
X152364029Y-118417856D01*
X152114029Y-118263095D02*
X152114029Y-118239285D01*
X152114029Y-118239285D02*
X152125934Y-118215476D01*
X152125934Y-118215476D02*
X152137839Y-118203571D01*
X152137839Y-118203571D02*
X152161648Y-118191666D01*
X152161648Y-118191666D02*
X152209267Y-118179761D01*
X152209267Y-118179761D02*
X152268791Y-118179761D01*
X152268791Y-118179761D02*
X152316410Y-118191666D01*
X152316410Y-118191666D02*
X152340220Y-118203571D01*
X152340220Y-118203571D02*
X152352125Y-118215476D01*
X152352125Y-118215476D02*
X152364029Y-118239285D01*
X152364029Y-118239285D02*
X152364029Y-118263095D01*
X152364029Y-118263095D02*
X152352125Y-118286904D01*
X152352125Y-118286904D02*
X152340220Y-118298809D01*
X152340220Y-118298809D02*
X152316410Y-118310714D01*
X152316410Y-118310714D02*
X152268791Y-118322618D01*
X152268791Y-118322618D02*
X152209267Y-118322618D01*
X152209267Y-118322618D02*
X152161648Y-118310714D01*
X152161648Y-118310714D02*
X152137839Y-118298809D01*
X152137839Y-118298809D02*
X152125934Y-118286904D01*
X152125934Y-118286904D02*
X152114029Y-118263095D01*
X152197363Y-118072619D02*
X152364029Y-118072619D01*
X152221172Y-118072619D02*
X152209267Y-118060714D01*
X152209267Y-118060714D02*
X152197363Y-118036904D01*
X152197363Y-118036904D02*
X152197363Y-118001190D01*
X152197363Y-118001190D02*
X152209267Y-117977381D01*
X152209267Y-117977381D02*
X152233077Y-117965476D01*
X152233077Y-117965476D02*
X152364029Y-117965476D01*
X152233077Y-117763095D02*
X152233077Y-117846429D01*
X152364029Y-117846429D02*
X152114029Y-117846429D01*
X152114029Y-117846429D02*
X152114029Y-117727381D01*
X152364029Y-117501190D02*
X152364029Y-117644047D01*
X152364029Y-117572619D02*
X152114029Y-117572619D01*
X152114029Y-117572619D02*
X152149744Y-117596428D01*
X152149744Y-117596428D02*
X152173553Y-117620238D01*
X152173553Y-117620238D02*
X152185458Y-117644047D01*
X144820239Y-98012839D02*
X144832143Y-98000934D01*
X144832143Y-98000934D02*
X144855953Y-97989029D01*
X144855953Y-97989029D02*
X144915477Y-97989029D01*
X144915477Y-97989029D02*
X144939286Y-98000934D01*
X144939286Y-98000934D02*
X144951191Y-98012839D01*
X144951191Y-98012839D02*
X144963096Y-98036648D01*
X144963096Y-98036648D02*
X144963096Y-98060458D01*
X144963096Y-98060458D02*
X144951191Y-98096172D01*
X144951191Y-98096172D02*
X144808334Y-98239029D01*
X144808334Y-98239029D02*
X144963096Y-98239029D01*
X145058334Y-98012839D02*
X145070238Y-98000934D01*
X145070238Y-98000934D02*
X145094048Y-97989029D01*
X145094048Y-97989029D02*
X145153572Y-97989029D01*
X145153572Y-97989029D02*
X145177381Y-98000934D01*
X145177381Y-98000934D02*
X145189286Y-98012839D01*
X145189286Y-98012839D02*
X145201191Y-98036648D01*
X145201191Y-98036648D02*
X145201191Y-98060458D01*
X145201191Y-98060458D02*
X145189286Y-98096172D01*
X145189286Y-98096172D02*
X145046429Y-98239029D01*
X145046429Y-98239029D02*
X145201191Y-98239029D01*
X145355952Y-97989029D02*
X145379762Y-97989029D01*
X145379762Y-97989029D02*
X145403571Y-98000934D01*
X145403571Y-98000934D02*
X145415476Y-98012839D01*
X145415476Y-98012839D02*
X145427381Y-98036648D01*
X145427381Y-98036648D02*
X145439286Y-98084267D01*
X145439286Y-98084267D02*
X145439286Y-98143791D01*
X145439286Y-98143791D02*
X145427381Y-98191410D01*
X145427381Y-98191410D02*
X145415476Y-98215220D01*
X145415476Y-98215220D02*
X145403571Y-98227125D01*
X145403571Y-98227125D02*
X145379762Y-98239029D01*
X145379762Y-98239029D02*
X145355952Y-98239029D01*
X145355952Y-98239029D02*
X145332143Y-98227125D01*
X145332143Y-98227125D02*
X145320238Y-98215220D01*
X145320238Y-98215220D02*
X145308333Y-98191410D01*
X145308333Y-98191410D02*
X145296429Y-98143791D01*
X145296429Y-98143791D02*
X145296429Y-98084267D01*
X145296429Y-98084267D02*
X145308333Y-98036648D01*
X145308333Y-98036648D02*
X145320238Y-98012839D01*
X145320238Y-98012839D02*
X145332143Y-98000934D01*
X145332143Y-98000934D02*
X145355952Y-97989029D01*
X145546428Y-98072363D02*
X145546428Y-98322363D01*
X145546428Y-98084267D02*
X145570238Y-98072363D01*
X145570238Y-98072363D02*
X145617857Y-98072363D01*
X145617857Y-98072363D02*
X145641666Y-98084267D01*
X145641666Y-98084267D02*
X145653571Y-98096172D01*
X145653571Y-98096172D02*
X145665476Y-98119982D01*
X145665476Y-98119982D02*
X145665476Y-98191410D01*
X145665476Y-98191410D02*
X145653571Y-98215220D01*
X145653571Y-98215220D02*
X145641666Y-98227125D01*
X145641666Y-98227125D02*
X145617857Y-98239029D01*
X145617857Y-98239029D02*
X145570238Y-98239029D01*
X145570238Y-98239029D02*
X145546428Y-98227125D01*
X145855952Y-98108077D02*
X145772618Y-98108077D01*
X145772618Y-98239029D02*
X145772618Y-97989029D01*
X145772618Y-97989029D02*
X145891666Y-97989029D01*
X134959029Y-110011903D02*
X134959029Y-110154760D01*
X134959029Y-110083332D02*
X134709029Y-110083332D01*
X134709029Y-110083332D02*
X134744744Y-110107141D01*
X134744744Y-110107141D02*
X134768553Y-110130951D01*
X134768553Y-110130951D02*
X134780458Y-110154760D01*
X134792363Y-109797618D02*
X134959029Y-109797618D01*
X134697125Y-109857142D02*
X134875696Y-109916665D01*
X134875696Y-109916665D02*
X134875696Y-109761904D01*
X134709029Y-109690475D02*
X134709029Y-109535713D01*
X134709029Y-109535713D02*
X134804267Y-109619047D01*
X134804267Y-109619047D02*
X134804267Y-109583332D01*
X134804267Y-109583332D02*
X134816172Y-109559523D01*
X134816172Y-109559523D02*
X134828077Y-109547618D01*
X134828077Y-109547618D02*
X134851886Y-109535713D01*
X134851886Y-109535713D02*
X134911410Y-109535713D01*
X134911410Y-109535713D02*
X134935220Y-109547618D01*
X134935220Y-109547618D02*
X134947125Y-109559523D01*
X134947125Y-109559523D02*
X134959029Y-109583332D01*
X134959029Y-109583332D02*
X134959029Y-109654761D01*
X134959029Y-109654761D02*
X134947125Y-109678570D01*
X134947125Y-109678570D02*
X134935220Y-109690475D01*
X134959029Y-109428571D02*
X134709029Y-109428571D01*
X134863791Y-109404761D02*
X134959029Y-109333333D01*
X134792363Y-109333333D02*
X134887601Y-109428571D01*
X134959029Y-109095237D02*
X134959029Y-109238094D01*
X134959029Y-109166666D02*
X134709029Y-109166666D01*
X134709029Y-109166666D02*
X134744744Y-109190475D01*
X134744744Y-109190475D02*
X134768553Y-109214285D01*
X134768553Y-109214285D02*
X134780458Y-109238094D01*
X156139029Y-105414284D02*
X156139029Y-105557141D01*
X156139029Y-105485713D02*
X155889029Y-105485713D01*
X155889029Y-105485713D02*
X155924744Y-105509522D01*
X155924744Y-105509522D02*
X155948553Y-105533332D01*
X155948553Y-105533332D02*
X155960458Y-105557141D01*
X155972363Y-105199999D02*
X156139029Y-105199999D01*
X155972363Y-105307142D02*
X156103315Y-105307142D01*
X156103315Y-105307142D02*
X156127125Y-105295237D01*
X156127125Y-105295237D02*
X156139029Y-105271427D01*
X156139029Y-105271427D02*
X156139029Y-105235713D01*
X156139029Y-105235713D02*
X156127125Y-105211904D01*
X156127125Y-105211904D02*
X156115220Y-105199999D01*
X156008077Y-104997618D02*
X156008077Y-105080952D01*
X156139029Y-105080952D02*
X155889029Y-105080952D01*
X155889029Y-105080952D02*
X155889029Y-104961904D01*
X155912839Y-104688094D02*
X155900934Y-104676190D01*
X155900934Y-104676190D02*
X155889029Y-104652380D01*
X155889029Y-104652380D02*
X155889029Y-104592856D01*
X155889029Y-104592856D02*
X155900934Y-104569047D01*
X155900934Y-104569047D02*
X155912839Y-104557142D01*
X155912839Y-104557142D02*
X155936648Y-104545237D01*
X155936648Y-104545237D02*
X155960458Y-104545237D01*
X155960458Y-104545237D02*
X155996172Y-104557142D01*
X155996172Y-104557142D02*
X156139029Y-104699999D01*
X156139029Y-104699999D02*
X156139029Y-104545237D01*
X155889029Y-104319047D02*
X155889029Y-104438095D01*
X155889029Y-104438095D02*
X156008077Y-104449999D01*
X156008077Y-104449999D02*
X155996172Y-104438095D01*
X155996172Y-104438095D02*
X155984267Y-104414285D01*
X155984267Y-104414285D02*
X155984267Y-104354761D01*
X155984267Y-104354761D02*
X155996172Y-104330952D01*
X155996172Y-104330952D02*
X156008077Y-104319047D01*
X156008077Y-104319047D02*
X156031886Y-104307142D01*
X156031886Y-104307142D02*
X156091410Y-104307142D01*
X156091410Y-104307142D02*
X156115220Y-104319047D01*
X156115220Y-104319047D02*
X156127125Y-104330952D01*
X156127125Y-104330952D02*
X156139029Y-104354761D01*
X156139029Y-104354761D02*
X156139029Y-104414285D01*
X156139029Y-104414285D02*
X156127125Y-104438095D01*
X156127125Y-104438095D02*
X156115220Y-104449999D01*
X155889029Y-104235714D02*
X156139029Y-104152381D01*
X156139029Y-104152381D02*
X155889029Y-104069047D01*
X128822363Y-112482142D02*
X128989029Y-112482142D01*
X128727125Y-112541666D02*
X128905696Y-112601189D01*
X128905696Y-112601189D02*
X128905696Y-112446428D01*
X128739029Y-112374999D02*
X128739029Y-112208333D01*
X128739029Y-112208333D02*
X128989029Y-112315475D01*
X128822363Y-112005952D02*
X128989029Y-112005952D01*
X128822363Y-112113095D02*
X128953315Y-112113095D01*
X128953315Y-112113095D02*
X128977125Y-112101190D01*
X128977125Y-112101190D02*
X128989029Y-112077380D01*
X128989029Y-112077380D02*
X128989029Y-112041666D01*
X128989029Y-112041666D02*
X128977125Y-112017857D01*
X128977125Y-112017857D02*
X128965220Y-112005952D01*
X128858077Y-111803571D02*
X128858077Y-111886905D01*
X128989029Y-111886905D02*
X128739029Y-111886905D01*
X128739029Y-111886905D02*
X128739029Y-111767857D01*
X128762839Y-111494047D02*
X128750934Y-111482143D01*
X128750934Y-111482143D02*
X128739029Y-111458333D01*
X128739029Y-111458333D02*
X128739029Y-111398809D01*
X128739029Y-111398809D02*
X128750934Y-111375000D01*
X128750934Y-111375000D02*
X128762839Y-111363095D01*
X128762839Y-111363095D02*
X128786648Y-111351190D01*
X128786648Y-111351190D02*
X128810458Y-111351190D01*
X128810458Y-111351190D02*
X128846172Y-111363095D01*
X128846172Y-111363095D02*
X128989029Y-111505952D01*
X128989029Y-111505952D02*
X128989029Y-111351190D01*
X128739029Y-111125000D02*
X128739029Y-111244048D01*
X128739029Y-111244048D02*
X128858077Y-111255952D01*
X128858077Y-111255952D02*
X128846172Y-111244048D01*
X128846172Y-111244048D02*
X128834267Y-111220238D01*
X128834267Y-111220238D02*
X128834267Y-111160714D01*
X128834267Y-111160714D02*
X128846172Y-111136905D01*
X128846172Y-111136905D02*
X128858077Y-111125000D01*
X128858077Y-111125000D02*
X128881886Y-111113095D01*
X128881886Y-111113095D02*
X128941410Y-111113095D01*
X128941410Y-111113095D02*
X128965220Y-111125000D01*
X128965220Y-111125000D02*
X128977125Y-111136905D01*
X128977125Y-111136905D02*
X128989029Y-111160714D01*
X128989029Y-111160714D02*
X128989029Y-111220238D01*
X128989029Y-111220238D02*
X128977125Y-111244048D01*
X128977125Y-111244048D02*
X128965220Y-111255952D01*
X128739029Y-111041667D02*
X128989029Y-110958334D01*
X128989029Y-110958334D02*
X128739029Y-110875000D01*
X142847363Y-104740475D02*
X143014029Y-104740475D01*
X142752125Y-104799999D02*
X142930696Y-104859522D01*
X142930696Y-104859522D02*
X142930696Y-104704761D01*
X142764029Y-104633332D02*
X142764029Y-104466666D01*
X142764029Y-104466666D02*
X143014029Y-104573808D01*
X142764029Y-104323809D02*
X142764029Y-104299999D01*
X142764029Y-104299999D02*
X142775934Y-104276190D01*
X142775934Y-104276190D02*
X142787839Y-104264285D01*
X142787839Y-104264285D02*
X142811648Y-104252380D01*
X142811648Y-104252380D02*
X142859267Y-104240475D01*
X142859267Y-104240475D02*
X142918791Y-104240475D01*
X142918791Y-104240475D02*
X142966410Y-104252380D01*
X142966410Y-104252380D02*
X142990220Y-104264285D01*
X142990220Y-104264285D02*
X143002125Y-104276190D01*
X143002125Y-104276190D02*
X143014029Y-104299999D01*
X143014029Y-104299999D02*
X143014029Y-104323809D01*
X143014029Y-104323809D02*
X143002125Y-104347618D01*
X143002125Y-104347618D02*
X142990220Y-104359523D01*
X142990220Y-104359523D02*
X142966410Y-104371428D01*
X142966410Y-104371428D02*
X142918791Y-104383332D01*
X142918791Y-104383332D02*
X142859267Y-104383332D01*
X142859267Y-104383332D02*
X142811648Y-104371428D01*
X142811648Y-104371428D02*
X142787839Y-104359523D01*
X142787839Y-104359523D02*
X142775934Y-104347618D01*
X142775934Y-104347618D02*
X142764029Y-104323809D01*
X143014029Y-103990476D02*
X142894982Y-104073809D01*
X143014029Y-104133333D02*
X142764029Y-104133333D01*
X142764029Y-104133333D02*
X142764029Y-104038095D01*
X142764029Y-104038095D02*
X142775934Y-104014285D01*
X142775934Y-104014285D02*
X142787839Y-104002380D01*
X142787839Y-104002380D02*
X142811648Y-103990476D01*
X142811648Y-103990476D02*
X142847363Y-103990476D01*
X142847363Y-103990476D02*
X142871172Y-104002380D01*
X142871172Y-104002380D02*
X142883077Y-104014285D01*
X142883077Y-104014285D02*
X142894982Y-104038095D01*
X142894982Y-104038095D02*
X142894982Y-104133333D01*
D10*
X123936250Y-98716837D02*
X123960059Y-98645409D01*
X123960059Y-98645409D02*
X123960059Y-98526361D01*
X123960059Y-98526361D02*
X123936250Y-98478742D01*
X123936250Y-98478742D02*
X123912440Y-98454933D01*
X123912440Y-98454933D02*
X123864821Y-98431123D01*
X123864821Y-98431123D02*
X123817202Y-98431123D01*
X123817202Y-98431123D02*
X123769583Y-98454933D01*
X123769583Y-98454933D02*
X123745773Y-98478742D01*
X123745773Y-98478742D02*
X123721964Y-98526361D01*
X123721964Y-98526361D02*
X123698154Y-98621599D01*
X123698154Y-98621599D02*
X123674345Y-98669218D01*
X123674345Y-98669218D02*
X123650535Y-98693028D01*
X123650535Y-98693028D02*
X123602916Y-98716837D01*
X123602916Y-98716837D02*
X123555297Y-98716837D01*
X123555297Y-98716837D02*
X123507678Y-98693028D01*
X123507678Y-98693028D02*
X123483869Y-98669218D01*
X123483869Y-98669218D02*
X123460059Y-98621599D01*
X123460059Y-98621599D02*
X123460059Y-98502552D01*
X123460059Y-98502552D02*
X123483869Y-98431123D01*
X123960059Y-98145409D02*
X123936250Y-98193028D01*
X123936250Y-98193028D02*
X123912440Y-98216838D01*
X123912440Y-98216838D02*
X123864821Y-98240647D01*
X123864821Y-98240647D02*
X123721964Y-98240647D01*
X123721964Y-98240647D02*
X123674345Y-98216838D01*
X123674345Y-98216838D02*
X123650535Y-98193028D01*
X123650535Y-98193028D02*
X123626726Y-98145409D01*
X123626726Y-98145409D02*
X123626726Y-98073981D01*
X123626726Y-98073981D02*
X123650535Y-98026362D01*
X123650535Y-98026362D02*
X123674345Y-98002552D01*
X123674345Y-98002552D02*
X123721964Y-97978743D01*
X123721964Y-97978743D02*
X123864821Y-97978743D01*
X123864821Y-97978743D02*
X123912440Y-98002552D01*
X123912440Y-98002552D02*
X123936250Y-98026362D01*
X123936250Y-98026362D02*
X123960059Y-98073981D01*
X123960059Y-98073981D02*
X123960059Y-98145409D01*
X123960059Y-97693028D02*
X123936250Y-97740647D01*
X123936250Y-97740647D02*
X123888630Y-97764457D01*
X123888630Y-97764457D02*
X123460059Y-97764457D01*
X123960059Y-97288266D02*
X123698154Y-97288266D01*
X123698154Y-97288266D02*
X123650535Y-97312076D01*
X123650535Y-97312076D02*
X123626726Y-97359695D01*
X123626726Y-97359695D02*
X123626726Y-97454933D01*
X123626726Y-97454933D02*
X123650535Y-97502552D01*
X123936250Y-97288266D02*
X123960059Y-97335885D01*
X123960059Y-97335885D02*
X123960059Y-97454933D01*
X123960059Y-97454933D02*
X123936250Y-97502552D01*
X123936250Y-97502552D02*
X123888630Y-97526361D01*
X123888630Y-97526361D02*
X123841011Y-97526361D01*
X123841011Y-97526361D02*
X123793392Y-97502552D01*
X123793392Y-97502552D02*
X123769583Y-97454933D01*
X123769583Y-97454933D02*
X123769583Y-97335885D01*
X123769583Y-97335885D02*
X123745773Y-97288266D01*
X123960059Y-97050171D02*
X123626726Y-97050171D01*
X123721964Y-97050171D02*
X123674345Y-97026361D01*
X123674345Y-97026361D02*
X123650535Y-97002552D01*
X123650535Y-97002552D02*
X123626726Y-96954933D01*
X123626726Y-96954933D02*
X123626726Y-96907314D01*
X123626726Y-96359695D02*
X124126726Y-96359695D01*
X123650535Y-96359695D02*
X123626726Y-96312076D01*
X123626726Y-96312076D02*
X123626726Y-96216838D01*
X123626726Y-96216838D02*
X123650535Y-96169219D01*
X123650535Y-96169219D02*
X123674345Y-96145409D01*
X123674345Y-96145409D02*
X123721964Y-96121600D01*
X123721964Y-96121600D02*
X123864821Y-96121600D01*
X123864821Y-96121600D02*
X123912440Y-96145409D01*
X123912440Y-96145409D02*
X123936250Y-96169219D01*
X123936250Y-96169219D02*
X123960059Y-96216838D01*
X123960059Y-96216838D02*
X123960059Y-96312076D01*
X123960059Y-96312076D02*
X123936250Y-96359695D01*
X123960059Y-95693028D02*
X123698154Y-95693028D01*
X123698154Y-95693028D02*
X123650535Y-95716838D01*
X123650535Y-95716838D02*
X123626726Y-95764457D01*
X123626726Y-95764457D02*
X123626726Y-95859695D01*
X123626726Y-95859695D02*
X123650535Y-95907314D01*
X123936250Y-95693028D02*
X123960059Y-95740647D01*
X123960059Y-95740647D02*
X123960059Y-95859695D01*
X123960059Y-95859695D02*
X123936250Y-95907314D01*
X123936250Y-95907314D02*
X123888630Y-95931123D01*
X123888630Y-95931123D02*
X123841011Y-95931123D01*
X123841011Y-95931123D02*
X123793392Y-95907314D01*
X123793392Y-95907314D02*
X123769583Y-95859695D01*
X123769583Y-95859695D02*
X123769583Y-95740647D01*
X123769583Y-95740647D02*
X123745773Y-95693028D01*
X123626726Y-95454933D02*
X123960059Y-95454933D01*
X123674345Y-95454933D02*
X123650535Y-95431123D01*
X123650535Y-95431123D02*
X123626726Y-95383504D01*
X123626726Y-95383504D02*
X123626726Y-95312076D01*
X123626726Y-95312076D02*
X123650535Y-95264457D01*
X123650535Y-95264457D02*
X123698154Y-95240647D01*
X123698154Y-95240647D02*
X123960059Y-95240647D01*
X123936250Y-94812076D02*
X123960059Y-94859695D01*
X123960059Y-94859695D02*
X123960059Y-94954933D01*
X123960059Y-94954933D02*
X123936250Y-95002552D01*
X123936250Y-95002552D02*
X123888630Y-95026361D01*
X123888630Y-95026361D02*
X123698154Y-95026361D01*
X123698154Y-95026361D02*
X123650535Y-95002552D01*
X123650535Y-95002552D02*
X123626726Y-94954933D01*
X123626726Y-94954933D02*
X123626726Y-94859695D01*
X123626726Y-94859695D02*
X123650535Y-94812076D01*
X123650535Y-94812076D02*
X123698154Y-94788266D01*
X123698154Y-94788266D02*
X123745773Y-94788266D01*
X123745773Y-94788266D02*
X123793392Y-95026361D01*
X123960059Y-94502552D02*
X123936250Y-94550171D01*
X123936250Y-94550171D02*
X123888630Y-94573981D01*
X123888630Y-94573981D02*
X123460059Y-94573981D01*
X156819059Y-114519493D02*
X156819059Y-114757588D01*
X156819059Y-114757588D02*
X156319059Y-114757588D01*
X156795250Y-114162350D02*
X156819059Y-114209969D01*
X156819059Y-114209969D02*
X156819059Y-114305207D01*
X156819059Y-114305207D02*
X156795250Y-114352826D01*
X156795250Y-114352826D02*
X156747630Y-114376635D01*
X156747630Y-114376635D02*
X156557154Y-114376635D01*
X156557154Y-114376635D02*
X156509535Y-114352826D01*
X156509535Y-114352826D02*
X156485726Y-114305207D01*
X156485726Y-114305207D02*
X156485726Y-114209969D01*
X156485726Y-114209969D02*
X156509535Y-114162350D01*
X156509535Y-114162350D02*
X156557154Y-114138540D01*
X156557154Y-114138540D02*
X156604773Y-114138540D01*
X156604773Y-114138540D02*
X156652392Y-114376635D01*
X156819059Y-113709969D02*
X156557154Y-113709969D01*
X156557154Y-113709969D02*
X156509535Y-113733779D01*
X156509535Y-113733779D02*
X156485726Y-113781398D01*
X156485726Y-113781398D02*
X156485726Y-113876636D01*
X156485726Y-113876636D02*
X156509535Y-113924255D01*
X156795250Y-113709969D02*
X156819059Y-113757588D01*
X156819059Y-113757588D02*
X156819059Y-113876636D01*
X156819059Y-113876636D02*
X156795250Y-113924255D01*
X156795250Y-113924255D02*
X156747630Y-113948064D01*
X156747630Y-113948064D02*
X156700011Y-113948064D01*
X156700011Y-113948064D02*
X156652392Y-113924255D01*
X156652392Y-113924255D02*
X156628583Y-113876636D01*
X156628583Y-113876636D02*
X156628583Y-113757588D01*
X156628583Y-113757588D02*
X156604773Y-113709969D01*
X156819059Y-113257588D02*
X156319059Y-113257588D01*
X156795250Y-113257588D02*
X156819059Y-113305207D01*
X156819059Y-113305207D02*
X156819059Y-113400445D01*
X156819059Y-113400445D02*
X156795250Y-113448064D01*
X156795250Y-113448064D02*
X156771440Y-113471874D01*
X156771440Y-113471874D02*
X156723821Y-113495683D01*
X156723821Y-113495683D02*
X156580964Y-113495683D01*
X156580964Y-113495683D02*
X156533345Y-113471874D01*
X156533345Y-113471874D02*
X156509535Y-113448064D01*
X156509535Y-113448064D02*
X156485726Y-113400445D01*
X156485726Y-113400445D02*
X156485726Y-113305207D01*
X156485726Y-113305207D02*
X156509535Y-113257588D01*
X156676202Y-112662350D02*
X156676202Y-112424255D01*
X156819059Y-112709969D02*
X156319059Y-112543303D01*
X156319059Y-112543303D02*
X156819059Y-112376636D01*
X156795250Y-111995684D02*
X156819059Y-112043303D01*
X156819059Y-112043303D02*
X156819059Y-112138541D01*
X156819059Y-112138541D02*
X156795250Y-112186160D01*
X156795250Y-112186160D02*
X156771440Y-112209970D01*
X156771440Y-112209970D02*
X156723821Y-112233779D01*
X156723821Y-112233779D02*
X156580964Y-112233779D01*
X156580964Y-112233779D02*
X156533345Y-112209970D01*
X156533345Y-112209970D02*
X156509535Y-112186160D01*
X156509535Y-112186160D02*
X156485726Y-112138541D01*
X156485726Y-112138541D02*
X156485726Y-112043303D01*
X156485726Y-112043303D02*
X156509535Y-111995684D01*
X156819059Y-111781399D02*
X156485726Y-111781399D01*
X156319059Y-111781399D02*
X156342869Y-111805208D01*
X156342869Y-111805208D02*
X156366678Y-111781399D01*
X156366678Y-111781399D02*
X156342869Y-111757589D01*
X156342869Y-111757589D02*
X156319059Y-111781399D01*
X156319059Y-111781399D02*
X156366678Y-111781399D01*
X156819059Y-111329018D02*
X156319059Y-111329018D01*
X156795250Y-111329018D02*
X156819059Y-111376637D01*
X156819059Y-111376637D02*
X156819059Y-111471875D01*
X156819059Y-111471875D02*
X156795250Y-111519494D01*
X156795250Y-111519494D02*
X156771440Y-111543304D01*
X156771440Y-111543304D02*
X156723821Y-111567113D01*
X156723821Y-111567113D02*
X156580964Y-111567113D01*
X156580964Y-111567113D02*
X156533345Y-111543304D01*
X156533345Y-111543304D02*
X156509535Y-111519494D01*
X156509535Y-111519494D02*
X156485726Y-111471875D01*
X156485726Y-111471875D02*
X156485726Y-111376637D01*
X156485726Y-111376637D02*
X156509535Y-111329018D01*
X156557154Y-110543304D02*
X156580964Y-110471876D01*
X156580964Y-110471876D02*
X156604773Y-110448066D01*
X156604773Y-110448066D02*
X156652392Y-110424257D01*
X156652392Y-110424257D02*
X156723821Y-110424257D01*
X156723821Y-110424257D02*
X156771440Y-110448066D01*
X156771440Y-110448066D02*
X156795250Y-110471876D01*
X156795250Y-110471876D02*
X156819059Y-110519495D01*
X156819059Y-110519495D02*
X156819059Y-110709971D01*
X156819059Y-110709971D02*
X156319059Y-110709971D01*
X156319059Y-110709971D02*
X156319059Y-110543304D01*
X156319059Y-110543304D02*
X156342869Y-110495685D01*
X156342869Y-110495685D02*
X156366678Y-110471876D01*
X156366678Y-110471876D02*
X156414297Y-110448066D01*
X156414297Y-110448066D02*
X156461916Y-110448066D01*
X156461916Y-110448066D02*
X156509535Y-110471876D01*
X156509535Y-110471876D02*
X156533345Y-110495685D01*
X156533345Y-110495685D02*
X156557154Y-110543304D01*
X156557154Y-110543304D02*
X156557154Y-110709971D01*
X156819059Y-109995685D02*
X156557154Y-109995685D01*
X156557154Y-109995685D02*
X156509535Y-110019495D01*
X156509535Y-110019495D02*
X156485726Y-110067114D01*
X156485726Y-110067114D02*
X156485726Y-110162352D01*
X156485726Y-110162352D02*
X156509535Y-110209971D01*
X156795250Y-109995685D02*
X156819059Y-110043304D01*
X156819059Y-110043304D02*
X156819059Y-110162352D01*
X156819059Y-110162352D02*
X156795250Y-110209971D01*
X156795250Y-110209971D02*
X156747630Y-110233780D01*
X156747630Y-110233780D02*
X156700011Y-110233780D01*
X156700011Y-110233780D02*
X156652392Y-110209971D01*
X156652392Y-110209971D02*
X156628583Y-110162352D01*
X156628583Y-110162352D02*
X156628583Y-110043304D01*
X156628583Y-110043304D02*
X156604773Y-109995685D01*
X156485726Y-109829018D02*
X156485726Y-109638542D01*
X156319059Y-109757590D02*
X156747630Y-109757590D01*
X156747630Y-109757590D02*
X156795250Y-109733780D01*
X156795250Y-109733780D02*
X156819059Y-109686161D01*
X156819059Y-109686161D02*
X156819059Y-109638542D01*
X156485726Y-109543304D02*
X156485726Y-109352828D01*
X156319059Y-109471876D02*
X156747630Y-109471876D01*
X156747630Y-109471876D02*
X156795250Y-109448066D01*
X156795250Y-109448066D02*
X156819059Y-109400447D01*
X156819059Y-109400447D02*
X156819059Y-109352828D01*
X156795250Y-108995686D02*
X156819059Y-109043305D01*
X156819059Y-109043305D02*
X156819059Y-109138543D01*
X156819059Y-109138543D02*
X156795250Y-109186162D01*
X156795250Y-109186162D02*
X156747630Y-109209971D01*
X156747630Y-109209971D02*
X156557154Y-109209971D01*
X156557154Y-109209971D02*
X156509535Y-109186162D01*
X156509535Y-109186162D02*
X156485726Y-109138543D01*
X156485726Y-109138543D02*
X156485726Y-109043305D01*
X156485726Y-109043305D02*
X156509535Y-108995686D01*
X156509535Y-108995686D02*
X156557154Y-108971876D01*
X156557154Y-108971876D02*
X156604773Y-108971876D01*
X156604773Y-108971876D02*
X156652392Y-109209971D01*
X156819059Y-108757591D02*
X156485726Y-108757591D01*
X156580964Y-108757591D02*
X156533345Y-108733781D01*
X156533345Y-108733781D02*
X156509535Y-108709972D01*
X156509535Y-108709972D02*
X156485726Y-108662353D01*
X156485726Y-108662353D02*
X156485726Y-108614734D01*
X156485726Y-108495686D02*
X156819059Y-108376638D01*
X156485726Y-108257591D02*
X156819059Y-108376638D01*
X156819059Y-108376638D02*
X156938107Y-108424257D01*
X156938107Y-108424257D02*
X156961916Y-108448067D01*
X156961916Y-108448067D02*
X156985726Y-108495686D01*
D11*
X146215220Y-112829761D02*
X146227125Y-112841665D01*
X146227125Y-112841665D02*
X146239029Y-112877380D01*
X146239029Y-112877380D02*
X146239029Y-112901189D01*
X146239029Y-112901189D02*
X146227125Y-112936903D01*
X146227125Y-112936903D02*
X146203315Y-112960713D01*
X146203315Y-112960713D02*
X146179505Y-112972618D01*
X146179505Y-112972618D02*
X146131886Y-112984522D01*
X146131886Y-112984522D02*
X146096172Y-112984522D01*
X146096172Y-112984522D02*
X146048553Y-112972618D01*
X146048553Y-112972618D02*
X146024744Y-112960713D01*
X146024744Y-112960713D02*
X146000934Y-112936903D01*
X146000934Y-112936903D02*
X145989029Y-112901189D01*
X145989029Y-112901189D02*
X145989029Y-112877380D01*
X145989029Y-112877380D02*
X146000934Y-112841665D01*
X146000934Y-112841665D02*
X146012839Y-112829761D01*
X146239029Y-112722618D02*
X145989029Y-112722618D01*
X145989029Y-112722618D02*
X146239029Y-112579761D01*
X146239029Y-112579761D02*
X145989029Y-112579761D01*
X145989029Y-112484522D02*
X145989029Y-112329760D01*
X145989029Y-112329760D02*
X146084267Y-112413094D01*
X146084267Y-112413094D02*
X146084267Y-112377379D01*
X146084267Y-112377379D02*
X146096172Y-112353570D01*
X146096172Y-112353570D02*
X146108077Y-112341665D01*
X146108077Y-112341665D02*
X146131886Y-112329760D01*
X146131886Y-112329760D02*
X146191410Y-112329760D01*
X146191410Y-112329760D02*
X146215220Y-112341665D01*
X146215220Y-112341665D02*
X146227125Y-112353570D01*
X146227125Y-112353570D02*
X146239029Y-112377379D01*
X146239029Y-112377379D02*
X146239029Y-112448808D01*
X146239029Y-112448808D02*
X146227125Y-112472617D01*
X146227125Y-112472617D02*
X146215220Y-112484522D01*
X145989029Y-112246427D02*
X145989029Y-112079761D01*
X145989029Y-112079761D02*
X146239029Y-112186903D01*
X145989029Y-111877380D02*
X145989029Y-111924999D01*
X145989029Y-111924999D02*
X146000934Y-111948808D01*
X146000934Y-111948808D02*
X146012839Y-111960713D01*
X146012839Y-111960713D02*
X146048553Y-111984523D01*
X146048553Y-111984523D02*
X146096172Y-111996427D01*
X146096172Y-111996427D02*
X146191410Y-111996427D01*
X146191410Y-111996427D02*
X146215220Y-111984523D01*
X146215220Y-111984523D02*
X146227125Y-111972618D01*
X146227125Y-111972618D02*
X146239029Y-111948808D01*
X146239029Y-111948808D02*
X146239029Y-111901189D01*
X146239029Y-111901189D02*
X146227125Y-111877380D01*
X146227125Y-111877380D02*
X146215220Y-111865475D01*
X146215220Y-111865475D02*
X146191410Y-111853570D01*
X146191410Y-111853570D02*
X146131886Y-111853570D01*
X146131886Y-111853570D02*
X146108077Y-111865475D01*
X146108077Y-111865475D02*
X146096172Y-111877380D01*
X146096172Y-111877380D02*
X146084267Y-111901189D01*
X146084267Y-111901189D02*
X146084267Y-111948808D01*
X146084267Y-111948808D02*
X146096172Y-111972618D01*
X146096172Y-111972618D02*
X146108077Y-111984523D01*
X146108077Y-111984523D02*
X146131886Y-111996427D01*
X145989029Y-111770237D02*
X145989029Y-111603571D01*
X145989029Y-111603571D02*
X146239029Y-111710713D01*
X164056763Y-94051742D02*
X164223429Y-94051742D01*
X163961525Y-94111266D02*
X164140096Y-94170789D01*
X164140096Y-94170789D02*
X164140096Y-94016028D01*
X163973429Y-93944599D02*
X163973429Y-93777933D01*
X163973429Y-93777933D02*
X164223429Y-93885075D01*
X164056763Y-93575552D02*
X164223429Y-93575552D01*
X164056763Y-93682695D02*
X164187715Y-93682695D01*
X164187715Y-93682695D02*
X164211525Y-93670790D01*
X164211525Y-93670790D02*
X164223429Y-93646980D01*
X164223429Y-93646980D02*
X164223429Y-93611266D01*
X164223429Y-93611266D02*
X164211525Y-93587457D01*
X164211525Y-93587457D02*
X164199620Y-93575552D01*
X164092477Y-93373171D02*
X164092477Y-93456505D01*
X164223429Y-93456505D02*
X163973429Y-93456505D01*
X163973429Y-93456505D02*
X163973429Y-93337457D01*
X163997239Y-93063647D02*
X163985334Y-93051743D01*
X163985334Y-93051743D02*
X163973429Y-93027933D01*
X163973429Y-93027933D02*
X163973429Y-92968409D01*
X163973429Y-92968409D02*
X163985334Y-92944600D01*
X163985334Y-92944600D02*
X163997239Y-92932695D01*
X163997239Y-92932695D02*
X164021048Y-92920790D01*
X164021048Y-92920790D02*
X164044858Y-92920790D01*
X164044858Y-92920790D02*
X164080572Y-92932695D01*
X164080572Y-92932695D02*
X164223429Y-93075552D01*
X164223429Y-93075552D02*
X164223429Y-92920790D01*
X163973429Y-92694600D02*
X163973429Y-92813648D01*
X163973429Y-92813648D02*
X164092477Y-92825552D01*
X164092477Y-92825552D02*
X164080572Y-92813648D01*
X164080572Y-92813648D02*
X164068667Y-92789838D01*
X164068667Y-92789838D02*
X164068667Y-92730314D01*
X164068667Y-92730314D02*
X164080572Y-92706505D01*
X164080572Y-92706505D02*
X164092477Y-92694600D01*
X164092477Y-92694600D02*
X164116286Y-92682695D01*
X164116286Y-92682695D02*
X164175810Y-92682695D01*
X164175810Y-92682695D02*
X164199620Y-92694600D01*
X164199620Y-92694600D02*
X164211525Y-92706505D01*
X164211525Y-92706505D02*
X164223429Y-92730314D01*
X164223429Y-92730314D02*
X164223429Y-92789838D01*
X164223429Y-92789838D02*
X164211525Y-92813648D01*
X164211525Y-92813648D02*
X164199620Y-92825552D01*
X163973429Y-92611267D02*
X164223429Y-92527934D01*
X164223429Y-92527934D02*
X163973429Y-92444600D01*
X147189029Y-119116665D02*
X147189029Y-119259522D01*
X147189029Y-119188094D02*
X146939029Y-119188094D01*
X146939029Y-119188094D02*
X146974744Y-119211903D01*
X146974744Y-119211903D02*
X146998553Y-119235713D01*
X146998553Y-119235713D02*
X147010458Y-119259522D01*
X146962839Y-119021427D02*
X146950934Y-119009523D01*
X146950934Y-119009523D02*
X146939029Y-118985713D01*
X146939029Y-118985713D02*
X146939029Y-118926189D01*
X146939029Y-118926189D02*
X146950934Y-118902380D01*
X146950934Y-118902380D02*
X146962839Y-118890475D01*
X146962839Y-118890475D02*
X146986648Y-118878570D01*
X146986648Y-118878570D02*
X147010458Y-118878570D01*
X147010458Y-118878570D02*
X147046172Y-118890475D01*
X147046172Y-118890475D02*
X147189029Y-119033332D01*
X147189029Y-119033332D02*
X147189029Y-118878570D01*
X146939029Y-118723809D02*
X146939029Y-118699999D01*
X146939029Y-118699999D02*
X146950934Y-118676190D01*
X146950934Y-118676190D02*
X146962839Y-118664285D01*
X146962839Y-118664285D02*
X146986648Y-118652380D01*
X146986648Y-118652380D02*
X147034267Y-118640475D01*
X147034267Y-118640475D02*
X147093791Y-118640475D01*
X147093791Y-118640475D02*
X147141410Y-118652380D01*
X147141410Y-118652380D02*
X147165220Y-118664285D01*
X147165220Y-118664285D02*
X147177125Y-118676190D01*
X147177125Y-118676190D02*
X147189029Y-118699999D01*
X147189029Y-118699999D02*
X147189029Y-118723809D01*
X147189029Y-118723809D02*
X147177125Y-118747618D01*
X147177125Y-118747618D02*
X147165220Y-118759523D01*
X147165220Y-118759523D02*
X147141410Y-118771428D01*
X147141410Y-118771428D02*
X147093791Y-118783332D01*
X147093791Y-118783332D02*
X147034267Y-118783332D01*
X147034267Y-118783332D02*
X146986648Y-118771428D01*
X146986648Y-118771428D02*
X146962839Y-118759523D01*
X146962839Y-118759523D02*
X146950934Y-118747618D01*
X146950934Y-118747618D02*
X146939029Y-118723809D01*
X147189029Y-118390476D02*
X147069982Y-118473809D01*
X147189029Y-118533333D02*
X146939029Y-118533333D01*
X146939029Y-118533333D02*
X146939029Y-118438095D01*
X146939029Y-118438095D02*
X146950934Y-118414285D01*
X146950934Y-118414285D02*
X146962839Y-118402380D01*
X146962839Y-118402380D02*
X146986648Y-118390476D01*
X146986648Y-118390476D02*
X147022363Y-118390476D01*
X147022363Y-118390476D02*
X147046172Y-118402380D01*
X147046172Y-118402380D02*
X147058077Y-118414285D01*
X147058077Y-118414285D02*
X147069982Y-118438095D01*
X147069982Y-118438095D02*
X147069982Y-118533333D01*
X136933333Y-113510220D02*
X136921429Y-113522125D01*
X136921429Y-113522125D02*
X136885714Y-113534029D01*
X136885714Y-113534029D02*
X136861905Y-113534029D01*
X136861905Y-113534029D02*
X136826191Y-113522125D01*
X136826191Y-113522125D02*
X136802381Y-113498315D01*
X136802381Y-113498315D02*
X136790476Y-113474505D01*
X136790476Y-113474505D02*
X136778572Y-113426886D01*
X136778572Y-113426886D02*
X136778572Y-113391172D01*
X136778572Y-113391172D02*
X136790476Y-113343553D01*
X136790476Y-113343553D02*
X136802381Y-113319744D01*
X136802381Y-113319744D02*
X136826191Y-113295934D01*
X136826191Y-113295934D02*
X136861905Y-113284029D01*
X136861905Y-113284029D02*
X136885714Y-113284029D01*
X136885714Y-113284029D02*
X136921429Y-113295934D01*
X136921429Y-113295934D02*
X136933333Y-113307839D01*
X137016667Y-113284029D02*
X137171429Y-113284029D01*
X137171429Y-113284029D02*
X137088095Y-113379267D01*
X137088095Y-113379267D02*
X137123810Y-113379267D01*
X137123810Y-113379267D02*
X137147619Y-113391172D01*
X137147619Y-113391172D02*
X137159524Y-113403077D01*
X137159524Y-113403077D02*
X137171429Y-113426886D01*
X137171429Y-113426886D02*
X137171429Y-113486410D01*
X137171429Y-113486410D02*
X137159524Y-113510220D01*
X137159524Y-113510220D02*
X137147619Y-113522125D01*
X137147619Y-113522125D02*
X137123810Y-113534029D01*
X137123810Y-113534029D02*
X137052381Y-113534029D01*
X137052381Y-113534029D02*
X137028572Y-113522125D01*
X137028572Y-113522125D02*
X137016667Y-113510220D01*
D12*
%TO.C,Fuse*%
X125407336Y-109275200D02*
X126611464Y-109275200D01*
X125407336Y-111095200D02*
X126611464Y-111095200D01*
%TO.C,1K*%
X132190000Y-117022936D02*
X132190000Y-117477064D01*
X133660000Y-117022936D02*
X133660000Y-117477064D01*
%TO.C,470R*%
X147395000Y-105173737D02*
X147395000Y-103726263D01*
X150105000Y-105173737D02*
X150105000Y-103726263D01*
%TO.C,10K*%
X152202500Y-108329724D02*
X152202500Y-107820276D01*
X153247500Y-108329724D02*
X153247500Y-107820276D01*
%TO.C,Rsense*%
X154477500Y-100920276D02*
X154477500Y-101429724D01*
X155522500Y-100920276D02*
X155522500Y-101429724D01*
D13*
%TO.C,D2*%
X134851800Y-84819500D02*
X134851800Y-90280500D01*
X134851800Y-90280500D02*
X135192160Y-90280500D01*
X135192160Y-84819500D02*
X134851800Y-84819500D01*
X137457840Y-90280500D02*
X137798200Y-90280500D01*
X137798200Y-84819500D02*
X137457840Y-84819500D01*
X137798200Y-90280500D02*
X137798200Y-84819500D01*
X136401200Y-83676500D02*
G75*
G02*
X136248800Y-83676500I-76200J0D01*
G01*
X136248800Y-83676500D02*
G75*
G02*
X136401200Y-83676500I76200J0D01*
G01*
D14*
%TO.C,L1*%
X147925000Y-83725000D02*
X151355000Y-83725000D01*
X147925000Y-97225000D02*
X147925000Y-83725000D01*
X147925000Y-97225000D02*
X151355000Y-97225000D01*
X156995000Y-83725000D02*
X160425000Y-83725000D01*
X160425000Y-83725000D02*
X160425000Y-97225000D01*
X160425000Y-97225000D02*
X156995000Y-97225000D01*
D12*
%TO.C,LED*%
X144140000Y-116990000D02*
X144140000Y-119450000D01*
X145610000Y-116990000D02*
X144140000Y-116990000D01*
X145610000Y-119450000D02*
X145610000Y-116990000D01*
%TO.C,100nF 25V1*%
X132365000Y-106821267D02*
X132365000Y-106528733D01*
X133385000Y-106821267D02*
X133385000Y-106528733D01*
%TO.C,AOD4185*%
X134722500Y-93875000D02*
X134722500Y-100295000D01*
X134722500Y-100295000D02*
X134992500Y-100295000D01*
X141622500Y-93875000D02*
X141622500Y-100295000D01*
X141622500Y-100295000D02*
X141352500Y-100295000D01*
X135032500Y-102025000D02*
X134562500Y-102365000D01*
X134562500Y-101685000D01*
X135032500Y-102025000D01*
G36*
X135032500Y-102025000D02*
G01*
X134562500Y-102365000D01*
X134562500Y-101685000D01*
X135032500Y-102025000D01*
G37*
D13*
%TO.C,D1*%
X139419500Y-86326800D02*
X139419500Y-86667160D01*
X139419500Y-88932840D02*
X139419500Y-89273200D01*
X139419500Y-89273200D02*
X144880500Y-89273200D01*
X144880500Y-86326800D02*
X139419500Y-86326800D01*
X144880500Y-86667160D02*
X144880500Y-86326800D01*
X144880500Y-89273200D02*
X144880500Y-88932840D01*
X146099700Y-87800000D02*
G75*
G02*
X145947300Y-87800000I-76200J0D01*
G01*
X145947300Y-87800000D02*
G75*
G02*
X146099700Y-87800000I76200J0D01*
G01*
D12*
%TO.C,220pF*%
X151211252Y-99065000D02*
X150688748Y-99065000D01*
X151211252Y-100535000D02*
X150688748Y-100535000D01*
%TO.C,LED*%
X141415000Y-116990000D02*
X141415000Y-119450000D01*
X142885000Y-116990000D02*
X141415000Y-116990000D01*
X142885000Y-119450000D02*
X142885000Y-116990000D01*
%TO.C,220nF1*%
X150590000Y-118296267D02*
X150590000Y-118003733D01*
X151610000Y-118296267D02*
X151610000Y-118003733D01*
%TO.C,220pF*%
X145611252Y-98890000D02*
X145088748Y-98890000D01*
X145611252Y-100360000D02*
X145088748Y-100360000D01*
%TO.C,143k1*%
X135765000Y-110352064D02*
X135765000Y-108897936D01*
X137585000Y-110352064D02*
X137585000Y-108897936D01*
%TO.C,47uF 25V*%
X129305113Y-111933000D02*
X129305113Y-111367000D01*
X129345113Y-112167000D02*
X129345113Y-111133000D01*
X129385113Y-112327000D02*
X129385113Y-110973000D01*
X129425113Y-112455000D02*
X129425113Y-110845000D01*
X129465113Y-112564000D02*
X129465113Y-110736000D01*
X129505113Y-112661000D02*
X129505113Y-110639000D01*
X129545113Y-112748000D02*
X129545113Y-110552000D01*
X129585113Y-112827000D02*
X129585113Y-110473000D01*
X129625113Y-112901000D02*
X129625113Y-110399000D01*
X129665113Y-112969000D02*
X129665113Y-110331000D01*
X129705113Y-113033000D02*
X129705113Y-110267000D01*
X129745113Y-113093000D02*
X129745113Y-110207000D01*
X129785113Y-113149000D02*
X129785113Y-110151000D01*
X129825113Y-113203000D02*
X129825113Y-110097000D01*
X129865113Y-113254000D02*
X129865113Y-110046000D01*
X129905113Y-110610000D02*
X129905113Y-109998000D01*
X129905113Y-113302000D02*
X129905113Y-112690000D01*
X129945113Y-110610000D02*
X129945113Y-109951000D01*
X129945113Y-113349000D02*
X129945113Y-112690000D01*
X129985113Y-110610000D02*
X129985113Y-109907000D01*
X129985113Y-113393000D02*
X129985113Y-112690000D01*
X130025113Y-110610000D02*
X130025113Y-109865000D01*
X130025113Y-113435000D02*
X130025113Y-112690000D01*
X130065113Y-110610000D02*
X130065113Y-109825000D01*
X130065113Y-113475000D02*
X130065113Y-112690000D01*
X130105113Y-110610000D02*
X130105113Y-109786000D01*
X130105113Y-113514000D02*
X130105113Y-112690000D01*
X130145113Y-110610000D02*
X130145113Y-109749000D01*
X130145113Y-113551000D02*
X130145113Y-112690000D01*
X130185113Y-110610000D02*
X130185113Y-109714000D01*
X130185113Y-113586000D02*
X130185113Y-112690000D01*
X130225113Y-110610000D02*
X130225113Y-109680000D01*
X130225113Y-113620000D02*
X130225113Y-112690000D01*
X130265113Y-110610000D02*
X130265113Y-109647000D01*
X130265113Y-113653000D02*
X130265113Y-112690000D01*
X130305113Y-110610000D02*
X130305113Y-109615000D01*
X130305113Y-113685000D02*
X130305113Y-112690000D01*
X130345113Y-110610000D02*
X130345113Y-109585000D01*
X130345113Y-113715000D02*
X130345113Y-112690000D01*
X130385113Y-110610000D02*
X130385113Y-109556000D01*
X130385113Y-113744000D02*
X130385113Y-112690000D01*
X130425113Y-110610000D02*
X130425113Y-109528000D01*
X130425113Y-113772000D02*
X130425113Y-112690000D01*
X130465113Y-110610000D02*
X130465113Y-109501000D01*
X130465113Y-113799000D02*
X130465113Y-112690000D01*
X130505113Y-110610000D02*
X130505113Y-109475000D01*
X130505113Y-113825000D02*
X130505113Y-112690000D01*
X130545113Y-110610000D02*
X130545113Y-109451000D01*
X130545113Y-113849000D02*
X130545113Y-112690000D01*
X130585113Y-110610000D02*
X130585113Y-109427000D01*
X130585113Y-113873000D02*
X130585113Y-112690000D01*
X130625113Y-110610000D02*
X130625113Y-109404000D01*
X130625113Y-113896000D02*
X130625113Y-112690000D01*
X130665113Y-110610000D02*
X130665113Y-109382000D01*
X130665113Y-113918000D02*
X130665113Y-112690000D01*
X130705113Y-110610000D02*
X130705113Y-109361000D01*
X130705113Y-113939000D02*
X130705113Y-112690000D01*
X130745113Y-110610000D02*
X130745113Y-109341000D01*
X130745113Y-113959000D02*
X130745113Y-112690000D01*
X130785113Y-110610000D02*
X130785113Y-109321000D01*
X130785113Y-113979000D02*
X130785113Y-112690000D01*
X130825113Y-110610000D02*
X130825113Y-109303000D01*
X130825113Y-113997000D02*
X130825113Y-112690000D01*
X130865113Y-110610000D02*
X130865113Y-109285000D01*
X130865113Y-114015000D02*
X130865113Y-112690000D01*
X130905113Y-110610000D02*
X130905113Y-109268000D01*
X130905113Y-114032000D02*
X130905113Y-112690000D01*
X130945113Y-110610000D02*
X130945113Y-109252000D01*
X130945113Y-114048000D02*
X130945113Y-112690000D01*
X130985113Y-110610000D02*
X130985113Y-109237000D01*
X130985113Y-114063000D02*
X130985113Y-112690000D01*
X131025113Y-110610000D02*
X131025113Y-109222000D01*
X131025113Y-114078000D02*
X131025113Y-112690000D01*
X131065113Y-110610000D02*
X131065113Y-109208000D01*
X131065113Y-114092000D02*
X131065113Y-112690000D01*
X131105113Y-110610000D02*
X131105113Y-109195000D01*
X131105113Y-114105000D02*
X131105113Y-112690000D01*
X131145113Y-110610000D02*
X131145113Y-109183000D01*
X131145113Y-114117000D02*
X131145113Y-112690000D01*
X131185113Y-110610000D02*
X131185113Y-109171000D01*
X131185113Y-114129000D02*
X131185113Y-112690000D01*
X131225113Y-110610000D02*
X131225113Y-109160000D01*
X131225113Y-114140000D02*
X131225113Y-112690000D01*
X131265113Y-110610000D02*
X131265113Y-109149000D01*
X131265113Y-114151000D02*
X131265113Y-112690000D01*
X131305113Y-110610000D02*
X131305113Y-109140000D01*
X131305113Y-114160000D02*
X131305113Y-112690000D01*
X131345113Y-110610000D02*
X131345113Y-109131000D01*
X131345113Y-114169000D02*
X131345113Y-112690000D01*
X131385113Y-110610000D02*
X131385113Y-109122000D01*
X131385113Y-114178000D02*
X131385113Y-112690000D01*
X131425113Y-110610000D02*
X131425113Y-109114000D01*
X131425113Y-114186000D02*
X131425113Y-112690000D01*
X131465113Y-110610000D02*
X131465113Y-109107000D01*
X131465113Y-114193000D02*
X131465113Y-112690000D01*
X131505113Y-110610000D02*
X131505113Y-109101000D01*
X131505113Y-114199000D02*
X131505113Y-112690000D01*
X131545113Y-110610000D02*
X131545113Y-109095000D01*
X131545113Y-114205000D02*
X131545113Y-112690000D01*
X131585113Y-110610000D02*
X131585113Y-109090000D01*
X131585113Y-114210000D02*
X131585113Y-112690000D01*
X131625113Y-110610000D02*
X131625113Y-109085000D01*
X131625113Y-114215000D02*
X131625113Y-112690000D01*
X131665113Y-110610000D02*
X131665113Y-109081000D01*
X131665113Y-114219000D02*
X131665113Y-112690000D01*
X131705113Y-110610000D02*
X131705113Y-109078000D01*
X131705113Y-114222000D02*
X131705113Y-112690000D01*
X131745113Y-110610000D02*
X131745113Y-109075000D01*
X131745113Y-114225000D02*
X131745113Y-112690000D01*
X131785113Y-110610000D02*
X131785113Y-109073000D01*
X131785113Y-114227000D02*
X131785113Y-112690000D01*
X131825113Y-110610000D02*
X131825113Y-109071000D01*
X131825113Y-114229000D02*
X131825113Y-112690000D01*
X131865113Y-110610000D02*
X131865113Y-109070000D01*
X131865113Y-114230000D02*
X131865113Y-112690000D01*
X131905113Y-110610000D02*
X131905113Y-109070000D01*
X131905113Y-114230000D02*
X131905113Y-112690000D01*
X134459888Y-113375000D02*
X134459888Y-112875000D01*
X134709888Y-113125000D02*
X134209888Y-113125000D01*
X134525113Y-111650000D02*
G75*
G02*
X129285113Y-111650000I-2620000J0D01*
G01*
X129285113Y-111650000D02*
G75*
G02*
X134525113Y-111650000I2620000J0D01*
G01*
%TO.C,470R*%
X143445000Y-105148737D02*
X143445000Y-103701263D01*
X146155000Y-105148737D02*
X146155000Y-103701263D01*
%TO.C,Solar panel*%
X124882000Y-88771600D02*
X124882000Y-101621600D01*
X124882000Y-101621600D02*
X127432000Y-104471600D01*
X127432000Y-104471600D02*
X130582000Y-104471600D01*
X130582000Y-104471600D02*
X133182000Y-101621600D01*
X133182000Y-88771600D02*
X124882000Y-88771600D01*
X133182000Y-101621600D02*
X133182000Y-88771600D01*
%TO.C,Lead Acid Battery*%
X157775000Y-105650000D02*
X157775000Y-118500000D01*
X157775000Y-118500000D02*
X166075000Y-118500000D01*
X160375000Y-102800000D02*
X157775000Y-105650000D01*
X163525000Y-102800000D02*
X160375000Y-102800000D01*
X166075000Y-105650000D02*
X163525000Y-102800000D01*
X166075000Y-118500000D02*
X166075000Y-105650000D01*
D15*
%TO.C,CN3767*%
X140400960Y-114370000D02*
X140400960Y-110230000D01*
X145540960Y-114370000D02*
X145540960Y-110230000D01*
D12*
X140444041Y-114700000D02*
X140114041Y-114940000D01*
X140114041Y-114460000D01*
X140444041Y-114700000D01*
G36*
X140444041Y-114700000D02*
G01*
X140114041Y-114940000D01*
X140114041Y-114460000D01*
X140444041Y-114700000D01*
G37*
%TO.C,47uF 25V*%
X161445000Y-97165113D02*
X162985000Y-97165113D01*
X161445000Y-97205113D02*
X162985000Y-97205113D01*
X161446000Y-97125113D02*
X162985000Y-97125113D01*
X161448000Y-97085113D02*
X162985000Y-97085113D01*
X161450000Y-97045113D02*
X162985000Y-97045113D01*
X161453000Y-97005113D02*
X162985000Y-97005113D01*
X161456000Y-96965113D02*
X162985000Y-96965113D01*
X161460000Y-96925113D02*
X162985000Y-96925113D01*
X161465000Y-96885113D02*
X162985000Y-96885113D01*
X161470000Y-96845113D02*
X162985000Y-96845113D01*
X161476000Y-96805113D02*
X162985000Y-96805113D01*
X161482000Y-96765113D02*
X162985000Y-96765113D01*
X161489000Y-96725113D02*
X162985000Y-96725113D01*
X161497000Y-96685113D02*
X162985000Y-96685113D01*
X161506000Y-96645113D02*
X162985000Y-96645113D01*
X161515000Y-96605113D02*
X162985000Y-96605113D01*
X161524000Y-96565113D02*
X162985000Y-96565113D01*
X161535000Y-96525113D02*
X162985000Y-96525113D01*
X161546000Y-96485113D02*
X162985000Y-96485113D01*
X161558000Y-96445113D02*
X162985000Y-96445113D01*
X161570000Y-96405113D02*
X162985000Y-96405113D01*
X161583000Y-96365113D02*
X162985000Y-96365113D01*
X161597000Y-96325113D02*
X162985000Y-96325113D01*
X161612000Y-96285113D02*
X162985000Y-96285113D01*
X161627000Y-96245113D02*
X162985000Y-96245113D01*
X161643000Y-96205113D02*
X162985000Y-96205113D01*
X161660000Y-96165113D02*
X162985000Y-96165113D01*
X161678000Y-96125113D02*
X162985000Y-96125113D01*
X161696000Y-96085113D02*
X162985000Y-96085113D01*
X161716000Y-96045113D02*
X162985000Y-96045113D01*
X161736000Y-96005113D02*
X162985000Y-96005113D01*
X161757000Y-95965113D02*
X162985000Y-95965113D01*
X161779000Y-95925113D02*
X162985000Y-95925113D01*
X161802000Y-95885113D02*
X162985000Y-95885113D01*
X161826000Y-95845113D02*
X162985000Y-95845113D01*
X161850000Y-95805113D02*
X162985000Y-95805113D01*
X161876000Y-95765113D02*
X162985000Y-95765113D01*
X161903000Y-95725113D02*
X162985000Y-95725113D01*
X161931000Y-95685113D02*
X162985000Y-95685113D01*
X161960000Y-95645113D02*
X162985000Y-95645113D01*
X161990000Y-95605113D02*
X162985000Y-95605113D01*
X162022000Y-95565113D02*
X162985000Y-95565113D01*
X162055000Y-95525113D02*
X162985000Y-95525113D01*
X162089000Y-95485113D02*
X162985000Y-95485113D01*
X162124000Y-95445113D02*
X162985000Y-95445113D01*
X162161000Y-95405113D02*
X162985000Y-95405113D01*
X162200000Y-95365113D02*
X162985000Y-95365113D01*
X162240000Y-95325113D02*
X162985000Y-95325113D01*
X162282000Y-95285113D02*
X162985000Y-95285113D01*
X162300000Y-99759888D02*
X162800000Y-99759888D01*
X162326000Y-95245113D02*
X162985000Y-95245113D01*
X162373000Y-95205113D02*
X162985000Y-95205113D01*
X162421000Y-95165113D02*
X165629000Y-95165113D01*
X162472000Y-95125113D02*
X165578000Y-95125113D01*
X162526000Y-95085113D02*
X165524000Y-95085113D01*
X162550000Y-100009888D02*
X162550000Y-99509888D01*
X162582000Y-95045113D02*
X165468000Y-95045113D01*
X162642000Y-95005113D02*
X165408000Y-95005113D01*
X162706000Y-94965113D02*
X165344000Y-94965113D01*
X162774000Y-94925113D02*
X165276000Y-94925113D01*
X162848000Y-94885113D02*
X165202000Y-94885113D01*
X162927000Y-94845113D02*
X165123000Y-94845113D01*
X163014000Y-94805113D02*
X165036000Y-94805113D01*
X163111000Y-94765113D02*
X164939000Y-94765113D01*
X163220000Y-94725113D02*
X164830000Y-94725113D01*
X163348000Y-94685113D02*
X164702000Y-94685113D01*
X163508000Y-94645113D02*
X164542000Y-94645113D01*
X163742000Y-94605113D02*
X164308000Y-94605113D01*
X165065000Y-95205113D02*
X165677000Y-95205113D01*
X165065000Y-95245113D02*
X165724000Y-95245113D01*
X165065000Y-95285113D02*
X165768000Y-95285113D01*
X165065000Y-95325113D02*
X165810000Y-95325113D01*
X165065000Y-95365113D02*
X165850000Y-95365113D01*
X165065000Y-95405113D02*
X165889000Y-95405113D01*
X165065000Y-95445113D02*
X165926000Y-95445113D01*
X165065000Y-95485113D02*
X165961000Y-95485113D01*
X165065000Y-95525113D02*
X165995000Y-95525113D01*
X165065000Y-95565113D02*
X166028000Y-95565113D01*
X165065000Y-95605113D02*
X166060000Y-95605113D01*
X165065000Y-95645113D02*
X166090000Y-95645113D01*
X165065000Y-95685113D02*
X166119000Y-95685113D01*
X165065000Y-95725113D02*
X166147000Y-95725113D01*
X165065000Y-95765113D02*
X166174000Y-95765113D01*
X165065000Y-95805113D02*
X166200000Y-95805113D01*
X165065000Y-95845113D02*
X166224000Y-95845113D01*
X165065000Y-95885113D02*
X166248000Y-95885113D01*
X165065000Y-95925113D02*
X166271000Y-95925113D01*
X165065000Y-95965113D02*
X166293000Y-95965113D01*
X165065000Y-96005113D02*
X166314000Y-96005113D01*
X165065000Y-96045113D02*
X166334000Y-96045113D01*
X165065000Y-96085113D02*
X166354000Y-96085113D01*
X165065000Y-96125113D02*
X166372000Y-96125113D01*
X165065000Y-96165113D02*
X166390000Y-96165113D01*
X165065000Y-96205113D02*
X166407000Y-96205113D01*
X165065000Y-96245113D02*
X166423000Y-96245113D01*
X165065000Y-96285113D02*
X166438000Y-96285113D01*
X165065000Y-96325113D02*
X166453000Y-96325113D01*
X165065000Y-96365113D02*
X166467000Y-96365113D01*
X165065000Y-96405113D02*
X166480000Y-96405113D01*
X165065000Y-96445113D02*
X166492000Y-96445113D01*
X165065000Y-96485113D02*
X166504000Y-96485113D01*
X165065000Y-96525113D02*
X166515000Y-96525113D01*
X165065000Y-96565113D02*
X166526000Y-96565113D01*
X165065000Y-96605113D02*
X166535000Y-96605113D01*
X165065000Y-96645113D02*
X166544000Y-96645113D01*
X165065000Y-96685113D02*
X166553000Y-96685113D01*
X165065000Y-96725113D02*
X166561000Y-96725113D01*
X165065000Y-96765113D02*
X166568000Y-96765113D01*
X165065000Y-96805113D02*
X166574000Y-96805113D01*
X165065000Y-96845113D02*
X166580000Y-96845113D01*
X165065000Y-96885113D02*
X166585000Y-96885113D01*
X165065000Y-96925113D02*
X166590000Y-96925113D01*
X165065000Y-96965113D02*
X166594000Y-96965113D01*
X165065000Y-97005113D02*
X166597000Y-97005113D01*
X165065000Y-97045113D02*
X166600000Y-97045113D01*
X165065000Y-97085113D02*
X166602000Y-97085113D01*
X165065000Y-97125113D02*
X166604000Y-97125113D01*
X165065000Y-97165113D02*
X166605000Y-97165113D01*
X165065000Y-97205113D02*
X166605000Y-97205113D01*
X166645000Y-97205113D02*
G75*
G02*
X161405000Y-97205113I-2620000J0D01*
G01*
X161405000Y-97205113D02*
G75*
G02*
X166645000Y-97205113I2620000J0D01*
G01*
%TO.C,120R*%
X147777500Y-117845276D02*
X147777500Y-118354724D01*
X148822500Y-117845276D02*
X148822500Y-118354724D01*
%TO.C,C3*%
X136828733Y-114340000D02*
X137121267Y-114340000D01*
X136828733Y-115360000D02*
X137121267Y-115360000D01*
%TD*%
M02*
